<svg width="484" height="249" viewBox="0 0 484 249" fill="none" xmlns="http://www.w3.org/2000/svg">
<path fill-rule="evenodd" clip-rule="evenodd" d="M190.708 182.511C187.745 181.538 184.487 182.083 182.003 183.967L167.396 195.052C161.14 199.799 152.144 195.328 152.172 187.487L152.239 169.176C152.25 166.062 150.726 163.142 148.163 161.368L133.081 150.931C126.623 146.462 128.104 136.545 135.587 134.149L153.065 128.555C156.035 127.604 158.35 125.254 159.247 122.272L164.535 104.738C166.8 97.2292 176.714 95.5707 181.308 101.931L192.041 116.784C193.866 119.31 196.822 120.779 199.942 120.71L218.292 120.31C226.15 120.138 230.793 129.03 226.15 135.357L215.307 150.131C213.464 152.644 212.978 155.9 214.006 158.84L220.06 176.127C222.651 183.53 215.608 190.684 208.144 188.233L190.708 182.511Z" fill="#F4B942"/>
<mask id="mask0_1_99" style="mask-type:alpha" maskUnits="userSpaceOnUse" x="129" y="98" width="99" height="99">
<path fill-rule="evenodd" clip-rule="evenodd" d="M190.708 182.511C187.745 181.538 184.487 182.083 182.003 183.967L167.396 195.052C161.14 199.799 152.144 195.328 152.172 187.487L152.239 169.176C152.25 166.062 150.726 163.142 148.163 161.368L133.081 150.931C126.623 146.462 128.104 136.545 135.587 134.149L153.065 128.555C156.035 127.604 158.35 125.254 159.247 122.272L164.535 104.738C166.8 97.2292 176.714 95.5707 181.308 101.931L192.041 116.784C193.866 119.31 196.822 120.779 199.942 120.71L218.292 120.31C226.15 120.138 230.793 129.03 226.15 135.357L215.307 150.131C213.464 152.644 212.978 155.9 214.006 158.84L220.06 176.127C222.651 183.53 215.608 190.684 208.144 188.233L190.708 182.511Z" fill="white"/>
</mask>
<g mask="url(#mask0_1_99)">
<g style="mix-blend-mode:luminosity" opacity="0.15">
<path fill-rule="evenodd" clip-rule="evenodd" d="M161.275 97.7971C161.275 97.7971 177.867 135.532 191.174 137.166C204.481 138.8 210.884 133.797 210.183 139.5C209.483 145.203 206.549 161.245 218.905 162.762C231.261 164.279 251.587 116.604 251.587 116.604L176.682 82.3223L161.275 97.7971Z" fill="white"/>
</g>
</g>
<path fill-rule="evenodd" clip-rule="evenodd" d="M250.227 139.431C243.794 140.887 239.108 146.754 237.44 153.039C230.09 180.708 269.556 219.354 294.978 221.732C325.889 224.624 341.522 183.233 347.835 153.969C350.292 142.584 345.71 128.816 334.67 124.638C324.777 120.893 313.453 126.019 306.006 133.44C302.46 136.97 299.367 141.092 294.992 143.561C289.842 146.469 283.476 146.69 277.683 145.402C275.641 144.947 273.67 144.301 271.732 143.59C264.742 141.026 258.193 137.628 250.227 139.431Z" fill="#F18273"/>
<g style="mix-blend-mode:luminosity" opacity="0.15">
<path fill-rule="evenodd" clip-rule="evenodd" d="M270.31 214.575C270.31 214.575 335.148 195.141 343.223 132.189C351.298 69.2365 350.968 206.408 350.968 206.408L295.835 237.42L270.31 214.575Z" fill="white"/>
</g>
<path fill-rule="evenodd" clip-rule="evenodd" d="M329.201 71.4213C326.842 67.2522 322.62 63.9429 317.704 64.4938C316.726 64.6032 315.762 64.8473 314.78 64.843C312.384 64.8323 312.45 63.5452 311.758 61.7796C311.107 60.1163 310.363 58.4771 309.458 56.9317C307.67 53.8828 305.17 51.2166 301.774 49.924C296.91 48.0726 292.012 48.9806 288.514 52.8543C286.904 54.6357 285.712 56.7611 284.771 58.946C283.902 60.9604 283.861 64.6436 281.01 64.833C279.565 64.929 278.278 63.9891 276.888 63.5897C272.668 62.3796 267.797 63.3416 264.408 66.085C258.451 70.9093 256.895 81.6639 262.385 87.359C265.141 90.2183 268.916 91.8944 272.679 93.244C283.192 97.015 294.444 98.7754 305.628 98.3987C317.391 98.0024 333.335 90.4115 331.05 76.5399C330.767 74.8221 330.127 73.0556 329.201 71.4213Z" fill="#B7C0EB"/>
<mask id="mask1_1_99" style="mask-type:alpha" maskUnits="userSpaceOnUse" x="258" y="49" width="74" height="50">
<path fill-rule="evenodd" clip-rule="evenodd" d="M329.201 71.4213C326.842 67.2522 322.62 63.9429 317.704 64.4938C316.726 64.6032 315.762 64.8473 314.78 64.843C312.384 64.8323 312.45 63.5452 311.758 61.7796C311.107 60.1163 310.363 58.4771 309.458 56.9317C307.67 53.8828 305.17 51.2166 301.774 49.924C296.91 48.0726 292.012 48.9806 288.514 52.8543C286.904 54.6357 285.712 56.7611 284.771 58.946C283.902 60.9604 283.861 64.6436 281.01 64.833C279.565 64.929 278.278 63.9891 276.888 63.5897C272.668 62.3796 267.797 63.3416 264.408 66.085C258.451 70.9093 256.895 81.6639 262.385 87.359C265.141 90.2183 268.916 91.8944 272.679 93.244C283.192 97.015 294.444 98.7754 305.628 98.3987C317.391 98.0024 333.335 90.4115 331.05 76.5399C330.767 74.8221 330.127 73.0556 329.201 71.4213Z" fill="white"/>
</mask>
<g mask="url(#mask1_1_99)">
<g style="mix-blend-mode:luminosity" opacity="0.15">
<path fill-rule="evenodd" clip-rule="evenodd" d="M252.4 55.8996C252.4 55.8996 265.409 92.9561 304.506 95.9501C343.603 98.944 258.672 102.426 258.672 102.426L238.641 71.3043L252.4 55.8996Z" fill="white"/>
</g>
</g>
<path fill-rule="evenodd" clip-rule="evenodd" d="M5.4771 82.355C11.6751 88.5169 18.2477 94.4029 26.2329 96.1218C31.9219 97.3459 36.6745 97.511 42.3564 95.9063C44.8982 95.1885 47.4294 93.6929 49.7363 92.2546C51.3882 91.2253 52.7446 89.8248 54.2042 88.3948C59.5158 83.1862 63.8591 69.0979 72.1148 75.4744C75.9169 78.4139 78.9857 82.9351 82.7665 86.0232C87.4479 89.8461 92.5708 92.8078 97.8931 94.8817C99.2103 95.3945 100.545 95.7681 101.905 96.0436C104.711 96.6115 107.911 97.3459 110.834 97.0938C116.437 96.6163 122.297 95.0703 127.018 90.9541C131.504 87.0435 134.957 82.7487 137.812 76.8066C139.353 73.6025 139.855 68.5478 142.693 66.735C146.84 64.0848 149.115 69.8053 151.144 73.1623C154.014 77.9173 157.499 82.0795 161.557 85.1763C166.602 89.0266 171.757 90.2498 177.507 90.9758C179.97 91.2865 182.505 91.4069 184.975 91.177C190.273 90.683 194.63 89.6206 199.34 86.4647C201.366 85.109 203.285 83.2658 204.858 81.1905C208.03 77.0039 209.148 73.7681 210.761 68.447C211.533 65.3163 211.64 62.1869 211.085 59.0583C210.971 55.925 210.23 53.0085 208.871 50.308C206.61 45.4275 202.181 40.7764 197.749 39.5046C194.014 38.4331 190.177 38.4813 186.521 39.9761C184.182 40.9342 181.704 43.3375 179.308 41.5151C175.99 38.9919 175.666 30.8143 173.996 26.8988C172.013 22.2469 169.404 17.8313 166.527 14.0254C163.722 10.3137 160.311 6.94836 156.605 4.80576C151.386 1.7876 145.865 -0.501876 140.012 0.0951511C134.59 0.647858 129.029 2.17736 124.537 6.31831C120.2 10.312 116.708 14.5624 113.977 20.517C112.019 24.7836 110.553 29.5715 109.467 34.3126C108.669 37.8026 108.926 43.4748 105.558 44.7549C99.634 47.0066 95.7073 33.0407 92.8201 28.7164C91.2394 26.3491 89.1212 24.5307 87.1738 22.7287C86.3265 21.9444 85.4436 21.2866 84.4895 20.7274C81.4101 18.9167 78.3413 17.2065 74.9771 16.5686C71.4811 15.9051 68.124 15.2051 64.6173 15.7361C62.2001 16.1019 59.6974 16.367 57.3335 17.1869C54.991 18.0003 52.6805 19.3543 50.5089 20.6518C49.6972 21.1362 48.9318 21.6829 48.1948 22.3325C46.276 24.0245 44.204 25.8451 42.6056 28.0664C40.3485 31.2314 38.7037 34.9552 36.4965 38.1407C34.9123 40.4293 32.9899 44.4438 30.9749 45.9563C28.9955 47.445 27.543 44.8978 25.7487 44.1622C23.5308 42.6914 21.1456 42.0192 18.5859 42.1452C14.0241 42.1517 8.57968 44.7245 5.44434 49.0601C2.19616 53.5513 -0.21293 59.4455 0.0149133 65.7156C0.226024 71.5186 1.69348 78.5938 5.4771 82.355Z" fill="#6B99C4"/>
<mask id="mask2_1_99" style="mask-type:alpha" maskUnits="userSpaceOnUse" x="0" y="0" width="212" height="98">
<path fill-rule="evenodd" clip-rule="evenodd" d="M5.4771 82.355C11.6751 88.5169 18.2477 94.4029 26.2329 96.1218C31.9219 97.3459 36.6745 97.511 42.3564 95.9063C44.8982 95.1885 47.4294 93.6929 49.7363 92.2546C51.3882 91.2253 52.7446 89.8248 54.2042 88.3948C59.5158 83.1862 63.8591 69.0979 72.1148 75.4744C75.9169 78.4139 78.9857 82.9351 82.7665 86.0232C87.4479 89.8461 92.5708 92.8078 97.8931 94.8817C99.2103 95.3945 100.545 95.7681 101.905 96.0436C104.711 96.6115 107.911 97.3459 110.834 97.0938C116.437 96.6163 122.297 95.0703 127.018 90.9541C131.504 87.0435 134.957 82.7487 137.812 76.8066C139.353 73.6025 139.855 68.5478 142.693 66.735C146.84 64.0848 149.115 69.8053 151.144 73.1623C154.014 77.9173 157.499 82.0795 161.557 85.1763C166.602 89.0266 171.757 90.2498 177.507 90.9758C179.97 91.2865 182.505 91.4069 184.975 91.177C190.273 90.683 194.63 89.6206 199.34 86.4647C201.366 85.109 203.285 83.2658 204.858 81.1905C208.03 77.0039 209.148 73.7681 210.761 68.447C211.533 65.3163 211.64 62.1869 211.085 59.0583C210.971 55.925 210.23 53.0085 208.871 50.308C206.61 45.4275 202.181 40.7764 197.749 39.5046C194.014 38.4331 190.177 38.4813 186.521 39.9761C184.182 40.9342 181.704 43.3375 179.308 41.5151C175.99 38.9919 175.666 30.8143 173.996 26.8988C172.013 22.2469 169.404 17.8313 166.527 14.0254C163.722 10.3137 160.311 6.94836 156.605 4.80576C151.386 1.7876 145.865 -0.501876 140.012 0.0951511C134.59 0.647858 129.029 2.17736 124.537 6.31831C120.2 10.312 116.708 14.5624 113.977 20.517C112.019 24.7836 110.553 29.5715 109.467 34.3126C108.669 37.8026 108.926 43.4748 105.558 44.7549C99.634 47.0066 95.7073 33.0407 92.8201 28.7164C91.2394 26.3491 89.1212 24.5307 87.1738 22.7287C86.3265 21.9444 85.4436 21.2866 84.4895 20.7274C81.4101 18.9167 78.3413 17.2065 74.9771 16.5686C71.4811 15.9051 68.124 15.2051 64.6173 15.7361C62.2001 16.1019 59.6974 16.367 57.3335 17.1869C54.991 18.0003 52.6805 19.3543 50.5089 20.6518C49.6972 21.1362 48.9318 21.6829 48.1948 22.3325C46.276 24.0245 44.204 25.8451 42.6056 28.0664C40.3485 31.2314 38.7037 34.9552 36.4965 38.1407C34.9123 40.4293 32.9899 44.4438 30.9749 45.9563C28.9955 47.445 27.543 44.8978 25.7487 44.1622C23.5308 42.6914 21.1456 42.0192 18.5859 42.1452C14.0241 42.1517 8.57968 44.7245 5.44434 49.0601C2.19616 53.5513 -0.21293 59.4455 0.0149133 65.7156C0.226024 71.5186 1.69348 78.5938 5.4771 82.355Z" fill="white"/>
</mask>
<g mask="url(#mask2_1_99)">
<g style="mix-blend-mode:luminosity" opacity="0.15">
<path fill-rule="evenodd" clip-rule="evenodd" d="M11.0506 120.812C17.2487 126.974 23.8213 132.86 31.8064 134.579C37.4954 135.803 42.2481 135.968 47.9299 134.363C50.4718 133.645 53.003 132.15 55.3099 130.712C56.9617 129.682 58.3181 128.282 59.7777 126.852C65.0893 121.643 69.4326 107.555 77.6884 113.931C81.4905 116.871 84.5592 121.392 88.34 124.48C93.0215 128.303 98.1444 131.265 103.467 133.339C104.784 133.851 106.119 134.225 107.479 134.501C110.284 135.069 113.485 135.803 116.407 135.551C122.011 135.073 127.871 133.527 132.591 129.411C137.077 125.5 140.53 121.206 143.385 115.264C144.927 112.06 145.429 107.005 148.266 105.192C152.414 102.542 154.689 108.262 156.718 111.619C159.587 116.374 163.073 120.537 167.131 123.633C172.176 127.484 177.331 128.707 183.08 129.433C185.544 129.744 188.078 129.864 190.549 129.634C195.846 129.14 200.204 128.078 204.914 124.922C206.939 123.566 208.858 121.723 210.432 119.647C213.604 115.461 214.722 112.225 216.334 106.904C217.107 103.773 217.214 100.644 216.658 97.5153C216.544 94.382 215.804 91.4655 214.444 88.765C212.183 83.8845 207.755 79.2334 203.322 77.9616C199.588 76.8901 195.75 76.9383 192.094 78.4331C189.755 79.3912 187.277 81.7945 184.881 79.9721C181.563 77.4489 181.24 69.2713 179.57 65.3558C177.587 60.7039 174.977 56.2883 172.101 52.4824C169.296 48.7707 165.885 45.4054 162.179 43.2628C156.96 40.2446 151.438 37.9551 145.586 38.5522C140.164 39.1049 134.603 40.6344 130.11 44.7753C125.774 48.769 122.282 53.0194 119.551 58.9741C117.593 63.2406 116.126 68.0285 115.04 72.7696C114.243 76.2596 114.499 81.9318 111.131 83.2119C105.208 85.4636 101.281 71.4977 98.3936 67.1734C96.8129 64.8061 94.6947 62.9877 92.7474 61.1857C91.9001 60.4014 91.0172 59.7436 90.0631 59.1844C86.9836 57.3737 83.9149 55.6635 80.5506 55.0256C77.0547 54.3621 73.6975 53.6621 70.1909 54.1931C67.7736 54.5589 65.2709 54.824 62.907 55.6439C60.5645 56.4573 58.254 57.8113 56.0824 59.1088C55.2707 59.5932 54.5053 60.1399 53.7684 60.7895C51.8495 62.4815 49.7776 64.3021 48.1791 66.5234C45.922 69.6884 44.2773 73.4122 42.0701 76.5977C40.4858 78.8863 38.5634 82.9008 36.5484 84.4133C34.569 85.902 33.1165 83.3548 31.3223 82.6192C29.1044 81.1484 26.7191 80.4762 24.1595 80.6022C19.5976 80.6087 14.1532 83.1815 11.0179 87.5171C7.7697 92.0083 5.36062 97.9025 5.58846 104.173C5.79957 109.976 7.26702 117.051 11.0506 120.812Z" fill="white"/>
</g>
</g>
<path fill-rule="evenodd" clip-rule="evenodd" d="M433.341 248.672C407.799 251.296 383.608 233.4 375.526 209.323C369.084 190.118 375.861 171.919 385.732 155.204C386.979 153.09 388.283 151.001 389.615 148.939C393.3 143.247 396.284 135.006 404.71 137.437C406.967 138.091 408.87 139.585 410.687 141.072C433.297 159.552 453.095 180.996 475.106 200.101C479.714 204.099 485.329 209.323 482.534 216.066C478.994 224.594 471.453 229.893 464.454 235.317C456.965 241.123 448.361 245.648 439.056 247.737C437.148 248.163 435.243 248.473 433.341 248.672Z" fill="#B3D2A3"/>
<mask id="mask3_1_99" style="mask-type:alpha" maskUnits="userSpaceOnUse" x="373" y="137" width="111" height="112">
<path fill-rule="evenodd" clip-rule="evenodd" d="M433.341 248.672C407.799 251.296 383.608 233.4 375.526 209.323C369.084 190.118 375.861 171.919 385.732 155.204C386.979 153.09 388.283 151.001 389.615 148.939C393.3 143.247 396.284 135.006 404.71 137.437C406.967 138.091 408.87 139.585 410.687 141.072C433.297 159.552 453.095 180.996 475.106 200.101C479.714 204.099 485.329 209.323 482.534 216.066C478.994 224.594 471.453 229.893 464.454 235.317C456.965 241.123 448.361 245.648 439.056 247.737C437.148 248.163 435.243 248.473 433.341 248.672Z" fill="white"/>
</mask>
<g mask="url(#mask3_1_99)">
<g style="mix-blend-mode:luminosity" opacity="0.15">
<path fill-rule="evenodd" clip-rule="evenodd" d="M395.207 125.891C395.207 125.891 367.484 206.546 429.897 263.329C492.309 320.111 343.301 213.865 343.301 213.865L351.111 134.097L395.207 125.891Z" fill="white"/>
</g>
</g>
</svg>
