<svg width="1413" height="242" viewBox="0 0 1413 242" fill="none" xmlns="http://www.w3.org/2000/svg">
<path fill-rule="evenodd" clip-rule="evenodd" d="M199.708 182.511C196.745 181.538 193.487 182.083 191.003 183.967L176.396 195.052C170.14 199.799 161.144 195.328 161.172 187.487L161.239 169.176C161.25 166.062 159.726 163.142 157.163 161.367L142.081 150.931C135.623 146.462 137.104 136.545 144.587 134.149L162.065 128.555C165.035 127.604 167.35 125.254 168.247 122.272L173.535 104.738C175.8 97.2292 185.714 95.5707 190.308 101.931L201.041 116.784C202.866 119.31 205.822 120.779 208.942 120.71L227.292 120.31C235.15 120.138 239.793 129.03 235.15 135.357L224.307 150.131C222.464 152.644 221.978 155.9 223.006 158.84L229.06 176.127C231.651 183.53 224.608 190.684 217.144 188.233L199.708 182.511Z" fill="#F4B942"/>
<mask id="mask0_406_83" style="mask-type:alpha" maskUnits="userSpaceOnUse" x="138" y="98" width="99" height="99">
<path fill-rule="evenodd" clip-rule="evenodd" d="M199.708 182.511C196.745 181.538 193.487 182.083 191.003 183.967L176.396 195.052C170.14 199.799 161.144 195.328 161.172 187.487L161.239 169.176C161.25 166.062 159.726 163.142 157.163 161.367L142.081 150.931C135.623 146.462 137.104 136.545 144.587 134.149L162.065 128.555C165.035 127.604 167.35 125.254 168.247 122.272L173.535 104.738C175.8 97.2292 185.714 95.5707 190.308 101.931L201.041 116.784C202.866 119.31 205.822 120.779 208.942 120.71L227.292 120.31C235.15 120.138 239.793 129.03 235.15 135.357L224.307 150.131C222.464 152.644 221.978 155.9 223.006 158.84L229.06 176.127C231.651 183.53 224.608 190.684 217.144 188.233L199.708 182.511Z" fill="white"/>
</mask>
<g mask="url(#mask0_406_83)">
<g style="mix-blend-mode:luminosity" opacity="0.15">
<path fill-rule="evenodd" clip-rule="evenodd" d="M170.275 97.797C170.275 97.797 186.867 135.532 200.174 137.166C213.481 138.8 219.884 133.797 219.183 139.5C218.483 145.203 215.549 161.245 227.905 162.762C240.261 164.279 260.587 116.604 260.587 116.604L185.682 82.3223L170.275 97.797Z" fill="white"/>
</g>
</g>
<path fill-rule="evenodd" clip-rule="evenodd" d="M272.684 139.169C266.252 140.625 261.565 146.492 259.897 152.777C252.548 180.446 292.014 219.092 317.435 221.47C348.347 224.362 363.979 182.971 370.292 153.707C372.75 142.322 368.168 128.555 357.127 124.376C347.235 120.631 335.91 125.758 328.464 133.178C324.918 136.708 321.825 140.83 317.449 143.299C312.299 146.207 305.934 146.428 300.14 145.14C298.098 144.685 296.127 144.039 294.19 143.328C287.2 140.764 280.651 137.366 272.684 139.169Z" fill="#F18273"/>
<g style="mix-blend-mode:luminosity" opacity="0.15">
<path fill-rule="evenodd" clip-rule="evenodd" d="M292.768 214.313C292.768 214.313 357.606 194.879 365.681 131.927C373.755 68.9746 373.426 206.146 373.426 206.146L318.293 237.158L292.768 214.313Z" fill="white"/>
</g>
<path fill-rule="evenodd" clip-rule="evenodd" d="M320.202 71.4213C317.842 67.2521 313.62 63.9429 308.704 64.4938C307.727 64.6032 306.762 64.8472 305.78 64.843C303.384 64.8323 303.45 63.5452 302.758 61.7796C302.107 60.1163 301.363 58.4771 300.458 56.9316C298.67 53.8828 296.17 51.2166 292.774 49.924C287.91 48.0726 283.012 48.9805 279.514 52.8543C277.904 54.6357 276.713 56.7611 275.771 58.946C274.902 60.9603 274.861 64.6436 272.01 64.833C270.565 64.929 269.278 63.9891 267.888 63.5896C263.668 62.3796 258.798 63.3416 255.408 66.085C249.451 70.9093 247.895 81.6638 253.385 87.359C256.141 90.2183 259.916 91.8943 263.68 93.2439C274.192 97.015 285.444 98.7754 296.629 98.3987C308.391 98.0024 324.335 90.4114 322.05 76.5399C321.767 74.8221 321.127 73.0556 320.202 71.4213" fill="#B7C0EB"/>
<mask id="mask1_406_83" style="mask-type:alpha" maskUnits="userSpaceOnUse" x="250" y="49" width="73" height="50">
<path fill-rule="evenodd" clip-rule="evenodd" d="M320.202 71.4213C317.842 67.2521 313.62 63.9429 308.704 64.4938C307.727 64.6032 306.762 64.8472 305.78 64.843C303.384 64.8323 303.45 63.5452 302.758 61.7796C302.107 60.1163 301.363 58.4771 300.458 56.9316C298.67 53.8828 296.17 51.2166 292.774 49.924C287.91 48.0726 283.012 48.9805 279.514 52.8543C277.904 54.6357 276.713 56.7611 275.771 58.946C274.902 60.9603 274.861 64.6436 272.01 64.833C270.565 64.929 269.278 63.9891 267.888 63.5896C263.668 62.3796 258.798 63.3416 255.408 66.085C249.451 70.9093 247.895 81.6638 253.385 87.359C256.141 90.2183 259.916 91.8943 263.68 93.2439C274.192 97.015 285.444 98.7754 296.629 98.3987C308.391 98.0024 324.335 90.4114 322.05 76.5399C321.767 74.8221 321.127 73.0556 320.202 71.4213" fill="white"/>
</mask>
<g mask="url(#mask1_406_83)">
<g style="mix-blend-mode:luminosity" opacity="0.15">
<path fill-rule="evenodd" clip-rule="evenodd" d="M243.4 55.8995C243.4 55.8995 256.41 92.9561 295.506 95.9501C334.603 98.944 249.672 102.426 249.672 102.426L229.641 71.3042L243.4 55.8995Z" fill="white"/>
</g>
</g>
<path fill-rule="evenodd" clip-rule="evenodd" d="M5.4771 82.355C11.6751 88.5169 18.2477 94.4029 26.2329 96.1218C31.9219 97.3459 36.6745 97.511 42.3564 95.9063C44.8982 95.1885 47.4294 93.6929 49.7363 92.2546C51.3882 91.2253 52.7446 89.8248 54.2042 88.3948C59.5158 83.1862 63.8591 69.0979 72.1148 75.4744C75.9169 78.4139 78.9857 82.9351 82.7665 86.0232C87.4479 89.8461 92.5708 92.8078 97.8931 94.8817C99.2103 95.3945 100.545 95.7681 101.905 96.0436C104.711 96.6115 107.911 97.3459 110.834 97.0938C116.437 96.6163 122.297 95.0703 127.018 90.9541C131.504 87.0435 134.957 82.7487 137.812 76.8066C139.353 73.6025 139.855 68.5478 142.693 66.735C146.84 64.0848 149.115 69.8053 151.144 73.1623C154.014 77.9173 157.499 82.0795 161.557 85.1763C166.602 89.0266 171.757 90.2498 177.506 90.9758C179.97 91.2865 182.505 91.4069 184.975 91.177C190.273 90.683 194.63 89.6206 199.34 86.4647C201.366 85.109 203.285 83.2658 204.858 81.1905C208.03 77.0039 209.148 73.7681 210.761 68.447C211.533 65.3163 211.64 62.1869 211.085 59.0583C210.971 55.925 210.23 53.0085 208.871 50.308C206.61 45.4275 202.181 40.7764 197.749 39.5046C194.014 38.4331 190.177 38.4813 186.521 39.9761C184.182 40.9342 181.704 43.3375 179.308 41.5151C175.99 38.9919 175.666 30.8143 173.996 26.8988C172.013 22.2469 169.404 17.8313 166.527 14.0254C163.722 10.3137 160.311 6.94836 156.605 4.80576C151.386 1.7876 145.865 -0.501876 140.012 0.0951511C134.59 0.647858 129.029 2.17736 124.537 6.31831C120.2 10.312 116.708 14.5624 113.977 20.5171C112.019 24.7836 110.553 29.5715 109.467 34.3126C108.669 37.8026 108.926 43.4748 105.558 44.7549C99.634 47.0066 95.7073 33.0407 92.8201 28.7164C91.2394 26.3491 89.1212 24.5307 87.1738 22.7287C86.3265 21.9444 85.4436 21.2866 84.4895 20.7274C81.4101 18.9167 78.3413 17.2065 74.9771 16.5686C71.4811 15.9051 68.124 15.2051 64.6173 15.7361C62.2001 16.1019 59.6974 16.367 57.3335 17.1869C54.991 18.0003 52.6805 19.3543 50.5089 20.6518C49.6972 21.1362 48.9318 21.6829 48.1948 22.3325C46.276 24.0245 44.204 25.8451 42.6056 28.0664C40.3485 31.2314 38.7037 34.9552 36.4965 38.1407C34.9123 40.4293 32.9899 44.4438 30.9749 45.9563C28.9955 47.445 27.543 44.8978 25.7487 44.1622C23.5308 42.6914 21.1456 42.0192 18.5859 42.1452C14.0241 42.1517 8.57968 44.7245 5.44434 49.0601C2.19616 53.5513 -0.21293 59.4455 0.0149133 65.7156C0.226024 71.5186 1.69348 78.5938 5.4771 82.355" fill="#6B99C4"/>
<mask id="mask2_406_83" style="mask-type:alpha" maskUnits="userSpaceOnUse" x="0" y="0" width="212" height="98">
<path fill-rule="evenodd" clip-rule="evenodd" d="M5.4771 82.355C11.6751 88.5169 18.2477 94.4029 26.2329 96.1218C31.9219 97.3459 36.6745 97.511 42.3564 95.9063C44.8982 95.1885 47.4294 93.6929 49.7363 92.2546C51.3882 91.2253 52.7446 89.8248 54.2042 88.3948C59.5158 83.1862 63.8591 69.0979 72.1148 75.4744C75.9169 78.4139 78.9857 82.9351 82.7665 86.0232C87.4479 89.8461 92.5708 92.8078 97.8931 94.8817C99.2103 95.3945 100.545 95.7681 101.905 96.0436C104.711 96.6115 107.911 97.3459 110.834 97.0938C116.437 96.6163 122.297 95.0703 127.018 90.9541C131.504 87.0435 134.957 82.7487 137.812 76.8066C139.353 73.6025 139.855 68.5478 142.693 66.735C146.84 64.0848 149.115 69.8053 151.144 73.1623C154.014 77.9173 157.499 82.0795 161.557 85.1763C166.602 89.0266 171.757 90.2498 177.506 90.9758C179.97 91.2865 182.505 91.4069 184.975 91.177C190.273 90.683 194.63 89.6206 199.34 86.4647C201.366 85.109 203.285 83.2658 204.858 81.1905C208.03 77.0039 209.148 73.7681 210.761 68.447C211.533 65.3163 211.64 62.1869 211.085 59.0583C210.971 55.925 210.23 53.0085 208.871 50.308C206.61 45.4275 202.181 40.7764 197.749 39.5046C194.014 38.4331 190.177 38.4813 186.521 39.9761C184.182 40.9342 181.704 43.3375 179.308 41.5151C175.99 38.9919 175.666 30.8143 173.996 26.8988C172.013 22.2469 169.404 17.8313 166.527 14.0254C163.722 10.3137 160.311 6.94836 156.605 4.80576C151.386 1.7876 145.865 -0.501876 140.012 0.0951511C134.59 0.647858 129.029 2.17736 124.537 6.31831C120.2 10.312 116.708 14.5624 113.977 20.5171C112.019 24.7836 110.553 29.5715 109.467 34.3126C108.669 37.8026 108.926 43.4748 105.558 44.7549C99.634 47.0066 95.7073 33.0407 92.8201 28.7164C91.2394 26.3491 89.1212 24.5307 87.1738 22.7287C86.3265 21.9444 85.4436 21.2866 84.4895 20.7274C81.4101 18.9167 78.3413 17.2065 74.9771 16.5686C71.4811 15.9051 68.124 15.2051 64.6173 15.7361C62.2001 16.1019 59.6974 16.367 57.3335 17.1869C54.991 18.0003 52.6805 19.3543 50.5089 20.6518C49.6972 21.1362 48.9318 21.6829 48.1948 22.3325C46.276 24.0245 44.204 25.8451 42.6056 28.0664C40.3485 31.2314 38.7037 34.9552 36.4965 38.1407C34.9123 40.4293 32.9899 44.4438 30.9749 45.9563C28.9955 47.445 27.543 44.8978 25.7487 44.1622C23.5308 42.6914 21.1456 42.0192 18.5859 42.1452C14.0241 42.1517 8.57968 44.7245 5.44434 49.0601C2.19616 53.5513 -0.21293 59.4455 0.0149133 65.7156C0.226024 71.5186 1.69348 78.5938 5.4771 82.355" fill="white"/>
</mask>
<g mask="url(#mask2_406_83)">
<g style="mix-blend-mode:luminosity" opacity="0.15">
<path fill-rule="evenodd" clip-rule="evenodd" d="M11.0507 120.812C17.2488 126.974 23.8213 132.86 31.8065 134.579C37.4955 135.803 42.2481 135.968 47.93 134.363C50.4718 133.645 53.003 132.15 55.3099 130.712C56.9618 129.682 58.3182 128.282 59.7778 126.852C65.0894 121.643 69.4327 107.555 77.6884 113.931C81.4905 116.871 84.5593 121.392 88.3401 124.48C93.0215 128.303 98.1445 131.265 103.467 133.339C104.784 133.851 106.119 134.225 107.479 134.501C110.284 135.069 113.485 135.803 116.408 135.551C122.011 135.073 127.871 133.527 132.591 129.411C137.077 125.5 140.53 121.206 143.386 115.264C144.927 112.059 145.429 107.005 148.266 105.192C152.414 102.542 154.689 108.262 156.718 111.619C159.587 116.374 163.073 120.536 167.131 123.633C172.176 127.484 177.331 128.707 183.08 129.433C185.544 129.743 188.078 129.864 190.549 129.634C195.846 129.14 200.204 128.078 204.914 124.922C206.94 123.566 208.858 121.723 210.432 119.647C213.604 115.461 214.722 112.225 216.335 106.904C217.107 103.773 217.214 100.644 216.658 97.5153C216.545 94.382 215.804 91.4655 214.444 88.765C212.184 83.8845 207.755 79.2334 203.323 77.9616C199.588 76.8901 195.75 76.9383 192.094 78.433C189.755 79.3911 187.277 81.7945 184.881 79.9721C181.564 77.4488 181.24 69.2712 179.57 65.3558C177.587 60.7038 174.977 56.2883 172.101 52.4823C169.296 48.7707 165.885 45.4053 162.179 43.2627C156.96 40.2446 151.438 37.9551 145.586 38.5521C140.164 39.1048 134.603 40.6343 130.11 44.7753C125.774 48.7689 122.282 53.0194 119.551 58.974C117.593 63.2406 116.126 68.0285 115.04 72.7695C114.243 76.2596 114.499 81.9318 111.132 83.2119C105.208 85.4635 101.281 71.4977 98.3937 67.1734C96.813 64.8061 94.6948 62.9877 92.7474 61.1857C91.9001 60.4014 91.0172 59.7436 90.0631 59.1843C86.9837 57.3737 83.9149 55.6634 80.5507 55.0256C77.0547 54.362 73.6976 53.662 70.191 54.193C67.7737 54.5589 65.271 54.8239 62.9071 55.6439C60.5646 56.4573 58.2541 57.8113 56.0825 59.1087C55.2708 59.5932 54.5054 60.1398 53.7684 60.7894C51.8496 62.4814 49.7776 64.3021 48.1792 66.5233C45.9221 69.6884 44.2774 73.4122 42.0701 76.5976C40.4859 78.8862 38.5635 82.9007 36.5485 84.4133C34.5691 85.902 33.1166 83.3548 31.3223 82.6192C29.1044 81.1483 26.7192 80.4761 24.1595 80.6021C19.5977 80.6087 14.1533 83.1814 11.018 87.5171C7.76976 92.0082 5.36068 97.9025 5.58852 104.173C5.79963 109.976 7.26708 117.051 11.0507 120.812" fill="white"/>
</g>
</g>
<path fill-rule="evenodd" clip-rule="evenodd" d="M88.3413 223.672C62.7993 226.296 38.6083 208.4 30.5265 184.323C24.0844 165.118 30.8614 146.919 40.7323 130.204C41.9795 128.09 43.2829 126.001 44.6148 123.939C48.3001 118.247 51.2841 110.006 59.7104 112.437C61.9671 113.091 63.8703 114.585 65.687 116.072C88.297 134.552 108.095 155.996 130.106 175.101C134.714 179.099 140.33 184.323 137.534 191.066C133.994 199.594 126.453 204.893 119.454 210.317C111.966 216.123 103.361 220.648 94.0559 222.737C92.1482 223.163 90.2432 223.473 88.3413 223.672" fill="#B3D2A3"/>
<mask id="mask3_406_83" style="mask-type:alpha" maskUnits="userSpaceOnUse" x="28" y="112" width="111" height="112">
<path fill-rule="evenodd" clip-rule="evenodd" d="M88.3413 223.672C62.7993 226.296 38.6083 208.4 30.5265 184.323C24.0844 165.118 30.8614 146.919 40.7323 130.204C41.9795 128.09 43.2829 126.001 44.6148 123.939C48.3001 118.247 51.2841 110.006 59.7104 112.437C61.9671 113.091 63.8703 114.585 65.687 116.072C88.297 134.552 108.095 155.996 130.106 175.101C134.714 179.099 140.33 184.323 137.534 191.066C133.994 199.594 126.453 204.893 119.454 210.317C111.966 216.123 103.361 220.648 94.0559 222.737C92.1482 223.163 90.2432 223.473 88.3413 223.672" fill="white"/>
</mask>
<g mask="url(#mask3_406_83)">
<g style="mix-blend-mode:luminosity" opacity="0.15">
<path fill-rule="evenodd" clip-rule="evenodd" d="M50.2068 100.891C50.2068 100.891 22.4845 181.546 84.8969 238.329C147.309 295.111 -1.69863 188.865 -1.69863 188.865L6.1116 109.097L50.2068 100.891Z" fill="white"/>
</g>
</g>
<path fill-rule="evenodd" clip-rule="evenodd" d="M673.708 97.5108C670.745 96.5376 667.487 97.0826 665.003 98.9674L650.396 110.052C644.14 114.799 635.144 110.328 635.172 102.487L635.239 84.1759C635.25 81.0622 633.726 78.142 631.163 76.3675L616.081 65.9313C609.623 61.4621 611.104 51.5447 618.587 49.1492L636.065 43.5549C639.035 42.6036 641.35 40.2541 642.247 37.2723L647.535 19.7381C649.8 12.2292 659.714 10.5707 664.308 16.9314L675.041 31.7844C676.866 34.3104 679.822 35.7786 682.942 35.7104L701.292 35.3097C709.15 35.1382 713.793 44.0305 709.15 50.3572L698.307 65.1314C696.464 67.6435 695.978 70.9004 697.006 73.8401L703.06 91.1268C705.651 98.5296 698.608 105.684 691.144 103.233L673.708 97.5108Z" fill="#F4B942"/>
<mask id="mask4_406_83" style="mask-type:alpha" maskUnits="userSpaceOnUse" x="612" y="13" width="99" height="99">
<path fill-rule="evenodd" clip-rule="evenodd" d="M673.708 97.5108C670.745 96.5376 667.487 97.0826 665.003 98.9674L650.396 110.052C644.14 114.799 635.144 110.328 635.172 102.487L635.239 84.1759C635.25 81.0622 633.726 78.142 631.163 76.3675L616.081 65.9313C609.623 61.4621 611.104 51.5447 618.587 49.1492L636.065 43.5549C639.035 42.6036 641.35 40.2541 642.247 37.2723L647.535 19.7381C649.8 12.2292 659.714 10.5707 664.308 16.9314L675.041 31.7844C676.866 34.3104 679.822 35.7786 682.942 35.7104L701.292 35.3097C709.15 35.1382 713.793 44.0305 709.15 50.3572L698.307 65.1314C696.464 67.6435 695.978 70.9004 697.006 73.8401L703.06 91.1268C705.651 98.5296 698.608 105.684 691.144 103.233L673.708 97.5108Z" fill="white"/>
</mask>
<g mask="url(#mask4_406_83)">
<g style="mix-blend-mode:luminosity" opacity="0.15">
<path fill-rule="evenodd" clip-rule="evenodd" d="M644.275 12.797C644.275 12.797 660.867 50.5323 674.174 52.1661C687.481 53.8 693.884 48.7973 693.183 54.5002C692.483 60.2031 689.549 76.2445 701.905 77.7617C714.261 79.2788 734.587 31.6045 734.587 31.6045L659.682 -2.67773L644.275 12.797Z" fill="white"/>
</g>
</g>
<path fill-rule="evenodd" clip-rule="evenodd" d="M477.708 203.511C474.745 202.538 471.487 203.083 469.003 204.967L454.396 216.052C448.14 220.799 439.144 216.328 439.172 208.487L439.239 190.176C439.25 187.062 437.726 184.142 435.163 182.367L420.081 171.931C413.623 167.462 415.104 157.545 422.587 155.149L440.065 149.555C443.035 148.604 445.35 146.254 446.247 143.272L451.535 125.738C453.8 118.229 463.714 116.571 468.308 122.931L479.041 137.784C480.866 140.31 483.822 141.779 486.942 141.71L505.292 141.31C513.15 141.138 517.793 150.03 513.15 156.357L502.307 171.131C500.464 173.644 499.978 176.9 501.006 179.84L507.06 197.127C509.651 204.53 502.608 211.684 495.144 209.233L477.708 203.511Z" fill="#F4B942"/>
<mask id="mask5_406_83" style="mask-type:alpha" maskUnits="userSpaceOnUse" x="416" y="119" width="99" height="99">
<path fill-rule="evenodd" clip-rule="evenodd" d="M477.708 203.511C474.745 202.538 471.487 203.083 469.003 204.967L454.396 216.052C448.14 220.799 439.144 216.328 439.172 208.487L439.239 190.176C439.25 187.062 437.726 184.142 435.163 182.367L420.081 171.931C413.623 167.462 415.104 157.545 422.587 155.149L440.065 149.555C443.035 148.604 445.35 146.254 446.247 143.272L451.535 125.738C453.8 118.229 463.714 116.571 468.308 122.931L479.041 137.784C480.866 140.31 483.822 141.779 486.942 141.71L505.292 141.31C513.15 141.138 517.793 150.03 513.15 156.357L502.307 171.131C500.464 173.644 499.978 176.9 501.006 179.84L507.06 197.127C509.651 204.53 502.608 211.684 495.144 209.233L477.708 203.511Z" fill="white"/>
</mask>
<g mask="url(#mask5_406_83)">
<g style="mix-blend-mode:luminosity" opacity="0.15">
<path fill-rule="evenodd" clip-rule="evenodd" d="M448.275 118.797C448.275 118.797 464.867 156.532 478.174 158.166C491.481 159.8 497.884 154.797 497.183 160.5C496.483 166.203 493.549 182.245 505.905 183.762C518.261 185.279 538.587 137.604 538.587 137.604L463.682 103.322L448.275 118.797Z" fill="white"/>
</g>
</g>
<path fill-rule="evenodd" clip-rule="evenodd" d="M690.684 139.169C684.252 140.625 679.565 146.492 677.897 152.777C670.548 180.446 710.014 219.092 735.435 221.47C766.347 224.362 781.979 182.971 788.292 153.707C790.75 142.322 786.168 128.555 775.127 124.376C765.235 120.631 753.91 125.758 746.464 133.178C742.918 136.708 739.825 140.83 735.449 143.299C730.299 146.207 723.933 146.428 718.14 145.14C716.098 144.685 714.127 144.039 712.19 143.328C705.2 140.764 698.651 137.366 690.684 139.169Z" fill="#F18273"/>
<g style="mix-blend-mode:luminosity" opacity="0.15">
<path fill-rule="evenodd" clip-rule="evenodd" d="M710.768 214.313C710.768 214.313 775.606 194.879 783.681 131.927C791.755 68.9746 791.426 206.146 791.426 206.146L736.293 237.158L710.768 214.313Z" fill="white"/>
</g>
<path fill-rule="evenodd" clip-rule="evenodd" d="M633.202 150.421C630.842 146.252 626.62 142.943 621.704 143.494C620.727 143.603 619.762 143.847 618.78 143.843C616.384 143.832 616.45 142.545 615.758 140.78C615.107 139.116 614.363 137.477 613.458 135.932C611.67 132.883 609.17 130.217 605.774 128.924C600.91 127.073 596.012 127.981 592.514 131.854C590.904 133.636 589.713 135.761 588.771 137.946C587.902 139.96 587.861 143.644 585.01 143.833C583.565 143.929 582.278 142.989 580.888 142.59C576.668 141.38 571.798 142.342 568.408 145.085C562.451 149.909 560.895 160.664 566.385 166.359C569.141 169.218 572.916 170.894 576.68 172.244C587.192 176.015 598.444 177.775 609.629 177.399C621.391 177.002 637.335 169.411 635.05 155.54C634.767 153.822 634.127 152.056 633.202 150.421" fill="#B7C0EB"/>
<mask id="mask6_406_83" style="mask-type:alpha" maskUnits="userSpaceOnUse" x="563" y="128" width="73" height="50">
<path fill-rule="evenodd" clip-rule="evenodd" d="M633.202 150.421C630.842 146.252 626.62 142.943 621.704 143.494C620.727 143.603 619.762 143.847 618.78 143.843C616.384 143.832 616.45 142.545 615.758 140.78C615.107 139.116 614.363 137.477 613.458 135.932C611.67 132.883 609.17 130.217 605.774 128.924C600.91 127.073 596.012 127.981 592.514 131.854C590.904 133.636 589.713 135.761 588.771 137.946C587.902 139.96 587.861 143.644 585.01 143.833C583.565 143.929 582.278 142.989 580.888 142.59C576.668 141.38 571.798 142.342 568.408 145.085C562.451 149.909 560.895 160.664 566.385 166.359C569.141 169.218 572.916 170.894 576.68 172.244C587.192 176.015 598.444 177.775 609.629 177.399C621.391 177.002 637.335 169.411 635.05 155.54C634.767 153.822 634.127 152.056 633.202 150.421" fill="white"/>
</mask>
<g mask="url(#mask6_406_83)">
<g style="mix-blend-mode:luminosity" opacity="0.15">
<path fill-rule="evenodd" clip-rule="evenodd" d="M556.4 134.9C556.4 134.9 569.41 171.956 608.506 174.95C647.603 177.944 562.672 181.426 562.672 181.426L542.641 150.304L556.4 134.9Z" fill="white"/>
</g>
</g>
<path fill-rule="evenodd" clip-rule="evenodd" d="M376.477 83.355C382.675 89.5169 389.248 95.4029 397.233 97.1218C402.922 98.3459 407.675 98.511 413.356 96.9063C415.898 96.1885 418.429 94.6929 420.736 93.2546C422.388 92.2253 423.745 90.8248 425.204 89.3948C430.516 84.1862 434.859 70.0979 443.115 76.4744C446.917 79.4139 449.986 83.9351 453.766 87.0232C458.448 90.8461 463.571 93.8078 468.893 95.8817C470.21 96.3945 471.545 96.7681 472.905 97.0436C475.711 97.6115 478.911 98.3459 481.834 98.0938C487.437 97.6163 493.297 96.0703 498.018 91.9541C502.504 88.0435 505.957 83.7487 508.812 77.8066C510.353 74.6025 510.855 69.5478 513.693 67.735C517.84 65.0848 520.115 70.8053 522.144 74.1623C525.014 78.9173 528.499 83.0795 532.557 86.1763C537.602 90.0266 542.757 91.2498 548.506 91.9758C550.97 92.2865 553.505 92.4069 555.975 92.177C561.273 91.683 565.63 90.6206 570.34 87.4647C572.366 86.109 574.285 84.2658 575.858 82.1905C579.03 78.0039 580.148 74.7681 581.761 69.447C582.533 66.3163 582.64 63.1869 582.085 60.0583C581.971 56.925 581.23 54.0085 579.871 51.308C577.61 46.4275 573.181 41.7764 568.749 40.5046C565.014 39.4331 561.177 39.4813 557.521 40.9761C555.182 41.9342 552.704 44.3375 550.308 42.5151C546.99 39.9919 546.666 31.8143 544.996 27.8988C543.013 23.2469 540.404 18.8313 537.527 15.0254C534.722 11.3137 531.311 7.94836 527.605 5.80576C522.386 2.7876 516.865 0.498124 511.012 1.09515C505.59 1.64786 500.029 3.17736 495.537 7.31831C491.2 11.312 487.708 15.5624 484.977 21.5171C483.019 25.7836 481.553 30.5715 480.467 35.3126C479.669 38.8026 479.926 44.4748 476.558 45.7549C470.634 48.0066 466.707 34.0407 463.82 29.7164C462.239 27.3491 460.121 25.5307 458.174 23.7287C457.327 22.9444 456.444 22.2866 455.49 21.7274C452.41 19.9167 449.341 18.2065 445.977 17.5686C442.481 16.9051 439.124 16.2051 435.617 16.7361C433.2 17.1019 430.697 17.367 428.333 18.1869C425.991 19.0003 423.68 20.3543 421.509 21.6518C420.697 22.1362 419.932 22.6829 419.195 23.3325C417.276 25.0245 415.204 26.8451 413.606 29.0664C411.348 32.2314 409.704 35.9552 407.497 39.1407C405.912 41.4293 403.99 45.4438 401.975 46.9563C399.995 48.445 398.543 45.8978 396.749 45.1622C394.531 43.6914 392.146 43.0192 389.586 43.1452C385.024 43.1517 379.58 45.7245 376.444 50.0601C373.196 54.5513 370.787 60.4455 371.015 66.7156C371.226 72.5186 372.693 79.5938 376.477 83.355" fill="#6B99C4"/>
<mask id="mask7_406_83" style="mask-type:alpha" maskUnits="userSpaceOnUse" x="371" y="1" width="212" height="98">
<path fill-rule="evenodd" clip-rule="evenodd" d="M376.477 83.355C382.675 89.5169 389.248 95.4029 397.233 97.1218C402.922 98.3459 407.675 98.511 413.356 96.9063C415.898 96.1885 418.429 94.6929 420.736 93.2546C422.388 92.2253 423.745 90.8248 425.204 89.3948C430.516 84.1862 434.859 70.0979 443.115 76.4744C446.917 79.4139 449.986 83.9351 453.766 87.0232C458.448 90.8461 463.571 93.8078 468.893 95.8817C470.21 96.3945 471.545 96.7681 472.905 97.0436C475.711 97.6115 478.911 98.3459 481.834 98.0938C487.437 97.6163 493.297 96.0703 498.018 91.9541C502.504 88.0435 505.957 83.7487 508.812 77.8066C510.353 74.6025 510.855 69.5478 513.693 67.735C517.84 65.0848 520.115 70.8053 522.144 74.1623C525.014 78.9173 528.499 83.0795 532.557 86.1763C537.602 90.0266 542.757 91.2498 548.506 91.9758C550.97 92.2865 553.505 92.4069 555.975 92.177C561.273 91.683 565.63 90.6206 570.34 87.4647C572.366 86.109 574.285 84.2658 575.858 82.1905C579.03 78.0039 580.148 74.7681 581.761 69.447C582.533 66.3163 582.64 63.1869 582.085 60.0583C581.971 56.925 581.23 54.0085 579.871 51.308C577.61 46.4275 573.181 41.7764 568.749 40.5046C565.014 39.4331 561.177 39.4813 557.521 40.9761C555.182 41.9342 552.704 44.3375 550.308 42.5151C546.99 39.9919 546.666 31.8143 544.996 27.8988C543.013 23.2469 540.404 18.8313 537.527 15.0254C534.722 11.3137 531.311 7.94836 527.605 5.80576C522.386 2.7876 516.865 0.498124 511.012 1.09515C505.59 1.64786 500.029 3.17736 495.537 7.31831C491.2 11.312 487.708 15.5624 484.977 21.5171C483.019 25.7836 481.553 30.5715 480.467 35.3126C479.669 38.8026 479.926 44.4748 476.558 45.7549C470.634 48.0066 466.707 34.0407 463.82 29.7164C462.239 27.3491 460.121 25.5307 458.174 23.7287C457.327 22.9444 456.444 22.2866 455.49 21.7274C452.41 19.9167 449.341 18.2065 445.977 17.5686C442.481 16.9051 439.124 16.2051 435.617 16.7361C433.2 17.1019 430.697 17.367 428.333 18.1869C425.991 19.0003 423.68 20.3543 421.509 21.6518C420.697 22.1362 419.932 22.6829 419.195 23.3325C417.276 25.0245 415.204 26.8451 413.606 29.0664C411.348 32.2314 409.704 35.9552 407.497 39.1407C405.912 41.4293 403.99 45.4438 401.975 46.9563C399.995 48.445 398.543 45.8978 396.749 45.1622C394.531 43.6914 392.146 43.0192 389.586 43.1452C385.024 43.1517 379.58 45.7245 376.444 50.0601C373.196 54.5513 370.787 60.4455 371.015 66.7156C371.226 72.5186 372.693 79.5938 376.477 83.355" fill="white"/>
</mask>
<g mask="url(#mask7_406_83)">
<g style="mix-blend-mode:luminosity" opacity="0.15">
<path fill-rule="evenodd" clip-rule="evenodd" d="M382.051 121.812C388.249 127.974 394.821 133.86 402.807 135.579C408.495 136.803 413.248 136.968 418.93 135.363C421.472 134.645 424.003 133.15 426.31 131.712C427.962 130.682 429.318 129.282 430.778 127.852C436.089 122.643 440.433 108.555 448.688 114.931C452.491 117.871 455.559 122.392 459.34 125.48C464.022 129.303 469.144 132.265 474.467 134.339C475.784 134.851 477.119 135.225 478.479 135.501C481.284 136.069 484.485 136.803 487.408 136.551C493.011 136.073 498.871 134.527 503.591 130.411C508.077 126.5 511.53 122.206 514.386 116.264C515.927 113.059 516.429 108.005 519.266 106.192C523.414 103.542 525.689 109.262 527.718 112.619C530.587 117.374 534.073 121.536 538.131 124.633C543.176 128.484 548.331 129.707 554.08 130.433C556.544 130.743 559.078 130.864 561.549 130.634C566.846 130.14 571.204 129.078 575.914 125.922C577.94 124.566 579.858 122.723 581.432 120.647C584.604 116.461 585.722 113.225 587.335 107.904C588.107 104.773 588.214 101.644 587.658 98.5153C587.545 95.382 586.804 92.4655 585.444 89.765C583.184 84.8845 578.755 80.2334 574.323 78.9616C570.588 77.8901 566.75 77.9383 563.094 79.433C560.755 80.3911 558.277 82.7945 555.881 80.9721C552.564 78.4488 552.24 70.2712 550.57 66.3558C548.587 61.7038 545.977 57.2883 543.101 53.4823C540.296 49.7707 536.885 46.4053 533.179 44.2627C527.96 41.2446 522.438 38.9551 516.586 39.5521C511.164 40.1048 505.603 41.6343 501.11 45.7753C496.774 49.7689 493.282 54.0194 490.551 59.974C488.593 64.2406 487.126 69.0285 486.04 73.7695C485.243 77.2596 485.499 82.9318 482.132 84.2119C476.208 86.4635 472.281 72.4977 469.394 68.1734C467.813 65.8061 465.695 63.9877 463.747 62.1857C462.9 61.4014 462.017 60.7436 461.063 60.1843C457.984 58.3737 454.915 56.6634 451.551 56.0256C448.055 55.362 444.698 54.662 441.191 55.193C438.774 55.5589 436.271 55.8239 433.907 56.6439C431.565 57.4573 429.254 58.8113 427.082 60.1087C426.271 60.5932 425.505 61.1398 424.768 61.7894C422.85 63.4814 420.778 65.3021 419.179 67.5233C416.922 70.6884 415.277 74.4122 413.07 77.5976C411.486 79.8862 409.563 83.9007 407.548 85.4133C405.569 86.902 404.117 84.3548 402.322 83.6192C400.104 82.1483 397.719 81.4761 395.16 81.6021C390.598 81.6087 385.153 84.1814 382.018 88.5171C378.77 93.0082 376.361 98.9025 376.589 105.173C376.8 110.976 378.267 118.051 382.051 121.812" fill="white"/>
</g>
</g>
<path fill-rule="evenodd" clip-rule="evenodd" d="M849.341 117.672C823.799 120.296 799.608 102.4 791.526 78.3227C785.084 59.1185 791.861 40.9193 801.732 24.2042C802.98 22.0899 804.283 20.0011 805.615 17.9389C809.3 12.2471 812.284 4.00649 820.71 6.4372C822.967 7.09124 824.87 8.58532 826.687 10.0721C849.297 28.5516 869.095 49.9963 891.106 69.1011C895.714 73.0991 901.33 78.3231 898.534 85.0664C894.994 93.594 887.453 98.8929 880.454 104.317C872.966 110.123 864.361 114.648 855.056 116.737C853.148 117.163 851.243 117.473 849.341 117.672" fill="#B3D2A3"/>
<mask id="mask8_406_83" style="mask-type:alpha" maskUnits="userSpaceOnUse" x="789" y="6" width="111" height="112">
<path fill-rule="evenodd" clip-rule="evenodd" d="M849.341 117.672C823.799 120.296 799.608 102.4 791.526 78.3227C785.084 59.1185 791.861 40.9193 801.732 24.2042C802.98 22.0899 804.283 20.0011 805.615 17.9389C809.3 12.2471 812.284 4.00649 820.71 6.4372C822.967 7.09124 824.87 8.58532 826.687 10.0721C849.297 28.5516 869.095 49.9963 891.106 69.1011C895.714 73.0991 901.33 78.3231 898.534 85.0664C894.994 93.594 887.453 98.8929 880.454 104.317C872.966 110.123 864.361 114.648 855.056 116.737C853.148 117.163 851.243 117.473 849.341 117.672" fill="white"/>
</mask>
<g mask="url(#mask8_406_83)">
<g style="mix-blend-mode:luminosity" opacity="0.15">
<path fill-rule="evenodd" clip-rule="evenodd" d="M811.207 -5.1092C811.207 -5.1092 783.484 75.5464 845.897 132.329C908.309 189.111 759.301 82.8647 759.301 82.8647L767.112 3.09671L811.207 -5.1092Z" fill="white"/>
</g>
</g>
<path fill-rule="evenodd" clip-rule="evenodd" d="M1375.71 157.511C1372.74 156.538 1369.49 157.083 1367 158.967L1352.4 170.052C1346.14 174.799 1337.14 170.328 1337.17 162.487L1337.24 144.176C1337.25 141.062 1335.73 138.142 1333.16 136.367L1318.08 125.931C1311.62 121.462 1313.1 111.545 1320.59 109.149L1338.07 103.555C1341.04 102.604 1343.35 100.254 1344.25 97.2723L1349.54 79.7381C1351.8 72.2292 1361.71 70.5707 1366.31 76.9314L1377.04 91.7844C1378.87 94.3104 1381.82 95.7786 1384.94 95.7104L1403.29 95.3097C1411.15 95.1382 1415.79 104.03 1411.15 110.357L1400.31 125.131C1398.46 127.644 1397.98 130.9 1399.01 133.84L1405.06 151.127C1407.65 158.53 1400.61 165.684 1393.14 163.233L1375.71 157.511Z" fill="#F4B942"/>
<mask id="mask9_406_83" style="mask-type:alpha" maskUnits="userSpaceOnUse" x="1314" y="73" width="99" height="99">
<path fill-rule="evenodd" clip-rule="evenodd" d="M1375.71 157.511C1372.74 156.538 1369.49 157.083 1367 158.967L1352.4 170.052C1346.14 174.799 1337.14 170.328 1337.17 162.487L1337.24 144.176C1337.25 141.062 1335.73 138.142 1333.16 136.367L1318.08 125.931C1311.62 121.462 1313.1 111.545 1320.59 109.149L1338.07 103.555C1341.04 102.604 1343.35 100.254 1344.25 97.2723L1349.54 79.7381C1351.8 72.2292 1361.71 70.5707 1366.31 76.9314L1377.04 91.7844C1378.87 94.3104 1381.82 95.7786 1384.94 95.7104L1403.29 95.3097C1411.15 95.1382 1415.79 104.03 1411.15 110.357L1400.31 125.131C1398.46 127.644 1397.98 130.9 1399.01 133.84L1405.06 151.127C1407.65 158.53 1400.61 165.684 1393.14 163.233L1375.71 157.511Z" fill="white"/>
</mask>
<g mask="url(#mask9_406_83)">
<g style="mix-blend-mode:luminosity" opacity="0.15">
<path fill-rule="evenodd" clip-rule="evenodd" d="M1346.27 72.797C1346.27 72.797 1362.87 110.532 1376.17 112.166C1389.48 113.8 1395.88 108.797 1395.18 114.5C1394.48 120.203 1391.55 136.245 1403.91 137.762C1416.26 139.279 1436.59 91.6045 1436.59 91.6045L1361.68 57.3223L1346.27 72.797Z" fill="white"/>
</g>
</g>
<path fill-rule="evenodd" clip-rule="evenodd" d="M1107.71 97.5108C1104.74 96.5376 1101.49 97.0826 1099 98.9674L1084.4 110.052C1078.14 114.799 1069.14 110.328 1069.17 102.487L1069.24 84.1759C1069.25 81.0622 1067.73 78.142 1065.16 76.3675L1050.08 65.9313C1043.62 61.4621 1045.1 51.5447 1052.59 49.1492L1070.07 43.5549C1073.04 42.6036 1075.35 40.2541 1076.25 37.2723L1081.54 19.7381C1083.8 12.2292 1093.71 10.5707 1098.31 16.9314L1109.04 31.7844C1110.87 34.3104 1113.82 35.7786 1116.94 35.7104L1135.29 35.3097C1143.15 35.1382 1147.79 44.0305 1143.15 50.3572L1132.31 65.1314C1130.46 67.6435 1129.98 70.9004 1131.01 73.8401L1137.06 91.1268C1139.65 98.5296 1132.61 105.684 1125.14 103.233L1107.71 97.5108Z" fill="#F4B942"/>
<mask id="mask10_406_83" style="mask-type:alpha" maskUnits="userSpaceOnUse" x="1046" y="13" width="99" height="99">
<path fill-rule="evenodd" clip-rule="evenodd" d="M1107.71 97.5108C1104.74 96.5376 1101.49 97.0826 1099 98.9674L1084.4 110.052C1078.14 114.799 1069.14 110.328 1069.17 102.487L1069.24 84.1759C1069.25 81.0622 1067.73 78.142 1065.16 76.3675L1050.08 65.9313C1043.62 61.4621 1045.1 51.5447 1052.59 49.1492L1070.07 43.5549C1073.04 42.6036 1075.35 40.2541 1076.25 37.2723L1081.54 19.7381C1083.8 12.2292 1093.71 10.5707 1098.31 16.9314L1109.04 31.7844C1110.87 34.3104 1113.82 35.7786 1116.94 35.7104L1135.29 35.3097C1143.15 35.1382 1147.79 44.0305 1143.15 50.3572L1132.31 65.1314C1130.46 67.6435 1129.98 70.9004 1131.01 73.8401L1137.06 91.1268C1139.65 98.5296 1132.61 105.684 1125.14 103.233L1107.71 97.5108Z" fill="white"/>
</mask>
<g mask="url(#mask10_406_83)">
<g style="mix-blend-mode:luminosity" opacity="0.15">
<path fill-rule="evenodd" clip-rule="evenodd" d="M1078.27 12.797C1078.27 12.797 1094.87 50.5323 1108.17 52.1661C1121.48 53.8 1127.88 48.7973 1127.18 54.5002C1126.48 60.2031 1123.55 76.2445 1135.91 77.7617C1148.26 79.2788 1168.59 31.6045 1168.59 31.6045L1093.68 -2.67773L1078.27 12.797Z" fill="white"/>
</g>
</g>
<path fill-rule="evenodd" clip-rule="evenodd" d="M1192.68 45.1691C1186.25 46.6246 1181.57 52.492 1179.9 58.7771C1172.55 86.4461 1212.01 125.092 1237.44 127.47C1268.35 130.362 1283.98 88.9707 1290.29 59.7067C1292.75 48.3219 1288.17 34.5545 1277.13 30.376C1267.23 26.6314 1255.91 31.7576 1248.46 39.1784C1244.92 42.7085 1241.82 46.8303 1237.45 49.299C1232.3 52.2075 1225.93 52.4279 1220.14 51.1399C1218.1 50.6853 1216.13 50.0387 1214.19 49.3281C1207.2 46.7637 1200.65 43.3665 1192.68 45.1691Z" fill="#F18273"/>
<g style="mix-blend-mode:luminosity" opacity="0.15">
<path fill-rule="evenodd" clip-rule="evenodd" d="M1212.77 120.313C1212.77 120.313 1277.61 100.879 1285.68 37.9268C1293.76 -25.0254 1293.43 112.146 1293.43 112.146L1238.29 143.158L1212.77 120.313Z" fill="white"/>
</g>
<path fill-rule="evenodd" clip-rule="evenodd" d="M1023.2 35.4213C1020.84 31.2521 1016.62 27.9429 1011.7 28.4938C1010.73 28.6032 1009.76 28.8472 1008.78 28.843C1006.38 28.8323 1006.45 27.5452 1005.76 25.7796C1005.11 24.1163 1004.36 22.4771 1003.46 20.9316C1001.67 17.8828 999.17 15.2166 995.774 13.924C990.91 12.0726 986.012 12.9805 982.514 16.8543C980.904 18.6357 979.713 20.7611 978.771 22.946C977.902 24.9603 977.861 28.6436 975.01 28.833C973.565 28.929 972.278 27.9891 970.888 27.5896C966.668 26.3796 961.798 27.3416 958.408 30.085C952.451 34.9093 950.895 45.6638 956.385 51.359C959.141 54.2183 962.916 55.8943 966.68 57.2439C977.192 61.015 988.444 62.7754 999.629 62.3987C1011.39 62.0024 1027.33 54.4114 1025.05 40.5399C1024.77 38.8221 1024.13 37.0556 1023.2 35.4213" fill="#B7C0EB"/>
<mask id="mask11_406_83" style="mask-type:alpha" maskUnits="userSpaceOnUse" x="953" y="13" width="73" height="50">
<path fill-rule="evenodd" clip-rule="evenodd" d="M1023.2 35.4213C1020.84 31.2521 1016.62 27.9429 1011.7 28.4938C1010.73 28.6032 1009.76 28.8472 1008.78 28.843C1006.38 28.8323 1006.45 27.5452 1005.76 25.7796C1005.11 24.1163 1004.36 22.4771 1003.46 20.9316C1001.67 17.8828 999.17 15.2166 995.774 13.924C990.91 12.0726 986.012 12.9805 982.514 16.8543C980.904 18.6357 979.713 20.7611 978.771 22.946C977.902 24.9603 977.861 28.6436 975.01 28.833C973.565 28.929 972.278 27.9891 970.888 27.5896C966.668 26.3796 961.798 27.3416 958.408 30.085C952.451 34.9093 950.895 45.6638 956.385 51.359C959.141 54.2183 962.916 55.8943 966.68 57.2439C977.192 61.015 988.444 62.7754 999.629 62.3987C1011.39 62.0024 1027.33 54.4114 1025.05 40.5399C1024.77 38.8221 1024.13 37.0556 1023.2 35.4213" fill="white"/>
</mask>
<g mask="url(#mask11_406_83)">
<g style="mix-blend-mode:luminosity" opacity="0.15">
<path fill-rule="evenodd" clip-rule="evenodd" d="M946.4 19.8995C946.4 19.8995 959.41 56.9561 998.506 59.9501C1037.6 62.944 952.672 66.4261 952.672 66.4261L932.641 35.3042L946.4 19.8995Z" fill="white"/>
</g>
</g>
<path fill-rule="evenodd" clip-rule="evenodd" d="M1324.2 175.421C1321.84 171.252 1317.62 167.943 1312.7 168.494C1311.73 168.603 1310.76 168.847 1309.78 168.843C1307.38 168.832 1307.45 167.545 1306.76 165.78C1306.11 164.116 1305.36 162.477 1304.46 160.932C1302.67 157.883 1300.17 155.217 1296.77 153.924C1291.91 152.073 1287.01 152.981 1283.51 156.854C1281.9 158.636 1280.71 160.761 1279.77 162.946C1278.9 164.96 1278.86 168.644 1276.01 168.833C1274.56 168.929 1273.28 167.989 1271.89 167.59C1267.67 166.38 1262.8 167.342 1259.41 170.085C1253.45 174.909 1251.89 185.664 1257.38 191.359C1260.14 194.218 1263.92 195.894 1267.68 197.244C1278.19 201.015 1289.44 202.775 1300.63 202.399C1312.39 202.002 1328.33 194.411 1326.05 180.54C1325.77 178.822 1325.13 177.056 1324.2 175.421" fill="#B7C0EB"/>
<mask id="mask12_406_83" style="mask-type:alpha" maskUnits="userSpaceOnUse" x="1254" y="153" width="73" height="50">
<path fill-rule="evenodd" clip-rule="evenodd" d="M1324.2 175.421C1321.84 171.252 1317.62 167.943 1312.7 168.494C1311.73 168.603 1310.76 168.847 1309.78 168.843C1307.38 168.832 1307.45 167.545 1306.76 165.78C1306.11 164.116 1305.36 162.477 1304.46 160.932C1302.67 157.883 1300.17 155.217 1296.77 153.924C1291.91 152.073 1287.01 152.981 1283.51 156.854C1281.9 158.636 1280.71 160.761 1279.77 162.946C1278.9 164.96 1278.86 168.644 1276.01 168.833C1274.56 168.929 1273.28 167.989 1271.89 167.59C1267.67 166.38 1262.8 167.342 1259.41 170.085C1253.45 174.909 1251.89 185.664 1257.38 191.359C1260.14 194.218 1263.92 195.894 1267.68 197.244C1278.19 201.015 1289.44 202.775 1300.63 202.399C1312.39 202.002 1328.33 194.411 1326.05 180.54C1325.77 178.822 1325.13 177.056 1324.2 175.421" fill="white"/>
</mask>
<g mask="url(#mask12_406_83)">
<g style="mix-blend-mode:luminosity" opacity="0.15">
<path fill-rule="evenodd" clip-rule="evenodd" d="M1247.4 159.9C1247.4 159.9 1260.41 196.956 1299.51 199.95C1338.6 202.944 1253.67 206.426 1253.67 206.426L1233.64 175.304L1247.4 159.9Z" fill="white"/>
</g>
</g>
<path fill-rule="evenodd" clip-rule="evenodd" d="M852.477 194.355C858.675 200.517 865.248 206.403 873.233 208.122C878.922 209.346 883.675 209.511 889.356 207.906C891.898 207.188 894.429 205.693 896.736 204.255C898.388 203.225 899.745 201.825 901.204 200.395C906.516 195.186 910.859 181.098 919.115 187.474C922.917 190.414 925.986 194.935 929.766 198.023C934.448 201.846 939.571 204.808 944.893 206.882C946.21 207.394 947.545 207.768 948.905 208.044C951.711 208.612 954.911 209.346 957.834 209.094C963.437 208.616 969.297 207.07 974.018 202.954C978.504 199.043 981.957 194.749 984.812 188.807C986.353 185.603 986.855 180.548 989.693 178.735C993.84 176.085 996.115 181.805 998.144 185.162C1001.01 189.917 1004.5 194.08 1008.56 197.176C1013.6 201.027 1018.76 202.25 1024.51 202.976C1026.97 203.287 1029.5 203.407 1031.98 203.177C1037.27 202.683 1041.63 201.621 1046.34 198.465C1048.37 197.109 1050.28 195.266 1051.86 193.19C1055.03 189.004 1056.15 185.768 1057.76 180.447C1058.53 177.316 1058.64 174.187 1058.08 171.058C1057.97 167.925 1057.23 165.009 1055.87 162.308C1053.61 157.428 1049.18 152.776 1044.75 151.505C1041.01 150.433 1037.18 150.481 1033.52 151.976C1031.18 152.934 1028.7 155.337 1026.31 153.515C1022.99 150.992 1022.67 142.814 1021 138.899C1019.01 134.247 1016.4 129.831 1013.53 126.025C1010.72 122.314 1007.31 118.948 1003.61 116.806C998.386 113.788 992.865 111.498 987.012 112.095C981.59 112.648 976.029 114.177 971.537 118.318C967.2 122.312 963.708 126.562 960.977 132.517C959.019 136.784 957.553 141.572 956.467 146.313C955.669 149.803 955.926 155.475 952.558 156.755C946.634 159.007 942.707 145.041 939.82 140.716C938.239 138.349 936.121 136.531 934.174 134.729C933.327 133.944 932.444 133.287 931.49 132.727C928.41 130.917 925.341 129.206 921.977 128.569C918.481 127.905 915.124 127.205 911.617 127.736C909.2 128.102 906.697 128.367 904.333 129.187C901.991 130 899.68 131.354 897.509 132.652C896.697 133.136 895.932 133.683 895.195 134.332C893.276 136.024 891.204 137.845 889.606 140.066C887.348 143.231 885.704 146.955 883.497 150.141C881.912 152.429 879.99 156.444 877.975 157.956C875.995 159.445 874.543 156.898 872.749 156.162C870.531 154.691 868.146 154.019 865.586 154.145C861.024 154.152 855.58 156.724 852.444 161.06C849.196 165.551 846.787 171.445 847.015 177.716C847.226 183.519 848.693 190.594 852.477 194.355" fill="#6B99C4"/>
<mask id="mask13_406_83" style="mask-type:alpha" maskUnits="userSpaceOnUse" x="847" y="112" width="212" height="98">
<path fill-rule="evenodd" clip-rule="evenodd" d="M852.477 194.355C858.675 200.517 865.248 206.403 873.233 208.122C878.922 209.346 883.675 209.511 889.356 207.906C891.898 207.188 894.429 205.693 896.736 204.255C898.388 203.225 899.745 201.825 901.204 200.395C906.516 195.186 910.859 181.098 919.115 187.474C922.917 190.414 925.986 194.935 929.766 198.023C934.448 201.846 939.571 204.808 944.893 206.882C946.21 207.394 947.545 207.768 948.905 208.044C951.711 208.612 954.911 209.346 957.834 209.094C963.437 208.616 969.297 207.07 974.018 202.954C978.504 199.043 981.957 194.749 984.812 188.807C986.353 185.603 986.855 180.548 989.693 178.735C993.84 176.085 996.115 181.805 998.144 185.162C1001.01 189.917 1004.5 194.08 1008.56 197.176C1013.6 201.027 1018.76 202.25 1024.51 202.976C1026.97 203.287 1029.5 203.407 1031.98 203.177C1037.27 202.683 1041.63 201.621 1046.34 198.465C1048.37 197.109 1050.28 195.266 1051.86 193.19C1055.03 189.004 1056.15 185.768 1057.76 180.447C1058.53 177.316 1058.64 174.187 1058.08 171.058C1057.97 167.925 1057.23 165.009 1055.87 162.308C1053.61 157.428 1049.18 152.776 1044.75 151.505C1041.01 150.433 1037.18 150.481 1033.52 151.976C1031.18 152.934 1028.7 155.337 1026.31 153.515C1022.99 150.992 1022.67 142.814 1021 138.899C1019.01 134.247 1016.4 129.831 1013.53 126.025C1010.72 122.314 1007.31 118.948 1003.61 116.806C998.386 113.788 992.865 111.498 987.012 112.095C981.59 112.648 976.029 114.177 971.537 118.318C967.2 122.312 963.708 126.562 960.977 132.517C959.019 136.784 957.553 141.572 956.467 146.313C955.669 149.803 955.926 155.475 952.558 156.755C946.634 159.007 942.707 145.041 939.82 140.716C938.239 138.349 936.121 136.531 934.174 134.729C933.327 133.944 932.444 133.287 931.49 132.727C928.41 130.917 925.341 129.206 921.977 128.569C918.481 127.905 915.124 127.205 911.617 127.736C909.2 128.102 906.697 128.367 904.333 129.187C901.991 130 899.68 131.354 897.509 132.652C896.697 133.136 895.932 133.683 895.195 134.332C893.276 136.024 891.204 137.845 889.606 140.066C887.348 143.231 885.704 146.955 883.497 150.141C881.912 152.429 879.99 156.444 877.975 157.956C875.995 159.445 874.543 156.898 872.749 156.162C870.531 154.691 868.146 154.019 865.586 154.145C861.024 154.152 855.58 156.724 852.444 161.06C849.196 165.551 846.787 171.445 847.015 177.716C847.226 183.519 848.693 190.594 852.477 194.355" fill="white"/>
</mask>
<g mask="url(#mask13_406_83)">
<g style="mix-blend-mode:luminosity" opacity="0.15">
<path fill-rule="evenodd" clip-rule="evenodd" d="M858.051 232.812C864.249 238.974 870.821 244.86 878.806 246.579C884.495 247.803 889.248 247.968 894.93 246.363C897.472 245.645 900.003 244.15 902.31 242.712C903.962 241.682 905.318 240.282 906.778 238.852C912.089 233.643 916.433 219.555 924.688 225.931C928.49 228.871 931.559 233.392 935.34 236.48C940.021 240.303 945.144 243.265 950.467 245.339C951.784 245.851 953.119 246.225 954.479 246.501C957.284 247.069 960.485 247.803 963.407 247.551C969.011 247.073 974.871 245.527 979.591 241.411C984.077 237.5 987.53 233.206 990.386 227.264C991.927 224.06 992.429 219.005 995.266 217.192C999.414 214.542 1001.69 220.262 1003.72 223.619C1006.59 228.374 1010.07 232.537 1014.13 235.633C1019.18 239.484 1024.33 240.707 1030.08 241.433C1032.54 241.744 1035.08 241.864 1037.55 241.634C1042.85 241.14 1047.2 240.078 1051.91 236.922C1053.94 235.566 1055.86 233.723 1057.43 231.647C1060.6 227.461 1061.72 224.225 1063.33 218.904C1064.11 215.773 1064.21 212.644 1063.66 209.515C1063.54 206.382 1062.8 203.466 1061.44 200.765C1059.18 195.885 1054.75 191.233 1050.32 189.962C1046.59 188.89 1042.75 188.938 1039.09 190.433C1036.76 191.391 1034.28 193.794 1031.88 191.972C1028.56 189.449 1028.24 181.271 1026.57 177.356C1024.59 172.704 1021.98 168.288 1019.1 164.482C1016.3 160.771 1012.89 157.405 1009.18 155.263C1003.96 152.245 998.438 149.955 992.586 150.552C987.164 151.105 981.603 152.634 977.11 156.775C972.774 160.769 969.282 165.019 966.551 170.974C964.593 175.241 963.126 180.029 962.04 184.77C961.243 188.26 961.499 193.932 958.131 195.212C952.208 197.464 948.281 183.498 945.394 179.173C943.813 176.806 941.695 174.988 939.747 173.186C938.9 172.401 938.017 171.744 937.063 171.184C933.984 169.374 930.915 167.663 927.551 167.026C924.055 166.362 920.698 165.662 917.191 166.193C914.774 166.559 912.271 166.824 909.907 167.644C907.565 168.457 905.254 169.811 903.082 171.109C902.271 171.593 901.505 172.14 900.768 172.789C898.85 174.481 896.778 176.302 895.179 178.523C892.922 181.688 891.277 185.412 889.07 188.598C887.486 190.886 885.563 194.901 883.548 196.413C881.569 197.902 880.117 195.355 878.322 194.619C876.104 193.148 873.719 192.476 871.159 192.602C866.598 192.609 861.153 195.181 858.018 199.517C854.77 204.008 852.361 209.902 852.588 216.173C852.8 221.976 854.267 229.051 858.051 232.812" fill="white"/>
</g>
</g>
<path fill-rule="evenodd" clip-rule="evenodd" d="M1172.34 223.672C1146.8 226.296 1122.61 208.4 1114.53 184.323C1108.08 165.118 1114.86 146.919 1124.73 130.204C1125.98 128.09 1127.28 126.001 1128.61 123.939C1132.3 118.247 1135.28 110.006 1143.71 112.437C1145.97 113.091 1147.87 114.585 1149.69 116.072C1172.3 134.552 1192.09 155.996 1214.11 175.101C1218.71 179.099 1224.33 184.323 1221.53 191.066C1217.99 199.594 1210.45 204.893 1203.45 210.317C1195.97 216.123 1187.36 220.648 1178.06 222.737C1176.15 223.163 1174.24 223.473 1172.34 223.672" fill="#B3D2A3"/>
<mask id="mask14_406_83" style="mask-type:alpha" maskUnits="userSpaceOnUse" x="1112" y="112" width="111" height="112">
<path fill-rule="evenodd" clip-rule="evenodd" d="M1172.34 223.672C1146.8 226.296 1122.61 208.4 1114.53 184.323C1108.08 165.118 1114.86 146.919 1124.73 130.204C1125.98 128.09 1127.28 126.001 1128.61 123.939C1132.3 118.247 1135.28 110.006 1143.71 112.437C1145.97 113.091 1147.87 114.585 1149.69 116.072C1172.3 134.552 1192.09 155.996 1214.11 175.101C1218.71 179.099 1224.33 184.323 1221.53 191.066C1217.99 199.594 1210.45 204.893 1203.45 210.317C1195.97 216.123 1187.36 220.648 1178.06 222.737C1176.15 223.163 1174.24 223.473 1172.34 223.672" fill="white"/>
</mask>
<g mask="url(#mask14_406_83)">
<g style="mix-blend-mode:luminosity" opacity="0.15">
<path fill-rule="evenodd" clip-rule="evenodd" d="M1134.21 100.891C1134.21 100.891 1106.48 181.546 1168.9 238.329C1231.31 295.111 1082.3 188.865 1082.3 188.865L1090.11 109.097L1134.21 100.891Z" fill="white"/>
</g>
</g>
</svg>
