<svg width="32" height="23" viewBox="0 0 32 23" fill="none" xmlns="http://www.w3.org/2000/svg">
<g clip-path="url(#clip0_722_321)">
<path d="M29.3293 9.10594C31.1362 9.59217 31.9991 10.7231 31.9991 12.5558C31.9991 15.1775 32.0018 17.7992 31.9973 20.4209C31.9955 21.4699 31.2324 22.324 30.2528 22.3934C29.1895 22.4682 28.2812 21.6365 28.2687 20.5554C28.2571 19.5446 28.2669 18.5339 28.2652 17.5223C28.2652 17.1162 28.2126 17.0654 27.7994 17.0654C19.9343 17.0654 12.0692 17.0654 4.20415 17.0654C3.77848 17.0654 3.73574 17.1108 3.73485 17.5534C3.73396 18.5419 3.74375 19.5313 3.73129 20.5198C3.7206 21.3453 3.15868 22.0844 2.38838 22.3231C1.64212 22.5546 0.835309 22.2946 0.368676 21.6668C0.0943953 21.2945 0 20.8724 0 20.4138C0.00445261 15.092 0.00267156 9.77116 0.00267156 4.44941C0.00267156 3.62746 0 2.8055 0.00356209 1.98355C0.00890521 0.876635 0.832638 0.00837654 1.87544 0.00392393C2.93783 -0.000528678 3.7295 0.836562 3.73485 1.97287C3.73752 2.53924 3.72683 3.1065 3.74197 3.67198C3.74553 3.802 3.79273 3.96942 3.88267 4.05402C5.27545 5.36041 6.67891 6.65523 8.10731 7.97765C8.14738 7.87613 8.18211 7.80222 8.20705 7.72474C8.75828 6.00871 10.3345 4.81185 12.136 4.80562C16.5014 4.79137 20.8676 4.7887 25.2338 4.80562C27.4067 4.81452 29.2403 6.62851 29.3293 8.79871C29.3338 8.89756 29.3293 8.99641 29.3293 9.10505V9.10594ZM29.3329 10.2405C29.3329 11.2289 29.3338 12.1943 29.3329 13.1596C29.3329 13.685 29.1557 13.864 28.6383 13.8649C21.9959 13.8649 15.3526 13.8649 8.71019 13.8649C8.17321 13.8649 8.00312 13.6895 8.00312 13.1391C8.00223 11.9725 7.99688 10.8059 8.00757 9.64026C8.00935 9.41941 7.939 9.27336 7.7796 9.12643C6.29064 7.75948 4.81683 6.37561 3.31986 5.01667C2.86748 4.60614 2.62882 4.1493 2.66355 3.5295C2.69472 2.97559 2.67869 2.41902 2.66533 1.86333C2.65554 1.45013 2.36523 1.12865 1.98675 1.07433C1.62787 1.02268 1.26543 1.24709 1.1372 1.62734C1.08555 1.78051 1.07308 1.95328 1.07308 2.11713C1.07041 8.19316 1.07041 14.2692 1.07041 20.3452C1.07041 20.445 1.06595 20.5465 1.0802 20.6444C1.12829 20.973 1.37942 21.2482 1.69733 21.3114C2.04018 21.3791 2.32871 21.2571 2.49524 20.9632C2.59943 20.7798 2.65821 20.5474 2.66177 20.3363C2.67869 19.3701 2.66711 18.4039 2.66978 17.4377C2.67245 16.5552 3.22458 15.9986 4.10263 15.9977C12.0336 15.9959 19.9646 15.9959 27.8965 15.9977C28.7763 15.9977 29.3293 16.5534 29.332 17.4341C29.3356 18.3674 29.332 19.3006 29.332 20.233C29.332 20.3105 29.3302 20.3889 29.332 20.4663C29.3436 20.9713 29.6642 21.3239 30.1121 21.3275C30.5413 21.331 30.91 20.9615 30.926 20.4806C30.9421 20.0148 30.9314 19.5473 30.9314 19.0807C30.9314 16.8259 30.9349 14.5711 30.9296 12.3154C30.9278 11.2993 30.284 10.4497 29.3311 10.2369L29.3329 10.2405ZM28.266 12.7838C28.266 11.5273 28.2723 10.2966 28.2643 9.06587C28.2536 7.22962 26.8937 5.86979 25.0557 5.86712C20.791 5.86177 16.5263 5.86088 12.2616 5.86712C10.4449 5.86979 9.08065 7.23585 9.06996 9.04806C9.06284 10.2031 9.06818 11.3581 9.06907 12.5131C9.06907 12.5986 9.07709 12.6841 9.08154 12.7829H28.266V12.7838Z" fill="#112548"/>
<path d="M7.46437 5.33066C5.99056 5.3271 4.79726 4.12846 4.80171 2.65376C4.80705 1.19597 6.00035 0.00178302 7.45457 1.97492e-06C8.9462 -0.00177907 10.1431 1.20132 10.1342 2.69383C10.1261 4.14538 8.92304 5.33334 7.46526 5.33066H7.46437ZM9.06642 2.66444C9.06196 1.77659 8.33619 1.05883 7.45012 1.06774C6.58008 1.07664 5.86944 1.79529 5.87034 2.66711C5.87034 3.5514 6.59789 4.26916 7.48663 4.26382C8.35311 4.25937 9.06998 3.5327 9.06553 2.66444H9.06642Z" fill="#112548"/>
</g>
<defs>
<clipPath id="clip0_722_321">
<rect width="32" height="22.4046" fill="white"/>
</clipPath>
</defs>
</svg>
