<svg width="236" height="116" viewBox="0 0 236 116" fill="none" xmlns="http://www.w3.org/2000/svg">
<path fill-rule="evenodd" clip-rule="evenodd" d="M194.861 101.163C178.355 102.859 162.723 91.2943 157.5 75.7354C153.337 63.3255 157.717 51.5651 164.095 40.7637C164.901 39.3974 165.744 38.0476 166.604 36.715C168.986 33.0369 170.914 27.7118 176.359 29.2825C177.817 29.7052 179.047 30.6706 180.221 31.6314C194.832 43.573 207.626 57.4307 221.849 69.7763C224.827 72.3598 228.456 75.7357 226.649 80.0932C224.362 85.6038 219.489 89.028 214.966 92.5333C210.127 96.2849 204.566 99.2088 198.553 100.559C197.321 100.834 196.09 101.034 194.861 101.163Z" fill="#B7C0EB"/>
<mask id="mask0_1_2422" style="mask-type:alpha" maskUnits="userSpaceOnUse" x="155" y="29" width="73" height="73">
<path fill-rule="evenodd" clip-rule="evenodd" d="M194.861 101.163C178.355 102.859 162.723 91.2943 157.5 75.7354C153.337 63.3255 157.717 51.5651 164.095 40.7637C164.901 39.3974 165.744 38.0476 166.604 36.715C168.986 33.0369 170.914 27.7118 176.359 29.2825C177.817 29.7052 179.047 30.6706 180.221 31.6314C194.832 43.573 207.626 57.4307 221.849 69.7763C224.827 72.3598 228.456 75.7357 226.649 80.0932C224.362 85.6038 219.489 89.028 214.966 92.5333C210.127 96.2849 204.566 99.2088 198.553 100.559C197.321 100.834 196.09 101.034 194.861 101.163Z" fill="white"/>
</mask>
<g mask="url(#mask0_1_2422)">
<g style="mix-blend-mode:luminosity" opacity="0.15">
<path fill-rule="evenodd" clip-rule="evenodd" d="M170.218 21.8209C170.218 21.8209 152.304 73.9411 192.635 110.634C232.967 147.327 136.677 78.6702 136.677 78.6702L141.724 27.1236L170.218 21.8209Z" fill="white"/>
</g>
</g>
<path d="M215.363 33.7938C217.544 36.0041 216.899 39.418 217.129 42.2197C217.377 45.2387 217.96 48.2542 218.402 51.2439C218.467 51.5474 218.485 51.859 218.457 52.1681C218.421 52.4747 218.458 52.7857 218.566 53.075C218.954 54.1612 220.103 54.7698 220.974 55.4146C223.097 56.9664 225.197 58.5836 227.062 60.4509C228.926 62.3182 230.468 64.394 231.517 66.7906C232.613 69.2906 233.163 71.9941 233.552 74.6855C233.935 77.3459 234.159 80.0304 234.565 82.6856C234.76 84.0088 235.021 85.3213 235.348 86.6184C235.475 87.1132 235.807 88.1132 234.99 88.1373C234.496 88.1511 233.978 87.827 233.614 87.5253C233.022 87.0408 232.601 86.3304 232.148 85.7201C231.664 85.0718 231.187 84.4189 230.715 83.7614C229.731 82.3994 228.768 81.0229 227.825 79.6321C225.903 76.7999 224.068 73.9125 222.321 70.97L221.916 71.2837C225.274 74.07 227.653 77.7683 229.747 81.5528C230.277 82.5114 230.791 83.4787 231.295 84.4459C231.835 85.4666 232.391 86.4942 232.695 87.6149C232.948 88.4996 232.965 89.435 232.747 90.3287C232.575 91.0356 232.3 91.8805 231.742 92.3857C231.525 92.5805 231.293 92.6822 231.009 92.5719C230.554 92.3994 230.111 92.0081 229.695 91.746C228.942 91.2997 228.222 90.8001 227.54 90.2512C225.94 88.8839 225.415 86.8753 224.59 85.0115C223.623 82.8336 222.545 80.7072 221.359 78.6407C220.477 77.1045 219.432 75.2476 217.647 74.6441C215.791 74.0183 214.298 75.3717 213.216 76.7131C211.883 78.37 210.537 79.9666 208.743 81.1562C206.989 82.3235 204.95 83.0287 202.828 82.9304C201.796 82.8928 200.784 82.6428 199.853 82.1959C198.971 81.7614 198.255 81.1183 197.545 80.4493C196.408 79.3804 194.98 77.7976 193.255 77.9769C192.407 78.0648 191.739 78.5821 191.202 79.2166C190.399 80.1666 189.67 81.1873 188.911 82.1718L184.193 88.2908C182.724 90.1874 181.301 92.1512 179.746 93.9805C179.053 94.8218 178.286 95.5996 177.455 96.3047C176.7 96.9288 175.845 97.4064 175.046 97.9702C173.557 99.0254 172.143 100.212 171.197 101.801C170.471 103.01 170.164 104.425 170.323 105.827C170.427 106.671 170.612 107.503 170.877 108.312C171.2 109.346 171.72 110.343 171.972 111.389C172.179 112.238 172.341 113.098 172.575 113.939C172.595 114.003 172.639 114.057 172.698 114.089C172.757 114.122 172.826 114.13 172.891 114.112C176.491 112.905 179.185 110.125 181.645 107.355C184.627 103.994 187.529 100.562 190.351 97.0581C191.555 95.5667 193.064 93.6219 192.166 91.6184C192.076 91.4201 191.822 91.4822 191.72 91.6184C188.875 95.3667 186.117 99.1782 183.446 103.053C182.093 105.017 180.763 106.996 179.457 108.989C178.803 109.987 178.156 110.988 177.515 111.993C177.033 112.748 176.388 113.532 176.221 114.438C176.077 115.215 176.472 115.927 177.321 115.95C177.885 115.963 178.466 115.751 179.01 115.624L181.041 115.139L180.749 115.022C181.528 116.746 183.883 115.839 184.968 114.97C186.542 113.71 187.793 111.893 188.817 110.174C190.984 106.536 192.31 102.481 193.915 98.5823C195.57 94.5633 197.6 90.6184 200.983 87.7873C204.756 84.6321 209.519 82.82 212.751 78.9942C214.372 77.0786 215.596 74.8648 216.587 72.5665C217.66 70.1331 218.509 67.6065 219.123 65.0182C219.708 62.4544 219.952 59.7768 219.439 57.1767C218.751 53.7555 216.744 50.7445 213.854 48.7971C210.964 46.8498 207.425 46.1231 204.004 46.7749C199.41 47.637 195.844 50.956 193.822 55.0767C191.452 59.9043 191.28 65.4216 191.72 70.701C191.774 71.3424 191.844 71.9838 191.904 72.6269C191.968 73.2993 192.016 74.0424 191.633 74.6355C190.956 75.6803 189.307 75.9752 188.209 76.3252C185.474 77.1993 182.695 77.9256 179.882 78.501C178.48 78.7873 177.069 79.0441 175.654 79.2476C174.204 79.4579 172.757 79.5355 171.353 79.0493C170.044 78.5959 168.854 77.82 167.663 77.1286C166.473 76.4372 165.255 75.7321 164.07 75.0217C159.173 72.1148 154.375 69.0268 150.007 65.3544C147.809 63.5061 145.738 61.5233 143.722 59.4802C143.239 58.9905 142.758 58.4991 142.28 58.006C142.062 57.7819 141.843 57.5595 141.627 57.3336C141.492 57.2209 141.376 57.0877 141.283 56.9388C141.145 56.6164 141.468 56.3595 141.664 56.1922C142.512 55.4646 143.62 55.1439 144.658 54.7922C145.628 54.4629 146.629 54.1026 147.41 53.4129C148.132 52.7767 148.528 51.7456 147.754 50.9818C146.94 50.1732 145.669 49.8163 144.578 49.6025C143.374 49.3629 142.144 49.3594 141.071 48.7146C140.064 48.0807 139.154 47.3043 138.369 46.4094C137.985 45.9783 137.545 45.4232 137.508 44.8197C137.472 44.1042 138.097 43.6025 138.713 43.3749C139.812 42.9663 141.09 43.1628 142.227 43.2525C143.693 43.3674 145.155 43.5036 146.615 43.6611C152.503 44.2921 158.352 45.237 164.183 46.2611C167.049 46.7646 169.913 47.2956 172.784 47.8025C174.2 48.0577 175.616 48.31 177.035 48.5594C177.702 48.6766 178.372 48.8094 179.044 48.9042C179.454 48.9629 179.927 48.9904 180.296 48.7611C181.129 48.2439 180.615 47.318 179.983 46.9197C179.517 46.6249 178.975 46.5146 178.449 46.3835C177.716 46.2008 176.981 46.0283 176.244 45.8663C173.412 45.2559 170.552 44.8059 167.693 44.3594C162.4 43.5318 157.07 42.7007 151.999 40.9111C149.578 40.074 147.256 38.9707 145.077 37.6214C143.979 36.9377 142.935 36.1705 141.953 35.3265C141.618 35.0334 141.085 34.5248 141.16 34.0283C141.272 33.2903 142.927 33.9455 143.379 34.0541L151.664 36.0265C151.934 36.0921 152.142 35.6817 151.863 35.5541C150.877 35.1307 149.929 34.6225 149.03 34.0351C148.205 33.492 147.162 32.8644 146.637 31.9989C146.361 31.542 146.233 30.8541 146.961 30.7696C147.51 30.7075 148.156 30.9644 148.681 31.0903C149.751 31.3455 150.817 31.6213 151.879 31.9179C156.189 33.1222 160.398 34.6661 164.466 36.5352C166.738 37.58 168.962 38.7237 171.135 39.9662C171.174 39.9882 171.218 39.9996 171.263 39.9994C171.308 39.9992 171.353 39.9873 171.392 39.965C171.431 39.9426 171.463 39.9105 171.487 39.8717C171.51 39.833 171.522 39.7889 171.523 39.7438C171.589 37.7765 168.823 37.7679 168.427 36.0352C168.362 35.7576 168.333 35.1921 168.73 35.1403C168.924 35.1162 169.246 35.3231 169.433 35.3989C169.753 35.53 170.067 35.6765 170.374 35.8317C171.382 36.3508 172.345 36.951 173.256 37.6266C175.093 38.9611 176.789 40.4817 178.63 41.8128C180.576 43.1957 182.68 44.3406 184.898 45.2232C187.13 46.1053 189.413 46.8498 191.736 47.4525C192.952 47.7801 194.172 48.095 195.393 48.3973C196.452 48.656 197.612 48.8611 198.61 48.2904C199.547 47.7542 200.158 46.7387 200.78 45.8766C201.58 44.7973 202.397 43.7301 203.175 42.6352C203.825 41.718 204.393 40.699 204.379 39.5317C204.358 38.4093 203.947 37.3283 204.321 36.2196C204.992 34.2351 207.245 33.1627 208.85 32.042C210.954 30.5679 212.323 28.5541 213.644 26.3868H213.199C213.95 27.7793 214.257 29.3691 214.079 30.942C214.141 30.8575 214.205 30.7696 214.269 30.692C213.385 31.0244 212.446 31.1864 211.502 31.1696C211.434 31.1696 211.368 31.1968 211.32 31.2453C211.272 31.2938 211.244 31.3596 211.244 31.4282C211.244 31.4968 211.272 31.5626 211.32 31.6111C211.368 31.6596 211.434 31.6868 211.502 31.6868C212.493 31.7049 213.478 31.5365 214.406 31.1903C214.459 31.1729 214.505 31.1399 214.539 31.0956C214.573 31.0513 214.593 30.9977 214.595 30.942C214.776 29.2771 214.444 27.5967 213.644 26.1264C213.621 26.0879 213.588 26.056 213.549 26.0338C213.51 26.0116 213.466 26 213.421 26C213.376 26 213.332 26.0116 213.293 26.0338C213.254 26.056 213.222 26.0879 213.199 26.1264C211.955 28.1661 210.672 30.1179 208.699 31.5196C207.242 32.5541 205.545 33.4282 204.458 34.8886C203.951 35.5512 203.662 36.3557 203.633 37.1903C203.615 37.8041 203.756 38.3972 203.825 39.011C203.916 39.6896 203.819 40.38 203.547 41.0076C203.041 42.1525 202.162 43.1473 201.422 44.1456C200.65 45.1904 199.932 46.3628 199.014 47.2939C197.971 48.3577 196.685 48.1698 195.358 47.8387C194.139 47.5335 192.919 47.2215 191.706 46.8904C189.329 46.273 186.995 45.5 184.719 44.5766C182.488 43.6523 180.379 42.4572 178.439 41.018C176.598 39.6386 174.885 38.1041 172.996 36.7938C171.978 36.0725 170.889 35.4567 169.747 34.9559C169.323 34.7834 168.849 34.4662 168.4 34.7024C168.259 34.7786 168.138 34.8879 168.048 35.0208C167.958 35.1538 167.902 35.3066 167.884 35.4662C167.763 36.2421 168.228 37.1127 168.84 37.5679C169.6 38.1352 171.047 38.5679 171.009 39.7266L171.398 39.5024C167.082 37.04 162.562 34.9564 157.888 33.2748C155.534 32.4277 153.147 31.6863 150.725 31.0506C149.605 30.7575 148.414 30.3472 147.258 30.2455C146.417 30.1696 145.71 30.7351 145.924 31.6248C146.173 32.6869 147.246 33.3886 148.072 33.9869C149.171 34.7813 150.355 35.452 151.6 35.9869C151.667 35.83 151.733 35.6731 151.8 35.5145L143.139 33.4455C142.409 33.2731 140.825 32.6903 140.653 33.9041C140.514 34.8972 141.559 35.6662 142.22 36.199C146.09 39.3024 150.754 41.2352 155.512 42.5197C160.865 43.9646 166.387 44.6008 171.842 45.5353C173.268 45.7801 174.69 46.0439 176.104 46.349C176.78 46.4939 177.454 46.649 178.127 46.8146C178.736 46.9646 179.412 47.0663 179.909 47.4818C180.157 47.6887 180.386 48.0439 180.033 48.2922C179.847 48.4249 179.576 48.4129 179.357 48.3991C178.628 48.3525 177.89 48.1629 177.169 48.037C175.721 47.783 174.272 47.5249 172.824 47.2629C167.097 46.2284 161.373 45.1714 155.622 44.299C152.756 43.8645 149.884 43.4766 147.004 43.1611C145.544 43.0013 144.081 42.8611 142.616 42.7404C141.472 42.649 140.275 42.4818 139.136 42.7025C138.221 42.8749 137.168 43.4594 137.018 44.4749C136.869 45.4904 137.672 46.4387 138.346 47.106C139.119 47.8698 139.984 48.6697 140.926 49.2077C141.959 49.7956 143.128 49.8301 144.276 50.0456C144.846 50.1452 145.406 50.2958 145.949 50.4956C146.493 50.7025 147.314 51.0387 147.596 51.5922C147.924 52.2422 147.24 52.9025 146.758 53.2439C146.271 53.5755 145.743 53.8416 145.187 54.0353C144.191 54.4095 143.146 54.6733 142.205 55.1819C141.498 55.5646 140.25 56.3664 140.904 57.2922C141.248 57.7819 141.754 58.194 142.17 58.6216C142.671 59.1365 143.174 59.6492 143.679 60.1595C144.668 61.1578 145.671 62.1423 146.698 63.1009C148.764 65.0246 150.934 66.8342 153.197 68.5216C157.7 71.8803 162.546 74.7286 167.397 77.5562C168.532 78.2166 169.659 78.9355 170.885 79.408C172.151 79.9062 173.466 79.9942 174.811 79.8528C177.541 79.5683 180.272 78.9752 182.937 78.3252C184.33 77.9804 185.714 77.6033 187.09 77.1941C188.319 76.8235 189.616 76.4924 190.778 75.9372C191.786 75.4562 192.4 74.6631 192.453 73.5234C192.482 72.8872 192.376 72.2441 192.315 71.6131C192.25 70.9234 192.192 70.2441 192.143 69.5579C191.799 64.2423 192.193 58.6716 194.973 53.9957C196.141 52.0353 197.696 50.2853 199.618 49.0439C201.763 47.6718 204.269 46.9735 206.813 47.0387C211.618 47.1473 215.963 50.0646 217.994 54.4146C220.356 59.4612 218.81 65.2371 216.962 70.182C216.063 72.5958 214.988 74.9648 213.522 77.0907C212.079 79.1838 210.254 80.8649 208.158 82.2976C206.111 83.7011 203.928 84.9011 201.921 86.3666C200.17 87.6276 198.629 89.1566 197.352 90.8977C192.341 97.7943 191.583 107.105 185.722 113.463C185.049 114.194 184.346 114.886 183.405 115.239C182.612 115.534 181.583 115.643 181.169 114.734C181.14 114.685 181.096 114.647 181.043 114.626C180.991 114.604 180.933 114.6 180.878 114.615C179.846 114.86 178.814 115.155 177.771 115.353C177.24 115.453 176.651 115.384 176.675 114.719C176.713 114.321 176.846 113.938 177.063 113.603C178.126 111.786 179.337 110.038 180.503 108.281C182.87 104.694 185.313 101.159 187.831 97.6753C189.246 95.7213 190.684 93.7805 192.145 91.8529H191.7C192.544 93.7357 190.755 95.6891 189.666 97.0374C188.346 98.6673 187.01 100.283 185.658 101.884C184.306 103.485 182.935 105.071 181.544 106.641C180.389 107.992 179.155 109.272 177.847 110.474C176.342 111.813 174.654 112.948 172.735 113.588L173.051 113.76C172.81 112.889 172.664 111.996 172.428 111.124C172.143 110.062 171.634 109.055 171.31 107.993C170.849 106.484 170.541 104.87 171.026 103.327C172.23 99.5081 176.419 98.1547 178.994 95.5219C180.577 93.8995 181.901 92.0253 183.284 90.2339C184.876 88.1649 186.468 86.1 188.061 84.039L190.451 80.9356C191.082 80.1166 191.732 78.9752 192.737 78.5752C194.533 77.8579 196.217 79.8838 197.373 80.9597C198.061 81.6045 198.782 82.2114 199.64 82.6218C200.495 83.0251 201.415 83.2754 202.356 83.3614C204.302 83.5528 206.249 83.077 207.964 82.1545C209.817 81.1632 211.389 79.6993 212.715 78.0804C213.863 76.6769 215.268 74.3838 217.422 75.0596C219.355 75.6683 220.43 78.0062 221.338 79.6373C222.526 81.7728 223.6 83.9702 224.555 86.2201C224.966 87.1908 225.285 88.2356 225.868 89.1218C226.313 89.7764 226.861 90.3541 227.492 90.8322C228.18 91.3684 228.925 91.8253 229.662 92.2908C230.215 92.6357 230.849 93.2563 231.555 93.0219C232.131 92.8305 232.511 92.2201 232.759 91.7029C233.084 91.0202 233.291 90.2875 233.373 89.5356C233.598 87.4908 232.484 85.5701 231.562 83.8339C229.552 80.0407 227.468 76.2131 224.543 73.0372C223.828 72.2593 223.061 71.5306 222.248 70.8562C222.035 70.6837 221.684 70.901 221.844 71.1699C225.08 76.5966 228.605 81.8445 232.404 86.8908C232.993 87.6718 233.743 88.4529 234.77 88.577C235.862 88.7098 236.154 87.7149 235.929 86.8201C235.215 84.0166 234.839 81.1718 234.505 78.301C233.87 72.8286 233.129 67.2458 229.743 62.7095C228.128 60.5509 226.131 58.7199 224.031 57.0474C222.998 56.2285 221.947 55.444 220.886 54.6664C220.076 54.0732 218.77 53.3405 218.939 52.1422C218.972 51.8081 218.954 51.4708 218.885 51.1422C218.765 50.3318 218.645 49.5226 218.526 48.7146C218.285 47.0853 218.032 45.4577 217.807 43.8266C217.582 42.1956 217.57 40.5611 217.525 38.9059C217.489 37.5265 217.337 36.1472 216.752 34.8834C216.492 34.3199 216.135 33.8064 215.698 33.3662C215.464 33.1282 215.099 33.4955 215.333 33.7317L215.363 33.7938Z" fill="black"/>
<path d="M110.207 82.6708C109.163 83.9971 107.671 85.5199 108.481 87.3171C109.408 89.3847 111.584 90.352 113.604 90.9898C113.651 91.002 113.699 91.0033 113.747 90.9936C113.794 90.984 113.838 90.9637 113.876 90.9342C113.914 90.9047 113.945 90.8668 113.967 90.8234C113.989 90.78 114 90.7322 114.001 90.6836C113.792 87.674 113.661 84.6349 113.108 81.6634C112.628 79.0826 111.856 76.3836 110.261 74.2716C108.667 72.1597 106.43 70.6644 104.046 69.6253C102.82 69.0949 101.552 68.671 100.254 68.3582C99.6764 68.2188 98.6642 68.2019 98.2322 67.7457C97.7168 67.1987 98.3157 65.845 98.4764 65.2241C100.964 55.5884 105.115 46.4737 110.739 38.3009C111.634 37.0021 112.786 35.7476 113.394 34.2756C113.643 33.6995 113.747 33.0693 113.694 32.4424C113.617 31.5976 113.277 30.8162 113.129 29.9862C112.782 27.9545 113.704 25.9376 114.366 24.0728C115.028 22.2079 115.633 20.3431 116.104 18.4318C117.01 14.7549 117.382 10.9175 116.488 7.19832C116.47 7.13156 116.43 7.07276 116.376 7.03084C116.321 6.98892 116.254 6.96615 116.186 6.966C115.163 7.09905 114.602 7.98607 114.155 8.84141C113.586 9.92906 113.164 11.1857 112.246 12.0326L112.78 12.2564C112.663 10.6577 112.596 9.05472 112.471 7.45597C112.367 6.14657 112.338 4.66187 111.864 3.42005C111.749 3.12015 111.565 2.7569 111.206 2.73366C111.145 2.7351 111.084 2.74074 111.023 2.75056C110.848 2.76534 111.023 2.75056 110.939 2.76956C110.756 2.78563 110.578 2.8365 110.413 2.91951C109.593 3.36936 109.113 4.44222 108.729 5.24265C108.153 6.4528 107.686 7.71363 107.191 8.95968C106.839 9.84458 106.498 11.0716 105.812 11.7622C105.749 11.8277 105.676 11.9016 105.603 11.908C105.682 11.908 105.616 11.908 105.576 11.8214C105.442 11.4741 105.359 11.1093 105.328 10.7379C105.219 9.49091 105.182 8.23851 105.217 6.98712C105.217 5.49398 105.265 3.9945 105.194 2.50135C105.161 1.81919 105.228 0.480216 104.568 0.0451547C104.521 0.0156333 104.466 0 104.411 0C104.355 0 104.3 0.0156333 104.253 0.0451547C100.695 2.80336 98.9502 7.10539 98.3303 11.494C97.5728 16.8415 98.4848 22.1572 98.9564 27.4857C99.2632 30.945 99.3633 34.4445 98.6726 37.8659L99.2444 37.7899C98.3217 35.8529 97.6498 33.8036 97.2451 31.6927C96.8277 29.5068 96.8132 27.304 96.7505 25.0865C96.69 22.9746 96.4688 20.9217 95.8427 18.9006C95.2855 17.1097 94.4571 15.4307 93.8456 13.6609C93.374 12.2923 93.0108 10.89 92.5747 9.50879C92.2533 8.46971 91.9486 7.28913 91.3225 6.38944C91.1626 6.12668 90.9089 5.93624 90.614 5.85761C90.3191 5.77897 90.0057 5.81816 89.7385 5.96705C88.9288 6.35988 88.4468 7.36939 88.0878 8.14447C86.7752 10.9872 86.0385 14.2797 85.809 17.399L86.3932 17.2406C85.8027 16.2417 84.6799 16.2586 83.7158 16.6535C82.3071 17.2301 81.2887 18.4402 80.2202 19.4835L76.013 23.5997C74.7337 24.8479 73.3376 26.0474 72.242 27.473C70.2532 30.0644 70.1926 33.6272 67.9284 36.0496C66.0502 38.0602 63.406 39.5555 62.9615 42.5291C62.7195 44.1405 62.9825 45.8934 62.0726 47.3316C61.3985 48.3876 60.3321 49.1437 59.3825 49.9336C58.4852 50.6812 57.592 51.5112 57.1642 52.6347C56.5986 54.1131 57.1036 55.6379 57.3102 57.1311C57.4489 58.0465 57.337 58.9829 56.9868 59.8386C56.6758 60.6095 56.2689 61.3486 56.1082 62.1744C55.7618 63.9506 56.344 65.8703 56.6633 67.6127C56.9909 69.393 57.2372 71.203 57.6796 72.9707C57.9781 74.1618 58.4476 75.4395 59.4076 76.2505C60.6117 77.2664 62.1205 77.0214 63.4874 76.4976C65.2676 75.8112 67.0206 75.0425 68.7736 74.2885C70.5266 73.5346 72.3213 72.751 74.0681 71.9443C75.2159 71.4163 76.5389 70.5715 76.9897 69.3064C77.0854 69.0375 77.1223 68.7507 77.0978 68.466C77.0733 68.1812 76.988 67.9052 76.8478 67.657C76.8121 67.5972 76.7583 67.5506 76.6944 67.5244C76.6304 67.4981 76.5598 67.4935 76.493 67.5113C74.5063 68.2864 72.2837 69.1713 70.1426 68.5145C69.256 68.2691 68.4759 67.7309 67.9263 66.9854C67.8324 66.8481 67.5861 66.5229 67.5903 66.3518C67.5903 66.2167 67.7781 66.054 67.872 65.9506C68.1749 65.62 68.5331 65.3462 68.9301 65.1417C70.4347 64.3455 72.2691 64.3666 73.9261 64.4257C76.2989 64.5102 78.6697 64.6074 81.0425 64.6982C83.2796 64.7826 85.5314 64.8017 87.7644 64.9748C89.4547 65.1079 91.3496 65.3972 92.6644 66.5863C94.2713 68.0329 94.1753 70.3138 94.1503 72.3054C94.1211 74.7679 94.0911 77.2319 94.0605 79.6972C94.0459 80.8187 93.8518 82.1365 94.2296 83.2157C94.5405 84.1049 95.3064 84.5716 96.1453 84.8736C98.4737 85.6796 100.949 85.9558 103.395 85.6825C103.664 85.6529 103.871 85.2326 103.554 85.0911C100.14 83.5747 96.3853 84.5864 93.1423 86.0711C91.3622 86.8863 89.6467 87.8451 87.8478 88.6202C85.9505 89.4438 83.9345 89.953 81.8772 90.1281C77.8328 90.4639 73.7529 89.7754 69.7565 89.2094C65.8122 88.6519 61.8555 87.9803 58.0845 86.6455C54.8164 85.4903 51.7132 83.7944 49.1567 81.41C47.9294 80.2787 46.8601 78.9834 45.9784 77.5599C45.0518 76.0435 44.5572 74.43 43.9604 72.77C43.3635 71.11 42.2908 69.9062 40.8029 68.9685C39.3149 68.0308 37.685 67.3423 36.1282 66.5313C34.5714 65.7204 33.0417 64.7763 31.8709 63.4268C30.7377 62.1216 29.9489 60.5524 28.8178 59.2451C26.6933 56.7847 23.2708 55.9927 20.2741 55.1691C17.4901 54.4045 14.6707 53.7815 11.8638 53.112C9.27609 52.4932 6.66331 51.8808 4.15903 50.9642C3.27409 50.667 2.42604 50.2673 1.63177 49.773C1.28952 49.5471 0.542399 49.0233 0.630049 48.5059C0.661353 48.3306 1.01198 47.8533 1.12467 47.5914C1.26595 47.2684 1.37633 46.9325 1.45436 46.5882C1.63131 45.6421 1.71796 44.681 1.71314 43.7181C1.73609 42.9219 1.75071 42.1278 1.76949 41.3316C1.76949 41.019 1.6923 40.5333 1.85299 40.301C1.95508 40.179 2.08662 40.0858 2.23486 40.0306C2.9611 39.7202 3.86267 40.1489 4.50126 40.4847C6.76763 41.678 8.7001 43.528 10.6597 45.1584C11.6531 45.9842 12.6527 46.8058 13.7107 47.5471C14.8022 48.3095 15.9938 48.9156 17.1437 49.583C19.9255 51.1986 22.6656 52.8903 25.4287 54.5397C27.4092 55.7203 29.4126 57.0234 31.56 57.8766C32.2737 58.1596 32.8977 58.1131 33.6469 58.1427C34.2901 58.1382 34.9307 58.2249 35.5501 58.4004C36.4809 58.7115 37.4109 59.0269 38.3403 59.3465C41.5917 60.4637 44.8097 61.6506 47.9839 62.9959C49.7348 63.7415 51.469 64.5292 53.1907 65.3402C53.5538 65.5113 53.8731 64.9643 53.5058 64.7932C50.219 63.2452 46.8862 61.8006 43.4887 60.5186C41.8067 59.885 40.1121 59.2853 38.4113 58.7024C37.4492 58.3729 36.4851 57.9991 35.5042 57.7203C34.9434 57.5855 34.3694 57.5146 33.793 57.5091C32.9854 57.4732 32.3613 57.5302 31.6121 57.2177C30.661 56.799 29.735 56.3245 28.8387 55.7963C26.1487 54.2842 23.5275 52.6537 20.8813 51.0634C19.481 50.2187 18.0765 49.3866 16.6574 48.5756C15.5246 47.9621 14.4297 47.2794 13.3789 46.5312C11.1731 44.886 9.16548 42.9895 6.96172 41.3422C6.10513 40.6601 5.16953 40.0864 4.17569 39.6336C3.47658 39.34 2.64181 39.1309 1.92183 39.4731C1.64844 39.604 1.2791 39.8638 1.17266 40.1658C1.04328 40.5354 1.13928 41.131 1.13094 41.528C1.12259 41.9251 1.11212 42.3728 1.10169 42.7952C1.07665 43.9039 1.10169 45.0444 0.893 46.1405C0.755265 46.9177 0.413036 47.5112 0.0812192 48.2102C-0.179643 48.7657 0.23771 49.395 0.62796 49.7794C1.2102 50.3496 1.97192 50.7298 2.71486 51.0466C3.76155 51.4954 4.83411 51.8797 5.92663 52.1976C11.4381 53.8618 17.1353 54.7953 22.6322 56.5165C24.4082 57.0719 26.2634 57.6654 27.6721 58.9495C28.9869 60.1512 29.8111 61.771 30.8776 63.1733C33.0709 66.0688 36.4329 67.2473 39.4985 68.9221C40.3233 69.3422 41.0942 69.8628 41.7941 70.4722C42.5258 71.1683 43.0721 72.04 43.3823 73.0066C43.9562 74.6349 44.4508 76.2167 45.3419 77.7078C47.0343 80.542 49.5157 82.8377 52.2892 84.5695C55.48 86.5653 59.0841 87.7796 62.7237 88.5991C66.6157 89.4755 70.6038 89.993 74.5626 90.4618C78.5215 90.9307 82.6682 91.1207 86.5185 89.7839C90.2478 88.4893 93.5305 86.0542 97.4204 85.2157C99.3508 84.7933 101.386 84.7934 103.226 85.6149L103.383 85.0257C100.995 85.2749 98.4827 85.0637 96.2184 84.2104C95.7238 84.0246 95.2167 83.7606 94.9412 83.2812C94.6407 82.7574 94.6469 82.1133 94.6511 81.5262C94.6511 80.2062 94.6845 78.8862 94.6991 77.5663C94.7137 76.2463 94.7325 74.9876 94.7471 73.6972C94.7617 72.4892 94.8264 71.2663 94.7471 70.0583C94.6094 68.1406 93.8748 66.4279 92.174 65.4521C90.6735 64.5905 88.8808 64.3835 87.1884 64.2885C84.6841 64.1491 82.1673 64.092 79.6588 63.997C77.2964 63.9062 74.9153 63.714 72.5509 63.7605C70.9106 63.7921 69.1054 64.0245 67.799 65.1248C67.5152 65.3634 67.0498 65.771 66.9413 66.1449C66.8327 66.5187 67.1959 67.0192 67.3795 67.2874C67.9289 68.0618 68.6962 68.6506 69.5812 68.977C71.9332 69.8957 74.4332 68.977 76.6537 68.109L76.301 67.9632C77.044 69.3782 75.197 70.6517 74.1452 71.1924C72.6385 71.9654 71.0462 72.6011 69.4935 73.2748C67.8532 73.9886 66.2067 74.6863 64.5539 75.3677C63.093 75.9696 61.2148 76.9559 59.7895 75.7415C58.8566 74.9474 58.4664 73.6296 58.2034 72.4765C57.8403 70.8862 57.5961 69.26 57.3019 67.6549C56.9826 65.9125 56.3211 63.883 56.751 62.1216C57.1183 60.6179 58.0553 59.4204 58.0031 57.809C57.9447 56.299 57.256 54.7699 57.6212 53.2578C57.8883 52.1448 58.7126 51.319 59.5474 50.6009C60.4302 49.8448 61.3985 49.169 62.1477 48.2778C62.9616 47.3 63.2996 46.1827 63.3998 44.9198C63.525 43.4055 63.4874 41.925 64.3285 40.5966C65.038 39.4752 66.0856 38.6177 67.0602 37.7455C67.9931 36.9007 68.9029 36.0327 69.5478 34.943C70.272 33.7138 70.6727 32.3305 71.1464 30.9936C71.7199 29.3094 72.6672 27.7806 73.9157 26.5247C75.2868 25.1351 76.71 23.7919 78.1083 22.4297C79.5065 21.0675 80.8776 19.6841 82.2946 18.3473C83.0417 17.6398 85.0493 16.2227 85.8423 17.5722C85.8782 17.6303 85.9316 17.6752 85.9947 17.7002C86.0577 17.7251 86.1271 17.7289 86.1924 17.7109C86.2577 17.6929 86.3156 17.6541 86.3574 17.6002C86.3992 17.5463 86.4228 17.4802 86.4246 17.4117C86.6388 14.6615 87.2491 11.9578 88.236 9.3863C88.5782 8.49083 88.9935 7.37572 89.7344 6.72946C90.2791 6.25428 90.661 6.48659 90.9719 7.05259C91.5375 8.08322 91.8442 9.27858 92.1802 10.4C92.5621 11.6672 92.9107 12.9639 93.3677 14.2142C93.9938 15.9164 94.7722 17.549 95.296 19.2829C95.8887 21.2575 96.0702 23.2639 96.1307 25.3188C96.1892 27.5533 96.2351 29.7708 96.665 31.9715C97.0854 34.0985 97.7713 36.1629 98.7059 38.1151C98.7379 38.1678 98.7842 38.2101 98.8393 38.2369C98.8944 38.2636 98.9559 38.2737 99.0165 38.2659C99.0772 38.2581 99.1342 38.2327 99.181 38.1929C99.2277 38.153 99.262 38.1003 99.2798 38.0412C101.367 27.6462 96.256 16.8267 100.2 6.65977C101.116 4.2965 102.567 2.15076 104.568 0.598484H104.255C104.334 0.64917 104.428 1.061 104.464 1.2553C104.539 1.75171 104.581 2.25267 104.589 2.75478C104.637 4.0663 104.612 5.37993 104.604 6.69145C104.604 7.95862 104.576 9.22579 104.687 10.493C104.737 11.0611 104.756 12.1192 105.313 12.4613C105.939 12.8309 106.448 12.0283 106.703 11.5827C107.277 10.5795 107.667 9.46021 108.091 8.38734C108.537 7.15697 109.063 5.95761 109.664 4.79703C109.871 4.37516 110.146 3.9906 110.476 3.65869C110.645 3.50663 111.008 3.32289 111.171 3.36936C111.058 3.33768 111.238 3.54465 111.282 3.66081C111.375 3.92418 111.445 4.19563 111.49 4.47179C111.635 5.27103 111.736 6.07755 111.795 6.88786C111.951 8.67668 112.02 10.4782 112.152 12.2628C112.154 12.3245 112.173 12.3844 112.208 12.4352C112.243 12.486 112.291 12.5256 112.348 12.5493C112.404 12.5729 112.466 12.5796 112.526 12.5685C112.586 12.5573 112.642 12.5289 112.686 12.4866C113.473 11.7622 113.919 10.7506 114.381 9.79812C114.742 9.05049 115.234 7.72841 116.184 7.60592L115.883 7.37361C116.718 10.8351 116.407 14.4085 115.599 17.8446C115.189 19.5477 114.695 21.2289 114.118 22.8816C113.561 24.5184 112.826 26.1446 112.542 27.8616C112.405 28.6222 112.399 29.4009 112.523 30.1636C112.669 31.0084 113.045 31.7983 113.081 32.6536C113.151 34.2904 111.845 35.6589 110.96 36.9007C109.062 39.5674 107.32 42.3444 105.743 45.2176C102.603 50.9316 100.124 56.9927 98.3554 63.2811C98.1321 64.0709 97.9234 64.865 97.7293 65.6612C97.577 66.2716 97.291 67.0192 97.4726 67.6528C97.8107 68.8376 99.6284 68.8482 100.588 69.1016C103.243 69.8006 105.862 70.9453 107.97 72.751C112.978 77.0531 112.962 84.5906 113.383 90.6878L113.78 90.3837C111.987 89.8177 110.063 89.0088 109.143 87.2369C108.322 85.6571 109.737 84.2801 110.658 83.1165C110.904 82.7997 110.464 82.3477 110.215 82.6687L110.207 82.6708Z" fill="black"/>
</svg>
