<svg width="298" height="74" viewBox="0 0 298 74" fill="none" xmlns="http://www.w3.org/2000/svg">
<path d="M173.5 50.4999C178.333 48.9999 194.4 45.2999 220 42.4999C245.6 39.6999 282.333 42.9999 297.5 44.9999" stroke="black"/>
<path fill-rule="evenodd" clip-rule="evenodd" d="M76.4626 40.1158C74.1178 48.9808 66.8808 59.0569 60.5862 65.3485C55.5468 70.3847 51.77 72.7773 44.6472 72.9361C32.5438 73.2019 19.1411 73.0062 10.1924 64.8316C1.70756 57.0853 -1.07164 42.3607 0.356611 31.3024C1.80327 20.1039 13.1262 12.1323 22.2994 6.93735C24.5817 5.64507 26.864 4.35279 29.1425 3.06051C44.4189 -5.5904 61.2856 5.55646 69.9839 18.339C73.9963 24.2392 78.3252 32.3658 76.6172 39.4992C76.5657 39.7022 76.5141 39.909 76.4626 40.1158Z" fill="#F6C35E"/>
<path fill-rule="evenodd" clip-rule="evenodd" d="M69.6521 54.366C66.9252 55.4157 63.8821 55.9654 60.143 56.049C44.11 56.4023 26.3557 56.1423 14.5016 45.2801C8.72918 39.9938 4.95028 32.2618 2.89609 24C1.60021 26.3009 0.700068 28.7777 0.356611 31.4364C-1.07164 42.4947 1.70756 57.2193 10.1924 64.9656C19.1411 73.1402 32.5438 73.3359 44.6472 73.0701C51.77 72.9113 55.5468 70.5187 60.5862 65.4825C63.606 62.4642 66.8427 58.5748 69.6521 54.366Z" fill="#FFD072"/>
<path d="M173.57 50.1441C163.95 53.6558 153.811 49.499 144.017 49.255C139.107 49.1333 134.594 50.2166 130.308 52.6181C128.443 53.6627 126.626 54.7661 124.803 55.8573C124.862 55.7562 124.926 55.6578 124.982 55.554C126.495 52.7678 126.619 49.128 124.182 46.8154C121.397 44.1737 117.163 44.3679 113.853 45.7809C109.815 47.5039 106.673 50.7505 102.779 52.7022C103.436 51.7184 104.045 50.7024 104.618 49.6646C107.385 47.2446 111.039 45.6629 114.125 43.6641C117.697 43.971 121.445 42.2818 122.819 38.7103C123.872 35.9765 123.364 32.7018 121.706 30.3114C119.863 27.6538 116.234 25.9847 113.098 27.3627C108.777 29.262 108.96 34.745 109.35 38.6378C109.388 39.0199 109.922 39.1326 110.043 38.7315C110.994 35.6028 112.433 31.4286 116.356 31.2883C118.35 31.2169 119.787 32.6335 119.864 34.5995C119.925 36.1611 119.254 37.6619 118.364 38.9098C117.184 40.5641 115.66 41.8436 113.991 42.9608C111.997 42.7401 110.099 41.8378 108.776 40.2545C108.642 40.0957 108.308 40.1264 108.222 40.3259C106.954 43.2809 105.582 46.4053 103.936 49.3545C102.594 50.5584 101.465 51.9613 100.735 53.6542C100.702 53.7352 100.695 53.8243 100.714 53.9095C100.734 53.9947 100.779 54.0718 100.844 54.1305C97.9881 57.873 94.3824 60.8687 89.5289 62.1282C84.5141 63.4301 79.5355 61.8504 75.6933 58.4964C71.8199 55.1127 69.5813 50.3738 67.3963 45.8068C63.9994 38.6859 61.4926 28.1698 61.4899 28.0428L61.4454 26.1128C61.9716 26.2289 62.4987 26.3418 63.0267 26.4515C65.3756 28.3508 68.4453 29.2821 71.4552 29.8055C76.5807 30.6977 81.9167 31.0661 87.1116 31.1904C92.5594 31.3201 98.1079 30.9062 103.298 29.144C103.572 29.0509 103.887 28.9413 104.227 28.8149C104.404 28.799 104.58 28.7842 104.757 28.7672C104.837 28.7612 104.912 28.7299 104.973 28.678C105.033 28.6262 105.076 28.5564 105.094 28.4788C108.177 27.2246 112.31 24.8708 109.83 21.5601C108.664 20.0043 106.574 19.3036 104.752 18.9004C101.896 18.2751 99.0071 17.8052 96.0994 17.4927C87.2012 16.5232 78.2047 16.9865 69.4536 18.8649C67.2956 19.329 64.6472 19.6868 62.9334 21.2209C62.0269 22.0322 61.6082 23.2493 61.9262 24.3627C61.7161 24.0964 61.5204 23.8191 61.3399 23.5319C61.1597 23.2451 60.6741 23.3493 60.6826 23.7097C60.696 24.3052 60.7097 24.9008 60.7234 25.4963C60.6959 25.5475 60.6793 25.6039 60.6747 25.6619C60.6153 26.3675 60.5824 27.0731 60.5761 27.7787C60.5375 27.8545 60.5296 27.9422 60.5538 28.0237C60.5628 28.0586 60.5729 28.0936 60.5819 28.1296C60.595 32.8821 61.7856 37.5576 64.0477 41.7394C59.0314 42.502 54.2409 44.5298 50.3065 47.7574C48.4851 49.2513 46.7612 51.1533 46.1718 53.4934C45.9056 54.5758 45.8917 55.7047 46.1309 56.7934C42.6127 55.5964 39.0033 55.0741 35.2481 56.1584C34.8129 56.2843 34.9979 56.9638 35.4357 56.8373C39.1119 55.7758 42.8496 56.4023 46.3658 57.6655C46.645 58.5068 47.0431 59.3041 47.5479 60.0331C50.5398 64.3768 56.2547 65.7093 61.0918 66.828C66.3197 68.0322 71.6502 68.7388 77.0117 68.9384C87.995 69.3501 98.9578 67.694 109.327 64.0566C110.957 63.484 112.567 62.861 114.159 62.1875C114.879 61.9933 115.597 61.7922 116.309 61.5763C118.97 60.7677 121.646 59.5595 123.545 57.5338C123.607 57.4983 123.67 57.4644 123.731 57.4279C128.642 54.574 133.2 51.1014 138.969 50.2346C150.572 48.4919 162.353 54.9883 173.762 50.8241C174.183 50.6733 174 49.9901 173.57 50.1441ZM115.35 42.8269C117.582 41.1864 119.787 38.9844 120.409 36.1881C121.052 33.295 119.44 30.3755 116.203 30.5972C112.651 30.8401 110.968 33.8935 109.9 36.9121C109.761 35.1276 109.753 33.3135 110.344 31.6164C111.139 29.3366 112.969 27.5839 115.486 27.5898C119.305 27.5993 122.085 30.9279 122.578 34.491C123.055 37.9546 121.309 41.2758 117.957 42.4961C117.035 42.8288 116.063 43.0045 115.083 43.0158C115.174 42.9528 115.263 42.8909 115.35 42.8269ZM108.637 41.1478C109.851 42.4109 111.44 43.1973 113.125 43.5249C110.712 45.0305 108.086 46.2852 105.814 47.8775C105.682 47.9703 105.551 48.0643 105.421 48.1596C106.594 45.8703 107.626 43.5 108.637 41.1478ZM61.4163 24.8364C61.6057 25.0734 61.8038 25.2999 62.0105 25.5159C61.8165 25.4742 61.6221 25.4319 61.4274 25.3888L61.4163 24.8364ZM90.0065 30.4988C84.6387 30.5845 79.2201 30.114 73.8958 29.4568C70.8355 29.0789 67.4896 28.4582 64.8068 26.8558C65.5063 27.0729 66.2277 27.212 66.9579 27.2707C67.1402 27.2865 67.3231 27.2992 67.5071 27.3098C78.6105 29.2483 89.9082 29.8364 101.153 29.0615C97.5323 30.0463 93.7574 30.4395 90.0065 30.4988ZM71.4043 27.2225C73.09 27.0786 74.7742 26.832 76.4037 26.6145C79.9166 26.1461 83.4179 25.5592 86.9526 25.2872C92.6527 24.848 98.6306 25.2872 103.661 28.1618C92.9089 29.0996 82.0837 28.7844 71.4043 27.2225ZM65.7201 20.516C68.1008 19.7222 70.6664 19.2909 73.1362 18.8702C78.4473 17.9694 83.8339 17.5881 89.2193 17.7319C94.5446 17.8711 100.057 18.3797 105.222 19.7333C106.954 20.1869 109.603 21.1876 109.802 23.2879C110.046 25.8582 106.52 27.1511 104.63 27.9046L104.613 27.9115C96.4832 22.8572 86.5169 24.5035 77.5524 25.7529C74.7689 26.1408 71.9737 26.4869 69.162 26.5801C68.6208 26.5975 68.0409 26.6086 67.4541 26.5864C66.5063 26.4195 65.56 26.2431 64.6154 26.0572C64.1146 25.8577 63.6552 25.5672 63.2605 25.2005C61.1184 23.1736 63.8473 21.1442 65.7201 20.516ZM48.6622 50.3335C52.4847 45.7761 58.8098 43.1328 64.5921 42.3623C64.8502 42.3279 65.0411 42.0881 64.8969 41.8331C63.0926 38.6273 61.9364 35.0991 61.4937 31.4487C62.8159 36.0357 64.4103 40.5403 66.2682 44.9384C68.3356 49.8223 70.712 54.8052 74.6438 58.4895C78.2044 61.8234 82.8841 63.8471 87.8151 63.1824C92.5244 62.5474 96.8002 59.831 99.95 56.3595C100.676 55.5563 101.357 54.7144 101.991 53.8373C105.388 52.3969 108.152 49.9213 111.261 47.968C114.522 45.9169 118.672 44.3938 122.348 46.3587C126.01 48.3168 126.022 52.7821 123.938 55.9287C123.747 56.2122 123.54 56.4846 123.318 56.7447C121.175 58.009 119.006 59.2319 116.729 60.2903C115.862 60.6941 114.986 61.0773 114.105 61.4509L113.714 61.5498C96.8919 65.695 78.5537 69.2295 61.6347 63.6301C56.8081 62.0324 51.9652 58.9393 46.9446 57.0834C46.3356 54.7296 46.986 52.3328 48.6622 50.3335ZM86.4819 68.0759C76.1402 68.8125 65.145 67.9171 55.3043 64.4969C52.323 63.4597 49.3905 61.8541 47.7541 59.0494C47.5572 58.7108 47.385 58.3585 47.2388 57.9952C47.9698 58.2815 48.6902 58.5916 49.3969 58.9165C53.5396 60.8217 57.4861 63.0369 61.8472 64.4398C70.5509 67.2392 79.8578 67.6583 88.9102 66.8164C93.5984 66.3803 98.2511 65.6146 102.866 64.688C104.89 64.2821 106.932 63.8778 108.967 63.4359C101.711 65.9694 94.1498 67.5297 86.4819 68.0759Z" fill="#1D1D1B" stroke="black" stroke-width="0.2"/>
</svg>
