<svg width="1397" height="94" viewBox="0 0 1397 94" fill="none" xmlns="http://www.w3.org/2000/svg">
<path fill-rule="evenodd" clip-rule="evenodd" d="M160.243 31.0316C157.715 26.563 153.19 23.0161 147.92 23.6065C146.872 23.7238 145.839 23.9854 144.786 23.9808C142.219 23.9694 142.289 22.5898 141.547 20.6974C140.85 18.9147 140.052 17.1577 139.082 15.5013C137.166 12.2335 134.486 9.37583 130.846 7.99033C125.633 6.00603 120.383 6.97915 116.634 11.1311C114.908 13.0405 113.631 15.3185 112.622 17.6603C111.691 19.8193 111.647 23.7671 108.591 23.9701C107.042 24.073 105.663 23.0656 104.172 22.6375C99.6499 21.3405 94.4294 22.3716 90.7967 25.312C84.4115 30.4828 82.7435 42.0098 88.6278 48.1139C91.5821 51.1786 95.6281 52.975 99.662 54.4215C110.93 58.4634 122.99 60.3503 134.977 59.9465C147.585 59.5217 164.674 51.3856 162.225 36.5178C161.921 34.6766 161.235 32.7833 160.243 31.0316" fill="#B7C0EB"/>
<mask id="mask0_408_393" style="mask-type:alpha" maskUnits="userSpaceOnUse" x="85" y="7" width="78" height="53">
<path fill-rule="evenodd" clip-rule="evenodd" d="M160.243 31.0316C157.715 26.563 153.19 23.0161 147.92 23.6065C146.872 23.7238 145.839 23.9854 144.786 23.9808C142.219 23.9694 142.289 22.5898 141.547 20.6974C140.85 18.9147 140.052 17.1577 139.082 15.5013C137.166 12.2335 134.486 9.37583 130.846 7.99033C125.633 6.00603 120.383 6.97915 116.634 11.1311C114.908 13.0405 113.631 15.3185 112.622 17.6603C111.691 19.8193 111.647 23.7671 108.591 23.9701C107.042 24.073 105.663 23.0656 104.172 22.6375C99.6499 21.3405 94.4294 22.3716 90.7967 25.312C84.4115 30.4828 82.7435 42.0098 88.6278 48.1139C91.5821 51.1786 95.6281 52.975 99.662 54.4215C110.93 58.4634 122.99 60.3503 134.977 59.9465C147.585 59.5217 164.674 51.3856 162.225 36.5178C161.921 34.6766 161.235 32.7833 160.243 31.0316" fill="white"/>
</mask>
<g mask="url(#mask0_408_393)">
<g style="mix-blend-mode:luminosity" opacity="0.15">
<path fill-rule="evenodd" clip-rule="evenodd" d="M77.9263 14.3951C77.9263 14.3951 91.8699 54.113 133.775 57.322C175.68 60.531 84.6486 64.2632 84.6486 64.2632L63.1793 30.9061L77.9263 14.3951Z" fill="white"/>
</g>
</g>
<path fill-rule="evenodd" clip-rule="evenodd" d="M422.243 24.0316C419.715 19.563 415.19 16.0161 409.92 16.6065C408.872 16.7238 407.839 16.9854 406.786 16.9808C404.219 16.9694 404.289 15.5898 403.547 13.6974C402.85 11.9147 402.052 10.1577 401.082 8.5013C399.166 5.23346 396.486 2.37583 392.846 0.990331C387.633 -0.993975 382.383 -0.0208489 378.634 4.13109C376.908 6.04048 375.631 8.31845 374.622 10.6603C373.691 12.8193 373.647 16.7671 370.591 16.9701C369.042 17.073 367.663 16.0656 366.172 15.6375C361.65 14.3405 356.429 15.3716 352.797 18.312C346.412 23.4828 344.743 35.0098 350.628 41.1139C353.582 44.1786 357.628 45.975 361.662 47.4215C372.93 51.4634 384.99 53.3503 396.977 52.9465C409.585 52.5217 426.674 44.3856 424.225 29.5178C423.921 27.6766 423.235 25.7833 422.243 24.0316" fill="#B7C0EB"/>
<mask id="mask1_408_393" style="mask-type:alpha" maskUnits="userSpaceOnUse" x="347" y="0" width="78" height="53">
<path fill-rule="evenodd" clip-rule="evenodd" d="M422.243 24.0316C419.715 19.563 415.19 16.0161 409.92 16.6065C408.872 16.7238 407.839 16.9854 406.786 16.9808C404.219 16.9694 404.289 15.5898 403.547 13.6974C402.85 11.9147 402.052 10.1577 401.082 8.5013C399.166 5.23346 396.486 2.37583 392.846 0.990331C387.633 -0.993975 382.383 -0.0208489 378.634 4.13109C376.908 6.04048 375.631 8.31845 374.622 10.6603C373.691 12.8193 373.647 16.7671 370.591 16.9701C369.042 17.073 367.663 16.0656 366.172 15.6375C361.65 14.3405 356.429 15.3716 352.797 18.312C346.412 23.4828 344.743 35.0098 350.628 41.1139C353.582 44.1786 357.628 45.975 361.662 47.4215C372.93 51.4634 384.99 53.3503 396.977 52.9465C409.585 52.5217 426.674 44.3856 424.225 29.5178C423.921 27.6766 423.235 25.7833 422.243 24.0316" fill="white"/>
</mask>
<g mask="url(#mask1_408_393)">
<g style="mix-blend-mode:luminosity" opacity="0.15">
<path fill-rule="evenodd" clip-rule="evenodd" d="M339.926 7.39506C339.926 7.39506 353.87 47.113 395.775 50.322C437.68 53.531 346.649 57.2632 346.649 57.2632L325.179 23.9061L339.926 7.39506Z" fill="white"/>
</g>
</g>
<path fill-rule="evenodd" clip-rule="evenodd" d="M660.243 46.0316C657.715 41.563 653.19 38.0161 647.92 38.6065C646.872 38.7238 645.839 38.9854 644.786 38.9808C642.219 38.9694 642.289 37.5898 641.547 35.6974C640.85 33.9147 640.052 32.1577 639.082 30.5013C637.166 27.2335 634.486 24.3758 630.846 22.9903C625.633 21.006 620.383 21.9792 616.634 26.1311C614.908 28.0405 613.631 30.3185 612.622 32.6603C611.691 34.8193 611.647 38.7671 608.591 38.9701C607.042 39.073 605.663 38.0656 604.172 37.6375C599.65 36.3405 594.429 37.3716 590.797 40.312C584.412 45.4828 582.743 57.0098 588.628 63.1139C591.582 66.1786 595.628 67.975 599.662 69.4215C610.93 73.4634 622.99 75.3503 634.977 74.9465C647.585 74.5217 664.674 66.3856 662.225 51.5178C661.921 49.6766 661.235 47.7833 660.243 46.0316" fill="#B7C0EB"/>
<mask id="mask2_408_393" style="mask-type:alpha" maskUnits="userSpaceOnUse" x="585" y="22" width="78" height="53">
<path fill-rule="evenodd" clip-rule="evenodd" d="M660.243 46.0316C657.715 41.563 653.19 38.0161 647.92 38.6065C646.872 38.7238 645.839 38.9854 644.786 38.9808C642.219 38.9694 642.289 37.5898 641.547 35.6974C640.85 33.9147 640.052 32.1577 639.082 30.5013C637.166 27.2335 634.486 24.3758 630.846 22.9903C625.633 21.006 620.383 21.9792 616.634 26.1311C614.908 28.0405 613.631 30.3185 612.622 32.6603C611.691 34.8193 611.647 38.7671 608.591 38.9701C607.042 39.073 605.663 38.0656 604.172 37.6375C599.65 36.3405 594.429 37.3716 590.797 40.312C584.412 45.4828 582.743 57.0098 588.628 63.1139C591.582 66.1786 595.628 67.975 599.662 69.4215C610.93 73.4634 622.99 75.3503 634.977 74.9465C647.585 74.5217 664.674 66.3856 662.225 51.5178C661.921 49.6766 661.235 47.7833 660.243 46.0316" fill="white"/>
</mask>
<g mask="url(#mask2_408_393)">
<g style="mix-blend-mode:luminosity" opacity="0.15">
<path fill-rule="evenodd" clip-rule="evenodd" d="M577.926 29.3951C577.926 29.3951 591.87 69.113 633.775 72.322C675.68 75.531 584.649 79.2632 584.649 79.2632L563.179 45.9061L577.926 29.3951Z" fill="white"/>
</g>
</g>
<path fill-rule="evenodd" clip-rule="evenodd" d="M817.243 25.0316C814.715 20.563 810.19 17.0161 804.92 17.6065C803.872 17.7238 802.839 17.9854 801.786 17.9808C799.219 17.9694 799.289 16.5898 798.547 14.6974C797.85 12.9147 797.052 11.1577 796.082 9.5013C794.166 6.23346 791.486 3.37583 787.846 1.99033C782.633 0.00602535 777.383 0.979151 773.634 5.13109C771.908 7.04048 770.631 9.31845 769.622 11.6603C768.691 13.8193 768.647 17.7671 765.591 17.9701C764.042 18.073 762.663 17.0656 761.172 16.6375C756.65 15.3405 751.429 16.3716 747.797 19.312C741.412 24.4828 739.743 36.0098 745.628 42.1139C748.582 45.1786 752.628 46.975 756.662 48.4215C767.93 52.4634 779.99 54.3503 791.977 53.9465C804.585 53.5217 821.674 45.3856 819.225 30.5178C818.921 28.6766 818.235 26.7833 817.243 25.0316" fill="#B7C0EB"/>
<mask id="mask3_408_393" style="mask-type:alpha" maskUnits="userSpaceOnUse" x="742" y="1" width="78" height="53">
<path fill-rule="evenodd" clip-rule="evenodd" d="M817.243 25.0316C814.715 20.563 810.19 17.0161 804.92 17.6065C803.872 17.7238 802.839 17.9854 801.786 17.9808C799.219 17.9694 799.289 16.5898 798.547 14.6974C797.85 12.9147 797.052 11.1577 796.082 9.5013C794.166 6.23346 791.486 3.37583 787.846 1.99033C782.633 0.00602535 777.383 0.979151 773.634 5.13109C771.908 7.04048 770.631 9.31845 769.622 11.6603C768.691 13.8193 768.647 17.7671 765.591 17.9701C764.042 18.073 762.663 17.0656 761.172 16.6375C756.65 15.3405 751.429 16.3716 747.797 19.312C741.412 24.4828 739.743 36.0098 745.628 42.1139C748.582 45.1786 752.628 46.975 756.662 48.4215C767.93 52.4634 779.99 54.3503 791.977 53.9465C804.585 53.5217 821.674 45.3856 819.225 30.5178C818.921 28.6766 818.235 26.7833 817.243 25.0316" fill="white"/>
</mask>
<g mask="url(#mask3_408_393)">
<g style="mix-blend-mode:luminosity" opacity="0.15">
<path fill-rule="evenodd" clip-rule="evenodd" d="M734.926 8.39506C734.926 8.39506 748.87 48.113 790.775 51.322C832.68 54.531 741.649 58.2632 741.649 58.2632L720.179 24.9061L734.926 8.39506Z" fill="white"/>
</g>
</g>
<path fill-rule="evenodd" clip-rule="evenodd" d="M1001.24 39.0316C998.715 34.563 994.19 31.0161 988.92 31.6065C987.872 31.7238 986.839 31.9854 985.786 31.9808C983.219 31.9694 983.289 30.5898 982.547 28.6974C981.85 26.9147 981.052 25.1577 980.082 23.5013C978.166 20.2335 975.486 17.3758 971.846 15.9903C966.633 14.006 961.383 14.9792 957.634 19.1311C955.908 21.0405 954.631 23.3185 953.622 25.6603C952.691 27.8193 952.647 31.7671 949.591 31.9701C948.042 32.073 946.663 31.0656 945.172 30.6375C940.65 29.3405 935.429 30.3716 931.797 33.312C925.412 38.4828 923.743 50.0098 929.628 56.1139C932.582 59.1786 936.628 60.975 940.662 62.4215C951.93 66.4634 963.99 68.3503 975.977 67.9465C988.585 67.5217 1005.67 59.3856 1003.23 44.5178C1002.92 42.6766 1002.24 40.7833 1001.24 39.0316" fill="#B7C0EB"/>
<mask id="mask4_408_393" style="mask-type:alpha" maskUnits="userSpaceOnUse" x="926" y="15" width="78" height="53">
<path fill-rule="evenodd" clip-rule="evenodd" d="M1001.24 39.0316C998.715 34.563 994.19 31.0161 988.92 31.6065C987.872 31.7238 986.839 31.9854 985.786 31.9808C983.219 31.9694 983.289 30.5898 982.547 28.6974C981.85 26.9147 981.052 25.1577 980.082 23.5013C978.166 20.2335 975.486 17.3758 971.846 15.9903C966.633 14.006 961.383 14.9792 957.634 19.1311C955.908 21.0405 954.631 23.3185 953.622 25.6603C952.691 27.8193 952.647 31.7671 949.591 31.9701C948.042 32.073 946.663 31.0656 945.172 30.6375C940.65 29.3405 935.429 30.3716 931.797 33.312C925.412 38.4828 923.743 50.0098 929.628 56.1139C932.582 59.1786 936.628 60.975 940.662 62.4215C951.93 66.4634 963.99 68.3503 975.977 67.9465C988.585 67.5217 1005.67 59.3856 1003.23 44.5178C1002.92 42.6766 1002.24 40.7833 1001.24 39.0316" fill="white"/>
</mask>
<g mask="url(#mask4_408_393)">
<g style="mix-blend-mode:luminosity" opacity="0.15">
<path fill-rule="evenodd" clip-rule="evenodd" d="M918.926 22.3951C918.926 22.3951 932.87 62.113 974.775 65.322C1016.68 68.531 925.649 72.2632 925.649 72.2632L904.179 38.9061L918.926 22.3951Z" fill="white"/>
</g>
</g>
<path fill-rule="evenodd" clip-rule="evenodd" d="M1373.24 65.0316C1370.71 60.563 1366.19 57.0161 1360.92 57.6065C1359.87 57.7238 1358.84 57.9854 1357.79 57.9808C1355.22 57.9694 1355.29 56.5898 1354.55 54.6974C1353.85 52.9147 1353.05 51.1577 1352.08 49.5013C1350.17 46.2335 1347.49 43.3758 1343.85 41.9903C1338.63 40.006 1333.38 40.9792 1329.63 45.1311C1327.91 47.0405 1326.63 49.3185 1325.62 51.6603C1324.69 53.8193 1324.65 57.7671 1321.59 57.9701C1320.04 58.073 1318.66 57.0656 1317.17 56.6375C1312.65 55.3405 1307.43 56.3716 1303.8 59.312C1297.41 64.4828 1295.74 76.0098 1301.63 82.1139C1304.58 85.1786 1308.63 86.975 1312.66 88.4215C1323.93 92.4634 1335.99 94.3503 1347.98 93.9465C1360.58 93.5217 1377.67 85.3856 1375.23 70.5178C1374.92 68.6766 1374.24 66.7833 1373.24 65.0316" fill="#B7C0EB"/>
<mask id="mask5_408_393" style="mask-type:alpha" maskUnits="userSpaceOnUse" x="1298" y="41" width="78" height="53">
<path fill-rule="evenodd" clip-rule="evenodd" d="M1373.24 65.0316C1370.71 60.563 1366.19 57.0161 1360.92 57.6065C1359.87 57.7238 1358.84 57.9854 1357.79 57.9808C1355.22 57.9694 1355.29 56.5898 1354.55 54.6974C1353.85 52.9147 1353.05 51.1577 1352.08 49.5013C1350.17 46.2335 1347.49 43.3758 1343.85 41.9903C1338.63 40.006 1333.38 40.9792 1329.63 45.1311C1327.91 47.0405 1326.63 49.3185 1325.62 51.6603C1324.69 53.8193 1324.65 57.7671 1321.59 57.9701C1320.04 58.073 1318.66 57.0656 1317.17 56.6375C1312.65 55.3405 1307.43 56.3716 1303.8 59.312C1297.41 64.4828 1295.74 76.0098 1301.63 82.1139C1304.58 85.1786 1308.63 86.975 1312.66 88.4215C1323.93 92.4634 1335.99 94.3503 1347.98 93.9465C1360.58 93.5217 1377.67 85.3856 1375.23 70.5178C1374.92 68.6766 1374.24 66.7833 1373.24 65.0316" fill="white"/>
</mask>
<g mask="url(#mask5_408_393)">
<g style="mix-blend-mode:luminosity" opacity="0.15">
<path fill-rule="evenodd" clip-rule="evenodd" d="M1290.93 48.3951C1290.93 48.3951 1304.87 88.113 1346.77 91.322C1388.68 94.531 1297.65 98.2632 1297.65 98.2632L1276.18 64.9061L1290.93 48.3951Z" fill="white"/>
</g>
</g>
<path fill-rule="evenodd" clip-rule="evenodd" d="M1214.24 30.0316C1211.71 25.563 1207.19 22.0161 1201.92 22.6065C1200.87 22.7238 1199.84 22.9854 1198.79 22.9808C1196.22 22.9694 1196.29 21.5898 1195.55 19.6974C1194.85 17.9147 1194.05 16.1577 1193.08 14.5013C1191.17 11.2335 1188.49 8.37583 1184.85 6.99033C1179.63 5.00603 1174.38 5.97915 1170.63 10.1311C1168.91 12.0405 1167.63 14.3185 1166.62 16.6603C1165.69 18.8193 1165.65 22.7671 1162.59 22.9701C1161.04 23.073 1159.66 22.0656 1158.17 21.6375C1153.65 20.3405 1148.43 21.3716 1144.8 24.312C1138.41 29.4828 1136.74 41.0098 1142.63 47.1139C1145.58 50.1786 1149.63 51.975 1153.66 53.4215C1164.93 57.4634 1176.99 59.3503 1188.98 58.9465C1201.58 58.5217 1218.67 50.3856 1216.23 35.5178C1215.92 33.6766 1215.24 31.7833 1214.24 30.0316" fill="#B7C0EB"/>
<mask id="mask6_408_393" style="mask-type:alpha" maskUnits="userSpaceOnUse" x="1139" y="6" width="78" height="53">
<path fill-rule="evenodd" clip-rule="evenodd" d="M1214.24 30.0316C1211.71 25.563 1207.19 22.0161 1201.92 22.6065C1200.87 22.7238 1199.84 22.9854 1198.79 22.9808C1196.22 22.9694 1196.29 21.5898 1195.55 19.6974C1194.85 17.9147 1194.05 16.1577 1193.08 14.5013C1191.17 11.2335 1188.49 8.37583 1184.85 6.99033C1179.63 5.00603 1174.38 5.97915 1170.63 10.1311C1168.91 12.0405 1167.63 14.3185 1166.62 16.6603C1165.69 18.8193 1165.65 22.7671 1162.59 22.9701C1161.04 23.073 1159.66 22.0656 1158.17 21.6375C1153.65 20.3405 1148.43 21.3716 1144.8 24.312C1138.41 29.4828 1136.74 41.0098 1142.63 47.1139C1145.58 50.1786 1149.63 51.975 1153.66 53.4215C1164.93 57.4634 1176.99 59.3503 1188.98 58.9465C1201.58 58.5217 1218.67 50.3856 1216.23 35.5178C1215.92 33.6766 1215.24 31.7833 1214.24 30.0316" fill="white"/>
</mask>
<g mask="url(#mask6_408_393)">
<g style="mix-blend-mode:luminosity" opacity="0.15">
<path fill-rule="evenodd" clip-rule="evenodd" d="M1131.93 13.3951C1131.93 13.3951 1145.87 53.113 1187.77 56.322C1229.68 59.531 1138.65 63.2632 1138.65 63.2632L1117.18 29.9061L1131.93 13.3951Z" fill="white"/>
</g>
</g>
<path fill-rule="evenodd" clip-rule="evenodd" d="M318.394 61.0685C317.439 59.3823 315.732 58.0438 313.744 58.2666C313.348 58.3109 312.958 58.4096 312.561 58.4079C311.592 58.4035 311.619 57.883 311.339 57.1688C311.075 56.4961 310.774 55.8331 310.408 55.208C309.685 53.9749 308.674 52.8965 307.3 52.3737C305.333 51.6249 303.352 51.9921 301.937 53.5589C301.286 54.2794 300.804 55.139 300.423 56.0228C300.072 56.8375 300.055 58.3272 298.902 58.4038C298.318 58.4426 297.797 58.0625 297.235 57.9009C295.528 57.4115 293.558 57.8006 292.187 58.9102C289.778 60.8614 289.148 65.2112 291.369 67.5147C292.484 68.6712 294.011 69.3491 295.533 69.8949C299.785 71.4201 304.336 72.1322 308.859 71.9798C313.617 71.8195 320.066 68.7493 319.142 63.1388C319.027 62.444 318.768 61.7295 318.394 61.0685" fill="#B7C0EB"/>
<mask id="mask7_408_393" style="mask-type:alpha" maskUnits="userSpaceOnUse" x="290" y="52" width="30" height="20">
<path fill-rule="evenodd" clip-rule="evenodd" d="M318.394 61.0685C317.439 59.3823 315.732 58.0438 313.744 58.2666C313.348 58.3109 312.958 58.4096 312.561 58.4079C311.592 58.4035 311.619 57.883 311.339 57.1688C311.075 56.4961 310.774 55.8331 310.408 55.208C309.685 53.9749 308.674 52.8965 307.3 52.3737C305.333 51.6249 303.352 51.9921 301.937 53.5589C301.286 54.2794 300.804 55.139 300.423 56.0228C300.072 56.8375 300.055 58.3272 298.902 58.4038C298.318 58.4426 297.797 58.0625 297.235 57.9009C295.528 57.4115 293.558 57.8006 292.187 58.9102C289.778 60.8614 289.148 65.2112 291.369 67.5147C292.484 68.6712 294.011 69.3491 295.533 69.8949C299.785 71.4201 304.336 72.1322 308.859 71.9798C313.617 71.8195 320.066 68.7493 319.142 63.1388C319.027 62.444 318.768 61.7295 318.394 61.0685" fill="white"/>
</mask>
<g mask="url(#mask7_408_393)">
<g style="mix-blend-mode:luminosity" opacity="0.15">
<path fill-rule="evenodd" clip-rule="evenodd" d="M287.331 54.7906C287.331 54.7906 292.592 69.7785 308.406 70.9895C324.219 72.2004 289.867 73.6088 289.867 73.6088L281.766 61.0212L287.331 54.7906Z" fill="white"/>
</g>
</g>
<path fill-rule="evenodd" clip-rule="evenodd" d="M28.3937 56.0685C27.4395 54.3823 25.7319 53.0438 23.7436 53.2666C23.3481 53.3109 22.9581 53.4096 22.5608 53.4079C21.5919 53.4035 21.6185 52.883 21.3387 52.1688C21.0753 51.4961 20.7744 50.8331 20.4083 50.208C19.6852 48.9749 18.6741 47.8965 17.3005 47.3737C15.3333 46.6249 13.3522 46.9921 11.9374 48.5589C11.2859 49.2794 10.8042 50.139 10.4234 51.0228C10.072 51.8375 10.0555 53.3272 8.9021 53.4038C8.31762 53.4426 7.79736 53.0625 7.2349 52.9009C5.52825 52.4115 3.55826 52.8006 2.18743 53.9102C-0.222075 55.8614 -0.851519 60.2112 1.36897 62.5147C2.4838 63.6712 4.01061 64.3491 5.53284 64.8949C9.78479 66.4201 14.3359 67.1322 18.8594 66.9798C23.6169 66.8195 30.0655 63.7493 29.1416 58.1388C29.0269 57.444 28.7681 56.7295 28.3937 56.0685" fill="#B7C0EB"/>
<mask id="mask8_408_393" style="mask-type:alpha" maskUnits="userSpaceOnUse" x="0" y="47" width="30" height="20">
<path fill-rule="evenodd" clip-rule="evenodd" d="M28.3937 56.0685C27.4395 54.3823 25.7319 53.0438 23.7436 53.2666C23.3481 53.3109 22.9581 53.4096 22.5608 53.4079C21.5919 53.4035 21.6185 52.883 21.3387 52.1688C21.0753 51.4961 20.7744 50.8331 20.4083 50.208C19.6852 48.9749 18.6741 47.8965 17.3005 47.3737C15.3333 46.6249 13.3522 46.9921 11.9374 48.5589C11.2859 49.2794 10.8042 50.139 10.4234 51.0228C10.072 51.8375 10.0555 53.3272 8.9021 53.4038C8.31762 53.4426 7.79736 53.0625 7.2349 52.9009C5.52825 52.4115 3.55826 52.8006 2.18743 53.9102C-0.222075 55.8614 -0.851519 60.2112 1.36897 62.5147C2.4838 63.6712 4.01061 64.3491 5.53284 64.8949C9.78479 66.4201 14.3359 67.1322 18.8594 66.9798C23.6169 66.8195 30.0655 63.7493 29.1416 58.1388C29.0269 57.444 28.7681 56.7295 28.3937 56.0685" fill="white"/>
</mask>
<g mask="url(#mask8_408_393)">
<g style="mix-blend-mode:luminosity" opacity="0.15">
<path fill-rule="evenodd" clip-rule="evenodd" d="M-2.66931 49.7906C-2.66931 49.7906 2.5924 64.7785 18.4056 65.9895C34.2187 67.2004 -0.132603 68.6088 -0.132603 68.6088L-8.23425 56.0212L-2.66931 49.7906Z" fill="white"/>
</g>
</g>
<path fill-rule="evenodd" clip-rule="evenodd" d="M219.394 11.0685C218.439 9.38227 216.732 8.04381 214.744 8.26662C214.348 8.31087 213.958 8.40958 213.561 8.40787C212.592 8.40353 212.619 7.88296 212.339 7.16885C212.075 6.4961 211.774 5.8331 211.408 5.20804C210.685 3.97489 209.674 2.89654 208.3 2.37371C206.333 1.62492 204.352 1.99213 202.937 3.5589C202.286 4.27943 201.804 5.13904 201.423 6.02276C201.072 6.83749 201.055 8.32722 199.902 8.4038C199.318 8.44264 198.797 8.06251 198.235 7.90093C196.528 7.41152 194.558 7.8006 193.187 8.9102C190.778 10.8614 190.148 15.2112 192.369 17.5147C193.484 18.6712 195.011 19.3491 196.533 19.8949C200.785 21.4201 205.336 22.1322 209.859 21.9798C214.617 21.8195 221.066 18.7493 220.142 13.1388C220.027 12.444 219.768 11.7295 219.394 11.0685" fill="#B7C0EB"/>
<mask id="mask9_408_393" style="mask-type:alpha" maskUnits="userSpaceOnUse" x="191" y="2" width="30" height="20">
<path fill-rule="evenodd" clip-rule="evenodd" d="M219.394 11.0685C218.439 9.38227 216.732 8.04381 214.744 8.26662C214.348 8.31087 213.958 8.40958 213.561 8.40787C212.592 8.40353 212.619 7.88296 212.339 7.16885C212.075 6.4961 211.774 5.8331 211.408 5.20804C210.685 3.97489 209.674 2.89654 208.3 2.37371C206.333 1.62492 204.352 1.99213 202.937 3.5589C202.286 4.27943 201.804 5.13904 201.423 6.02276C201.072 6.83749 201.055 8.32722 199.902 8.4038C199.318 8.44264 198.797 8.06251 198.235 7.90093C196.528 7.41152 194.558 7.8006 193.187 8.9102C190.778 10.8614 190.148 15.2112 192.369 17.5147C193.484 18.6712 195.011 19.3491 196.533 19.8949C200.785 21.4201 205.336 22.1322 209.859 21.9798C214.617 21.8195 221.066 18.7493 220.142 13.1388C220.027 12.444 219.768 11.7295 219.394 11.0685" fill="white"/>
</mask>
<g mask="url(#mask9_408_393)">
<g style="mix-blend-mode:luminosity" opacity="0.15">
<path fill-rule="evenodd" clip-rule="evenodd" d="M188.331 4.79061C188.331 4.79061 193.592 19.7785 209.406 20.9895C225.219 22.2004 190.867 23.6088 190.867 23.6088L182.766 11.0212L188.331 4.79061Z" fill="white"/>
</g>
</g>
<path fill-rule="evenodd" clip-rule="evenodd" d="M457.394 13.0685C456.439 11.3823 454.732 10.0438 452.744 10.2666C452.348 10.3109 451.958 10.4096 451.561 10.4079C450.592 10.4035 450.619 9.88296 450.339 9.16885C450.075 8.4961 449.774 7.8331 449.408 7.20804C448.685 5.97489 447.674 4.89654 446.3 4.37371C444.333 3.62492 442.352 3.99213 440.937 5.5589C440.286 6.27943 439.804 7.13904 439.423 8.02276C439.072 8.83749 439.055 10.3272 437.902 10.4038C437.318 10.4426 436.797 10.0625 436.235 9.90093C434.528 9.41152 432.558 9.8006 431.187 10.9102C428.778 12.8614 428.148 17.2112 430.369 19.5147C431.484 20.6712 433.011 21.3491 434.533 21.8949C438.785 23.4201 443.336 24.1322 447.859 23.9798C452.617 23.8195 459.066 20.7493 458.142 15.1388C458.027 14.444 457.768 13.7295 457.394 13.0685" fill="#B7C0EB"/>
<mask id="mask10_408_393" style="mask-type:alpha" maskUnits="userSpaceOnUse" x="429" y="4" width="30" height="20">
<path fill-rule="evenodd" clip-rule="evenodd" d="M457.394 13.0685C456.439 11.3823 454.732 10.0438 452.744 10.2666C452.348 10.3109 451.958 10.4096 451.561 10.4079C450.592 10.4035 450.619 9.88296 450.339 9.16885C450.075 8.4961 449.774 7.8331 449.408 7.20804C448.685 5.97489 447.674 4.89654 446.3 4.37371C444.333 3.62492 442.352 3.99213 440.937 5.5589C440.286 6.27943 439.804 7.13904 439.423 8.02276C439.072 8.83749 439.055 10.3272 437.902 10.4038C437.318 10.4426 436.797 10.0625 436.235 9.90093C434.528 9.41152 432.558 9.8006 431.187 10.9102C428.778 12.8614 428.148 17.2112 430.369 19.5147C431.484 20.6712 433.011 21.3491 434.533 21.8949C438.785 23.4201 443.336 24.1322 447.859 23.9798C452.617 23.8195 459.066 20.7493 458.142 15.1388C458.027 14.444 457.768 13.7295 457.394 13.0685" fill="white"/>
</mask>
<g mask="url(#mask10_408_393)">
<g style="mix-blend-mode:luminosity" opacity="0.15">
<path fill-rule="evenodd" clip-rule="evenodd" d="M426.331 6.79061C426.331 6.79061 431.592 21.7785 447.406 22.9895C463.219 24.2004 428.867 25.6088 428.867 25.6088L420.766 13.0212L426.331 6.79061Z" fill="white"/>
</g>
</g>
<path fill-rule="evenodd" clip-rule="evenodd" d="M687.394 16.0685C686.439 14.3823 684.732 13.0438 682.744 13.2666C682.348 13.3109 681.958 13.4096 681.561 13.4079C680.592 13.4035 680.619 12.883 680.339 12.1688C680.075 11.4961 679.774 10.8331 679.408 10.208C678.685 8.97489 677.674 7.89654 676.3 7.37371C674.333 6.62492 672.352 6.99213 670.937 8.5589C670.286 9.27943 669.804 10.139 669.423 11.0228C669.072 11.8375 669.055 13.3272 667.902 13.4038C667.318 13.4426 666.797 13.0625 666.235 12.9009C664.528 12.4115 662.558 12.8006 661.187 13.9102C658.778 15.8614 658.148 20.2112 660.369 22.5147C661.484 23.6712 663.011 24.3491 664.533 24.8949C668.785 26.4201 673.336 27.1322 677.859 26.9798C682.617 26.8195 689.066 23.7493 688.142 18.1388C688.027 17.444 687.768 16.7295 687.394 16.0685" fill="#B7C0EB"/>
<mask id="mask11_408_393" style="mask-type:alpha" maskUnits="userSpaceOnUse" x="659" y="7" width="30" height="20">
<path fill-rule="evenodd" clip-rule="evenodd" d="M687.394 16.0685C686.439 14.3823 684.732 13.0438 682.744 13.2666C682.348 13.3109 681.958 13.4096 681.561 13.4079C680.592 13.4035 680.619 12.883 680.339 12.1688C680.075 11.4961 679.774 10.8331 679.408 10.208C678.685 8.97489 677.674 7.89654 676.3 7.37371C674.333 6.62492 672.352 6.99213 670.937 8.5589C670.286 9.27943 669.804 10.139 669.423 11.0228C669.072 11.8375 669.055 13.3272 667.902 13.4038C667.318 13.4426 666.797 13.0625 666.235 12.9009C664.528 12.4115 662.558 12.8006 661.187 13.9102C658.778 15.8614 658.148 20.2112 660.369 22.5147C661.484 23.6712 663.011 24.3491 664.533 24.8949C668.785 26.4201 673.336 27.1322 677.859 26.9798C682.617 26.8195 689.066 23.7493 688.142 18.1388C688.027 17.444 687.768 16.7295 687.394 16.0685" fill="white"/>
</mask>
<g mask="url(#mask11_408_393)">
<g style="mix-blend-mode:luminosity" opacity="0.15">
<path fill-rule="evenodd" clip-rule="evenodd" d="M656.331 9.79061C656.331 9.79061 661.592 24.7785 677.406 25.9895C693.219 27.2004 658.867 28.6088 658.867 28.6088L650.766 16.0212L656.331 9.79061Z" fill="white"/>
</g>
</g>
<path fill-rule="evenodd" clip-rule="evenodd" d="M1287.39 23.0685C1286.44 21.3823 1284.73 20.0438 1282.74 20.2666C1282.35 20.3109 1281.96 20.4096 1281.56 20.4079C1280.59 20.4035 1280.62 19.883 1280.34 19.1688C1280.08 18.4961 1279.77 17.8331 1279.41 17.208C1278.69 15.9749 1277.67 14.8965 1276.3 14.3737C1274.33 13.6249 1272.35 13.9921 1270.94 15.5589C1270.29 16.2794 1269.8 17.139 1269.42 18.0228C1269.07 18.8375 1269.06 20.3272 1267.9 20.4038C1267.32 20.4426 1266.8 20.0625 1266.23 19.9009C1264.53 19.4115 1262.56 19.8006 1261.19 20.9102C1258.78 22.8614 1258.15 27.2112 1260.37 29.5147C1261.48 30.6712 1263.01 31.3491 1264.53 31.8949C1268.78 33.4201 1273.34 34.1322 1277.86 33.9798C1282.62 33.8195 1289.07 30.7493 1288.14 25.1388C1288.03 24.444 1287.77 23.7295 1287.39 23.0685" fill="#B7C0EB"/>
<mask id="mask12_408_393" style="mask-type:alpha" maskUnits="userSpaceOnUse" x="1259" y="14" width="30" height="20">
<path fill-rule="evenodd" clip-rule="evenodd" d="M1287.39 23.0685C1286.44 21.3823 1284.73 20.0438 1282.74 20.2666C1282.35 20.3109 1281.96 20.4096 1281.56 20.4079C1280.59 20.4035 1280.62 19.883 1280.34 19.1688C1280.08 18.4961 1279.77 17.8331 1279.41 17.208C1278.69 15.9749 1277.67 14.8965 1276.3 14.3737C1274.33 13.6249 1272.35 13.9921 1270.94 15.5589C1270.29 16.2794 1269.8 17.139 1269.42 18.0228C1269.07 18.8375 1269.06 20.3272 1267.9 20.4038C1267.32 20.4426 1266.8 20.0625 1266.23 19.9009C1264.53 19.4115 1262.56 19.8006 1261.19 20.9102C1258.78 22.8614 1258.15 27.2112 1260.37 29.5147C1261.48 30.6712 1263.01 31.3491 1264.53 31.8949C1268.78 33.4201 1273.34 34.1322 1277.86 33.9798C1282.62 33.8195 1289.07 30.7493 1288.14 25.1388C1288.03 24.444 1287.77 23.7295 1287.39 23.0685" fill="white"/>
</mask>
<g mask="url(#mask12_408_393)">
<g style="mix-blend-mode:luminosity" opacity="0.15">
<path fill-rule="evenodd" clip-rule="evenodd" d="M1256.33 16.7906C1256.33 16.7906 1261.59 31.7785 1277.41 32.9895C1293.22 34.2004 1258.87 35.6088 1258.87 35.6088L1250.77 23.0212L1256.33 16.7906Z" fill="white"/>
</g>
</g>
<path fill-rule="evenodd" clip-rule="evenodd" d="M867.394 11.0685C866.439 9.38227 864.732 8.04381 862.744 8.26662C862.348 8.31087 861.958 8.40958 861.561 8.40787C860.592 8.40353 860.619 7.88296 860.339 7.16885C860.075 6.4961 859.774 5.8331 859.408 5.20804C858.685 3.97489 857.674 2.89654 856.3 2.37371C854.333 1.62492 852.352 1.99213 850.937 3.5589C850.286 4.27943 849.804 5.13904 849.423 6.02276C849.072 6.83749 849.055 8.32722 847.902 8.4038C847.318 8.44264 846.797 8.06251 846.235 7.90093C844.528 7.41152 842.558 7.8006 841.187 8.9102C838.778 10.8614 838.148 15.2112 840.369 17.5147C841.484 18.6712 843.011 19.3491 844.533 19.8949C848.785 21.4201 853.336 22.1322 857.859 21.9798C862.617 21.8195 869.066 18.7493 868.142 13.1388C868.027 12.444 867.768 11.7295 867.394 11.0685" fill="#B7C0EB"/>
<mask id="mask13_408_393" style="mask-type:alpha" maskUnits="userSpaceOnUse" x="839" y="2" width="30" height="20">
<path fill-rule="evenodd" clip-rule="evenodd" d="M867.394 11.0685C866.439 9.38227 864.732 8.04381 862.744 8.26662C862.348 8.31087 861.958 8.40958 861.561 8.40787C860.592 8.40353 860.619 7.88296 860.339 7.16885C860.075 6.4961 859.774 5.8331 859.408 5.20804C858.685 3.97489 857.674 2.89654 856.3 2.37371C854.333 1.62492 852.352 1.99213 850.937 3.5589C850.286 4.27943 849.804 5.13904 849.423 6.02276C849.072 6.83749 849.055 8.32722 847.902 8.4038C847.318 8.44264 846.797 8.06251 846.235 7.90093C844.528 7.41152 842.558 7.8006 841.187 8.9102C838.778 10.8614 838.148 15.2112 840.369 17.5147C841.484 18.6712 843.011 19.3491 844.533 19.8949C848.785 21.4201 853.336 22.1322 857.859 21.9798C862.617 21.8195 869.066 18.7493 868.142 13.1388C868.027 12.444 867.768 11.7295 867.394 11.0685" fill="white"/>
</mask>
<g mask="url(#mask13_408_393)">
<g style="mix-blend-mode:luminosity" opacity="0.15">
<path fill-rule="evenodd" clip-rule="evenodd" d="M836.331 4.79061C836.331 4.79061 841.592 19.7785 857.406 20.9895C873.219 22.2004 838.867 23.6088 838.867 23.6088L830.766 11.0212L836.331 4.79061Z" fill="white"/>
</g>
</g>
<path fill-rule="evenodd" clip-rule="evenodd" d="M325.591 16.6028C324.159 14.0734 321.598 12.0657 318.615 12.3999C318.022 12.4663 317.437 12.6144 316.841 12.6118C315.388 12.6053 315.428 11.8244 315.008 10.7533C314.613 9.74415 314.162 8.74965 313.612 7.81206C312.528 5.96233 311.011 4.34481 308.951 3.56056C306 2.43737 303.028 2.9882 300.906 5.33835C299.929 6.41914 299.206 7.70856 298.635 9.03414C298.108 10.2562 298.083 12.4908 296.353 12.6057C295.476 12.664 294.696 12.0938 293.852 11.8514C291.292 11.1173 288.337 11.7009 286.281 13.3653C282.667 16.2921 281.723 22.8168 285.053 26.272C286.726 28.0067 289.016 29.0236 291.299 29.8424C297.677 32.1302 304.504 33.1983 311.289 32.9697C318.425 32.7293 328.098 28.1239 326.712 19.7082C326.54 18.666 326.152 17.5943 325.591 16.6028" fill="#B7C0EB"/>
<mask id="mask14_408_393" style="mask-type:alpha" maskUnits="userSpaceOnUse" x="283" y="3" width="44" height="30">
<path fill-rule="evenodd" clip-rule="evenodd" d="M325.591 16.6028C324.159 14.0734 321.598 12.0657 318.615 12.3999C318.022 12.4663 317.437 12.6144 316.841 12.6118C315.388 12.6053 315.428 11.8244 315.008 10.7533C314.613 9.74415 314.162 8.74965 313.612 7.81206C312.528 5.96233 311.011 4.34481 308.951 3.56056C306 2.43737 303.028 2.9882 300.906 5.33835C299.929 6.41914 299.206 7.70856 298.635 9.03414C298.108 10.2562 298.083 12.4908 296.353 12.6057C295.476 12.664 294.696 12.0938 293.852 11.8514C291.292 11.1173 288.337 11.7009 286.281 13.3653C282.667 16.2921 281.723 22.8168 285.053 26.272C286.726 28.0067 289.016 29.0236 291.299 29.8424C297.677 32.1302 304.504 33.1983 311.289 32.9697C318.425 32.7293 328.098 28.1239 326.712 19.7082C326.54 18.666 326.152 17.5943 325.591 16.6028" fill="white"/>
</mask>
<g mask="url(#mask14_408_393)">
<g style="mix-blend-mode:luminosity" opacity="0.15">
<path fill-rule="evenodd" clip-rule="evenodd" d="M278.996 7.18591C278.996 7.18591 286.889 29.6678 310.608 31.4842C334.328 33.3006 282.801 35.4131 282.801 35.4131L270.649 16.5318L278.996 7.18591Z" fill="white"/>
</g>
</g>
<path fill-rule="evenodd" clip-rule="evenodd" d="M555.591 23.6028C554.159 21.0734 551.598 19.0657 548.615 19.3999C548.022 19.4663 547.437 19.6144 546.841 19.6118C545.388 19.6053 545.428 18.8244 545.008 17.7533C544.613 16.7441 544.162 15.7497 543.612 14.8121C542.528 12.9623 541.011 11.3448 538.951 10.5606C536 9.43737 533.028 9.9882 530.906 12.3384C529.929 13.4191 529.206 14.7086 528.635 16.0341C528.108 17.2562 528.083 19.4908 526.353 19.6057C525.476 19.664 524.696 19.0938 523.852 18.8514C521.292 18.1173 518.337 18.7009 516.281 20.3653C512.667 23.2921 511.723 29.8168 515.053 33.272C516.726 35.0067 519.016 36.0236 521.299 36.8424C527.677 39.1302 534.504 40.1983 541.289 39.9697C548.425 39.7293 558.098 35.1239 556.712 26.7082C556.54 25.666 556.152 24.5943 555.591 23.6028" fill="#B7C0EB"/>
<mask id="mask15_408_393" style="mask-type:alpha" maskUnits="userSpaceOnUse" x="513" y="10" width="44" height="30">
<path fill-rule="evenodd" clip-rule="evenodd" d="M555.591 23.6028C554.159 21.0734 551.598 19.0657 548.615 19.3999C548.022 19.4663 547.437 19.6144 546.841 19.6118C545.388 19.6053 545.428 18.8244 545.008 17.7533C544.613 16.7441 544.162 15.7497 543.612 14.8121C542.528 12.9623 541.011 11.3448 538.951 10.5606C536 9.43737 533.028 9.9882 530.906 12.3384C529.929 13.4191 529.206 14.7086 528.635 16.0341C528.108 17.2562 528.083 19.4908 526.353 19.6057C525.476 19.664 524.696 19.0938 523.852 18.8514C521.292 18.1173 518.337 18.7009 516.281 20.3653C512.667 23.2921 511.723 29.8168 515.053 33.272C516.726 35.0067 519.016 36.0236 521.299 36.8424C527.677 39.1302 534.504 40.1983 541.289 39.9697C548.425 39.7293 558.098 35.1239 556.712 26.7082C556.54 25.666 556.152 24.5943 555.591 23.6028" fill="white"/>
</mask>
<g mask="url(#mask15_408_393)">
<g style="mix-blend-mode:luminosity" opacity="0.15">
<path fill-rule="evenodd" clip-rule="evenodd" d="M508.996 14.1859C508.996 14.1859 516.889 36.6678 540.608 38.4842C564.328 40.3006 512.801 42.4131 512.801 42.4131L500.649 23.5318L508.996 14.1859Z" fill="white"/>
</g>
</g>
<path fill-rule="evenodd" clip-rule="evenodd" d="M1137.59 72.6028C1136.16 70.0734 1133.6 68.0657 1130.62 68.3999C1130.02 68.4663 1129.44 68.6144 1128.84 68.6118C1127.39 68.6053 1127.43 67.8244 1127.01 66.7533C1126.61 65.7441 1126.16 64.7497 1125.61 63.8121C1124.53 61.9623 1123.01 60.3448 1120.95 59.5606C1118 58.4374 1115.03 58.9882 1112.91 61.3384C1111.93 62.4191 1111.21 63.7086 1110.64 65.0341C1110.11 66.2562 1110.08 68.4908 1108.35 68.6057C1107.48 68.664 1106.7 68.0938 1105.85 67.8514C1103.29 67.1173 1100.34 67.7009 1098.28 69.3653C1094.67 72.2921 1093.72 78.8168 1097.05 82.272C1098.73 84.0067 1101.02 85.0236 1103.3 85.8424C1109.68 88.1302 1116.5 89.1983 1123.29 88.9697C1130.43 88.7293 1140.1 84.1239 1138.71 75.7082C1138.54 74.666 1138.15 73.5943 1137.59 72.6028" fill="#B7C0EB"/>
<mask id="mask16_408_393" style="mask-type:alpha" maskUnits="userSpaceOnUse" x="1095" y="59" width="44" height="30">
<path fill-rule="evenodd" clip-rule="evenodd" d="M1137.59 72.6028C1136.16 70.0734 1133.6 68.0657 1130.62 68.3999C1130.02 68.4663 1129.44 68.6144 1128.84 68.6118C1127.39 68.6053 1127.43 67.8244 1127.01 66.7533C1126.61 65.7441 1126.16 64.7497 1125.61 63.8121C1124.53 61.9623 1123.01 60.3448 1120.95 59.5606C1118 58.4374 1115.03 58.9882 1112.91 61.3384C1111.93 62.4191 1111.21 63.7086 1110.64 65.0341C1110.11 66.2562 1110.08 68.4908 1108.35 68.6057C1107.48 68.664 1106.7 68.0938 1105.85 67.8514C1103.29 67.1173 1100.34 67.7009 1098.28 69.3653C1094.67 72.2921 1093.72 78.8168 1097.05 82.272C1098.73 84.0067 1101.02 85.0236 1103.3 85.8424C1109.68 88.1302 1116.5 89.1983 1123.29 88.9697C1130.43 88.7293 1140.1 84.1239 1138.71 75.7082C1138.54 74.666 1138.15 73.5943 1137.59 72.6028" fill="white"/>
</mask>
<g mask="url(#mask16_408_393)">
<g style="mix-blend-mode:luminosity" opacity="0.15">
<path fill-rule="evenodd" clip-rule="evenodd" d="M1091 63.1859C1091 63.1859 1098.89 85.6678 1122.61 87.4842C1146.33 89.3006 1094.8 91.4131 1094.8 91.4131L1082.65 72.5318L1091 63.1859Z" fill="white"/>
</g>
</g>
<path fill-rule="evenodd" clip-rule="evenodd" d="M1268.59 62.6028C1267.16 60.0734 1264.6 58.0657 1261.62 58.3999C1261.02 58.4663 1260.44 58.6144 1259.84 58.6118C1258.39 58.6053 1258.43 57.8244 1258.01 56.7533C1257.61 55.7441 1257.16 54.7497 1256.61 53.8121C1255.53 51.9623 1254.01 50.3448 1251.95 49.5606C1249 48.4374 1246.03 48.9882 1243.91 51.3384C1242.93 52.4191 1242.21 53.7086 1241.64 55.0341C1241.11 56.2562 1241.08 58.4908 1239.35 58.6057C1238.48 58.664 1237.7 58.0938 1236.85 57.8514C1234.29 57.1173 1231.34 57.7009 1229.28 59.3653C1225.67 62.2921 1224.72 68.8168 1228.05 72.272C1229.73 74.0067 1232.02 75.0236 1234.3 75.8424C1240.68 78.1302 1247.5 79.1983 1254.29 78.9697C1261.43 78.7293 1271.1 74.1239 1269.71 65.7082C1269.54 64.666 1269.15 63.5943 1268.59 62.6028" fill="#B7C0EB"/>
<mask id="mask17_408_393" style="mask-type:alpha" maskUnits="userSpaceOnUse" x="1226" y="49" width="44" height="30">
<path fill-rule="evenodd" clip-rule="evenodd" d="M1268.59 62.6028C1267.16 60.0734 1264.6 58.0657 1261.62 58.3999C1261.02 58.4663 1260.44 58.6144 1259.84 58.6118C1258.39 58.6053 1258.43 57.8244 1258.01 56.7533C1257.61 55.7441 1257.16 54.7497 1256.61 53.8121C1255.53 51.9623 1254.01 50.3448 1251.95 49.5606C1249 48.4374 1246.03 48.9882 1243.91 51.3384C1242.93 52.4191 1242.21 53.7086 1241.64 55.0341C1241.11 56.2562 1241.08 58.4908 1239.35 58.6057C1238.48 58.664 1237.7 58.0938 1236.85 57.8514C1234.29 57.1173 1231.34 57.7009 1229.28 59.3653C1225.67 62.2921 1224.72 68.8168 1228.05 72.272C1229.73 74.0067 1232.02 75.0236 1234.3 75.8424C1240.68 78.1302 1247.5 79.1983 1254.29 78.9697C1261.43 78.7293 1271.1 74.1239 1269.71 65.7082C1269.54 64.666 1269.15 63.5943 1268.59 62.6028" fill="white"/>
</mask>
<g mask="url(#mask17_408_393)">
<g style="mix-blend-mode:luminosity" opacity="0.15">
<path fill-rule="evenodd" clip-rule="evenodd" d="M1222 53.1859C1222 53.1859 1229.89 75.6678 1253.61 77.4842C1277.33 79.3006 1225.8 81.4131 1225.8 81.4131L1213.65 62.5318L1222 53.1859Z" fill="white"/>
</g>
</g>
<path fill-rule="evenodd" clip-rule="evenodd" d="M1395.59 19.6028C1394.16 17.0734 1391.6 15.0657 1388.62 15.3999C1388.02 15.4663 1387.44 15.6144 1386.84 15.6118C1385.39 15.6053 1385.43 14.8244 1385.01 13.7533C1384.61 12.7441 1384.16 11.7497 1383.61 10.8121C1382.53 8.96233 1381.01 7.34481 1378.95 6.56056C1376 5.43737 1373.03 5.9882 1370.91 8.33835C1369.93 9.41914 1369.21 10.7086 1368.64 12.0341C1368.11 13.2562 1368.08 15.4908 1366.35 15.6057C1365.48 15.664 1364.7 15.0938 1363.85 14.8514C1361.29 14.1173 1358.34 14.7009 1356.28 16.3653C1352.67 19.2921 1351.72 25.8168 1355.05 29.272C1356.73 31.0067 1359.02 32.0236 1361.3 32.8424C1367.68 35.1302 1374.5 36.1983 1381.29 35.9697C1388.43 35.7293 1398.1 31.1239 1396.71 22.7082C1396.54 21.666 1396.15 20.5943 1395.59 19.6028" fill="#B7C0EB"/>
<mask id="mask18_408_393" style="mask-type:alpha" maskUnits="userSpaceOnUse" x="1353" y="6" width="44" height="30">
<path fill-rule="evenodd" clip-rule="evenodd" d="M1395.59 19.6028C1394.16 17.0734 1391.6 15.0657 1388.62 15.3999C1388.02 15.4663 1387.44 15.6144 1386.84 15.6118C1385.39 15.6053 1385.43 14.8244 1385.01 13.7533C1384.61 12.7441 1384.16 11.7497 1383.61 10.8121C1382.53 8.96233 1381.01 7.34481 1378.95 6.56056C1376 5.43737 1373.03 5.9882 1370.91 8.33835C1369.93 9.41914 1369.21 10.7086 1368.64 12.0341C1368.11 13.2562 1368.08 15.4908 1366.35 15.6057C1365.48 15.664 1364.7 15.0938 1363.85 14.8514C1361.29 14.1173 1358.34 14.7009 1356.28 16.3653C1352.67 19.2921 1351.72 25.8168 1355.05 29.272C1356.73 31.0067 1359.02 32.0236 1361.3 32.8424C1367.68 35.1302 1374.5 36.1983 1381.29 35.9697C1388.43 35.7293 1398.1 31.1239 1396.71 22.7082C1396.54 21.666 1396.15 20.5943 1395.59 19.6028" fill="white"/>
</mask>
<g mask="url(#mask18_408_393)">
<g style="mix-blend-mode:luminosity" opacity="0.15">
<path fill-rule="evenodd" clip-rule="evenodd" d="M1349 10.1859C1349 10.1859 1356.89 32.6678 1380.61 34.4842C1404.33 36.3006 1352.8 38.4131 1352.8 38.4131L1340.65 19.5318L1349 10.1859Z" fill="white"/>
</g>
</g>
<path fill-rule="evenodd" clip-rule="evenodd" d="M253.591 40.6028C252.159 38.0734 249.598 36.0657 246.615 36.3999C246.022 36.4663 245.437 36.6144 244.841 36.6118C243.388 36.6053 243.428 35.8244 243.008 34.7533C242.613 33.7441 242.162 32.7497 241.612 31.8121C240.528 29.9623 239.011 28.3448 236.951 27.5606C234 26.4374 231.028 26.9882 228.906 29.3384C227.929 30.4191 227.206 31.7086 226.635 33.0341C226.108 34.2562 226.083 36.4908 224.353 36.6057C223.476 36.664 222.696 36.0938 221.852 35.8514C219.292 35.1173 216.337 35.7009 214.281 37.3653C210.667 40.2921 209.723 46.8168 213.053 50.272C214.726 52.0067 217.016 53.0236 219.299 53.8424C225.677 56.1302 232.504 57.1983 239.289 56.9697C246.425 56.7293 256.098 52.1239 254.712 43.7082C254.54 42.666 254.152 41.5943 253.591 40.6028" fill="#B7C0EB"/>
<mask id="mask19_408_393" style="mask-type:alpha" maskUnits="userSpaceOnUse" x="211" y="27" width="44" height="30">
<path fill-rule="evenodd" clip-rule="evenodd" d="M253.591 40.6028C252.159 38.0734 249.598 36.0657 246.615 36.3999C246.022 36.4663 245.437 36.6144 244.841 36.6118C243.388 36.6053 243.428 35.8244 243.008 34.7533C242.613 33.7441 242.162 32.7497 241.612 31.8121C240.528 29.9623 239.011 28.3448 236.951 27.5606C234 26.4374 231.028 26.9882 228.906 29.3384C227.929 30.4191 227.206 31.7086 226.635 33.0341C226.108 34.2562 226.083 36.4908 224.353 36.6057C223.476 36.664 222.696 36.0938 221.852 35.8514C219.292 35.1173 216.337 35.7009 214.281 37.3653C210.667 40.2921 209.723 46.8168 213.053 50.272C214.726 52.0067 217.016 53.0236 219.299 53.8424C225.677 56.1302 232.504 57.1983 239.289 56.9697C246.425 56.7293 256.098 52.1239 254.712 43.7082C254.54 42.666 254.152 41.5943 253.591 40.6028" fill="white"/>
</mask>
<g mask="url(#mask19_408_393)">
<g style="mix-blend-mode:luminosity" opacity="0.15">
<path fill-rule="evenodd" clip-rule="evenodd" d="M206.996 31.1859C206.996 31.1859 214.889 53.6678 238.608 55.4842C262.328 57.3006 210.801 59.4131 210.801 59.4131L198.649 40.5318L206.996 31.1859Z" fill="white"/>
</g>
</g>
<path fill-rule="evenodd" clip-rule="evenodd" d="M500.591 57.6028C499.159 55.0734 496.598 53.0657 493.615 53.3999C493.022 53.4663 492.437 53.6144 491.841 53.6118C490.388 53.6053 490.428 52.8244 490.008 51.7533C489.613 50.7441 489.162 49.7497 488.612 48.8121C487.528 46.9623 486.011 45.3448 483.951 44.5606C481 43.4374 478.028 43.9882 475.906 46.3384C474.929 47.4191 474.206 48.7086 473.635 50.0341C473.108 51.2562 473.083 53.4908 471.353 53.6057C470.476 53.664 469.696 53.0938 468.852 52.8514C466.292 52.1173 463.337 52.7009 461.281 54.3653C457.667 57.2921 456.723 63.8168 460.053 67.272C461.726 69.0067 464.016 70.0236 466.299 70.8424C472.677 73.1302 479.504 74.1983 486.289 73.9697C493.425 73.7293 503.098 69.1239 501.712 60.7082C501.54 59.666 501.152 58.5943 500.591 57.6028" fill="#B7C0EB"/>
<mask id="mask20_408_393" style="mask-type:alpha" maskUnits="userSpaceOnUse" x="458" y="44" width="44" height="30">
<path fill-rule="evenodd" clip-rule="evenodd" d="M500.591 57.6028C499.159 55.0734 496.598 53.0657 493.615 53.3999C493.022 53.4663 492.437 53.6144 491.841 53.6118C490.388 53.6053 490.428 52.8244 490.008 51.7533C489.613 50.7441 489.162 49.7497 488.612 48.8121C487.528 46.9623 486.011 45.3448 483.951 44.5606C481 43.4374 478.028 43.9882 475.906 46.3384C474.929 47.4191 474.206 48.7086 473.635 50.0341C473.108 51.2562 473.083 53.4908 471.353 53.6057C470.476 53.664 469.696 53.0938 468.852 52.8514C466.292 52.1173 463.337 52.7009 461.281 54.3653C457.667 57.2921 456.723 63.8168 460.053 67.272C461.726 69.0067 464.016 70.0236 466.299 70.8424C472.677 73.1302 479.504 74.1983 486.289 73.9697C493.425 73.7293 503.098 69.1239 501.712 60.7082C501.54 59.666 501.152 58.5943 500.591 57.6028" fill="white"/>
</mask>
<g mask="url(#mask20_408_393)">
<g style="mix-blend-mode:luminosity" opacity="0.15">
<path fill-rule="evenodd" clip-rule="evenodd" d="M453.996 48.1859C453.996 48.1859 461.889 70.6678 485.608 72.4842C509.328 74.3006 457.801 76.4131 457.801 76.4131L445.649 57.5318L453.996 48.1859Z" fill="white"/>
</g>
</g>
<path fill-rule="evenodd" clip-rule="evenodd" d="M63.5906 20.6028C62.1592 18.0734 59.5979 16.0657 56.6154 16.3999C56.0222 16.4663 55.4372 16.6144 54.8413 16.6118C53.3879 16.6053 53.4278 15.8244 53.008 14.7533C52.613 13.7441 52.1615 12.7497 51.6124 11.8121C50.5278 9.96233 49.0111 8.34481 46.9507 7.56056C43.9999 6.43737 41.0284 6.9882 38.9061 9.33835C37.9289 10.4191 37.2063 11.7086 36.6351 13.0341C36.108 14.2562 36.0832 16.4908 34.3532 16.6057C33.4764 16.664 32.696 16.0938 31.8524 15.8514C29.2924 15.1173 26.3374 15.7009 24.2811 17.3653C20.6669 20.2921 19.7227 26.8168 23.0535 30.272C24.7257 32.0067 27.0159 33.0236 29.2993 33.8424C35.6772 36.1302 42.5038 37.1983 49.2891 36.9697C56.4254 36.7293 66.0983 32.1239 64.7123 23.7082C64.5403 22.666 64.1522 21.5943 63.5906 20.6028" fill="#B7C0EB"/>
<mask id="mask21_408_393" style="mask-type:alpha" maskUnits="userSpaceOnUse" x="21" y="7" width="44" height="30">
<path fill-rule="evenodd" clip-rule="evenodd" d="M63.5906 20.6028C62.1592 18.0734 59.5979 16.0657 56.6154 16.3999C56.0222 16.4663 55.4372 16.6144 54.8413 16.6118C53.3879 16.6053 53.4278 15.8244 53.008 14.7533C52.613 13.7441 52.1615 12.7497 51.6124 11.8121C50.5278 9.96233 49.0111 8.34481 46.9507 7.56056C43.9999 6.43737 41.0284 6.9882 38.9061 9.33835C37.9289 10.4191 37.2063 11.7086 36.6351 13.0341C36.108 14.2562 36.0832 16.4908 34.3532 16.6057C33.4764 16.664 32.696 16.0938 31.8524 15.8514C29.2924 15.1173 26.3374 15.7009 24.2811 17.3653C20.6669 20.2921 19.7227 26.8168 23.0535 30.272C24.7257 32.0067 27.0159 33.0236 29.2993 33.8424C35.6772 36.1302 42.5038 37.1983 49.2891 36.9697C56.4254 36.7293 66.0983 32.1239 64.7123 23.7082C64.5403 22.666 64.1522 21.5943 63.5906 20.6028" fill="white"/>
</mask>
<g mask="url(#mask21_408_393)">
<g style="mix-blend-mode:luminosity" opacity="0.15">
<path fill-rule="evenodd" clip-rule="evenodd" d="M16.996 11.1859C16.996 11.1859 24.8886 33.6678 48.6083 35.4842C72.3281 37.3006 20.8011 39.4131 20.8011 39.4131L8.64863 20.5318L16.996 11.1859Z" fill="white"/>
</g>
</g>
<path fill-rule="evenodd" clip-rule="evenodd" d="M736.591 62.6028C735.159 60.0734 732.598 58.0657 729.615 58.3999C729.022 58.4663 728.437 58.6144 727.841 58.6118C726.388 58.6053 726.428 57.8244 726.008 56.7533C725.613 55.7441 725.162 54.7497 724.612 53.8121C723.528 51.9623 722.011 50.3448 719.951 49.5606C717 48.4374 714.028 48.9882 711.906 51.3384C710.929 52.4191 710.206 53.7086 709.635 55.0341C709.108 56.2562 709.083 58.4908 707.353 58.6057C706.476 58.664 705.696 58.0938 704.852 57.8514C702.292 57.1173 699.337 57.7009 697.281 59.3653C693.667 62.2921 692.723 68.8168 696.053 72.272C697.726 74.0067 700.016 75.0236 702.299 75.8424C708.677 78.1302 715.504 79.1983 722.289 78.9697C729.425 78.7293 739.098 74.1239 737.712 65.7082C737.54 64.666 737.152 63.5943 736.591 62.6028" fill="#B7C0EB"/>
<mask id="mask22_408_393" style="mask-type:alpha" maskUnits="userSpaceOnUse" x="694" y="49" width="44" height="30">
<path fill-rule="evenodd" clip-rule="evenodd" d="M736.591 62.6028C735.159 60.0734 732.598 58.0657 729.615 58.3999C729.022 58.4663 728.437 58.6144 727.841 58.6118C726.388 58.6053 726.428 57.8244 726.008 56.7533C725.613 55.7441 725.162 54.7497 724.612 53.8121C723.528 51.9623 722.011 50.3448 719.951 49.5606C717 48.4374 714.028 48.9882 711.906 51.3384C710.929 52.4191 710.206 53.7086 709.635 55.0341C709.108 56.2562 709.083 58.4908 707.353 58.6057C706.476 58.664 705.696 58.0938 704.852 57.8514C702.292 57.1173 699.337 57.7009 697.281 59.3653C693.667 62.2921 692.723 68.8168 696.053 72.272C697.726 74.0067 700.016 75.0236 702.299 75.8424C708.677 78.1302 715.504 79.1983 722.289 78.9697C729.425 78.7293 739.098 74.1239 737.712 65.7082C737.54 64.666 737.152 63.5943 736.591 62.6028" fill="white"/>
</mask>
<g mask="url(#mask22_408_393)">
<g style="mix-blend-mode:luminosity" opacity="0.15">
<path fill-rule="evenodd" clip-rule="evenodd" d="M689.996 53.1859C689.996 53.1859 697.889 75.6678 721.608 77.4842C745.328 79.3006 693.801 81.4131 693.801 81.4131L681.649 62.5318L689.996 53.1859Z" fill="white"/>
</g>
</g>
<path fill-rule="evenodd" clip-rule="evenodd" d="M910.591 55.6028C909.159 53.0734 906.598 51.0657 903.615 51.3999C903.022 51.4663 902.437 51.6144 901.841 51.6118C900.388 51.6053 900.428 50.8244 900.008 49.7533C899.613 48.7441 899.162 47.7497 898.612 46.8121C897.528 44.9623 896.011 43.3448 893.951 42.5606C891 41.4374 888.028 41.9882 885.906 44.3384C884.929 45.4191 884.206 46.7086 883.635 48.0341C883.108 49.2562 883.083 51.4908 881.353 51.6057C880.476 51.664 879.696 51.0938 878.852 50.8514C876.292 50.1173 873.337 50.7009 871.281 52.3653C867.667 55.2921 866.723 61.8168 870.053 65.272C871.726 67.0067 874.016 68.0236 876.299 68.8424C882.677 71.1302 889.504 72.1983 896.289 71.9697C903.425 71.7293 913.098 67.1239 911.712 58.7082C911.54 57.666 911.152 56.5943 910.591 55.6028" fill="#B7C0EB"/>
<mask id="mask23_408_393" style="mask-type:alpha" maskUnits="userSpaceOnUse" x="868" y="42" width="44" height="30">
<path fill-rule="evenodd" clip-rule="evenodd" d="M910.591 55.6028C909.159 53.0734 906.598 51.0657 903.615 51.3999C903.022 51.4663 902.437 51.6144 901.841 51.6118C900.388 51.6053 900.428 50.8244 900.008 49.7533C899.613 48.7441 899.162 47.7497 898.612 46.8121C897.528 44.9623 896.011 43.3448 893.951 42.5606C891 41.4374 888.028 41.9882 885.906 44.3384C884.929 45.4191 884.206 46.7086 883.635 48.0341C883.108 49.2562 883.083 51.4908 881.353 51.6057C880.476 51.664 879.696 51.0938 878.852 50.8514C876.292 50.1173 873.337 50.7009 871.281 52.3653C867.667 55.2921 866.723 61.8168 870.053 65.272C871.726 67.0067 874.016 68.0236 876.299 68.8424C882.677 71.1302 889.504 72.1983 896.289 71.9697C903.425 71.7293 913.098 67.1239 911.712 58.7082C911.54 57.666 911.152 56.5943 910.591 55.6028" fill="white"/>
</mask>
<g mask="url(#mask23_408_393)">
<g style="mix-blend-mode:luminosity" opacity="0.15">
<path fill-rule="evenodd" clip-rule="evenodd" d="M863.996 46.1859C863.996 46.1859 871.889 68.6678 895.608 70.4842C919.328 72.3006 867.801 74.4131 867.801 74.4131L855.649 55.5318L863.996 46.1859Z" fill="white"/>
</g>
</g>
<path fill-rule="evenodd" clip-rule="evenodd" d="M1073.59 37.6028C1072.16 35.0734 1069.6 33.0657 1066.62 33.3999C1066.02 33.4663 1065.44 33.6144 1064.84 33.6118C1063.39 33.6053 1063.43 32.8244 1063.01 31.7533C1062.61 30.7441 1062.16 29.7497 1061.61 28.8121C1060.53 26.9623 1059.01 25.3448 1056.95 24.5606C1054 23.4374 1051.03 23.9882 1048.91 26.3384C1047.93 27.4191 1047.21 28.7086 1046.64 30.0341C1046.11 31.2562 1046.08 33.4908 1044.35 33.6057C1043.48 33.664 1042.7 33.0938 1041.85 32.8514C1039.29 32.1173 1036.34 32.7009 1034.28 34.3653C1030.67 37.2921 1029.72 43.8168 1033.05 47.272C1034.73 49.0067 1037.02 50.0236 1039.3 50.8424C1045.68 53.1302 1052.5 54.1983 1059.29 53.9697C1066.43 53.7293 1076.1 49.1239 1074.71 40.7082C1074.54 39.666 1074.15 38.5943 1073.59 37.6028" fill="#B7C0EB"/>
<mask id="mask24_408_393" style="mask-type:alpha" maskUnits="userSpaceOnUse" x="1031" y="24" width="44" height="30">
<path fill-rule="evenodd" clip-rule="evenodd" d="M1073.59 37.6028C1072.16 35.0734 1069.6 33.0657 1066.62 33.3999C1066.02 33.4663 1065.44 33.6144 1064.84 33.6118C1063.39 33.6053 1063.43 32.8244 1063.01 31.7533C1062.61 30.7441 1062.16 29.7497 1061.61 28.8121C1060.53 26.9623 1059.01 25.3448 1056.95 24.5606C1054 23.4374 1051.03 23.9882 1048.91 26.3384C1047.93 27.4191 1047.21 28.7086 1046.64 30.0341C1046.11 31.2562 1046.08 33.4908 1044.35 33.6057C1043.48 33.664 1042.7 33.0938 1041.85 32.8514C1039.29 32.1173 1036.34 32.7009 1034.28 34.3653C1030.67 37.2921 1029.72 43.8168 1033.05 47.272C1034.73 49.0067 1037.02 50.0236 1039.3 50.8424C1045.68 53.1302 1052.5 54.1983 1059.29 53.9697C1066.43 53.7293 1076.1 49.1239 1074.71 40.7082C1074.54 39.666 1074.15 38.5943 1073.59 37.6028" fill="white"/>
</mask>
<g mask="url(#mask24_408_393)">
<g style="mix-blend-mode:luminosity" opacity="0.15">
<path fill-rule="evenodd" clip-rule="evenodd" d="M1027 28.1859C1027 28.1859 1034.89 50.6678 1058.61 52.4842C1082.33 54.3006 1030.8 56.4131 1030.8 56.4131L1018.65 37.5318L1027 28.1859Z" fill="white"/>
</g>
</g>
</svg>
