<svg width="321" height="87" viewBox="0 0 321 87" fill="none" xmlns="http://www.w3.org/2000/svg">
<path fill-rule="evenodd" clip-rule="evenodd" d="M259.243 39.0316C256.715 34.563 252.19 31.0161 246.92 31.6065C245.872 31.7238 244.839 31.9854 243.786 31.9808C241.219 31.9694 241.289 30.5898 240.547 28.6974C239.85 26.9147 239.052 25.1577 238.082 23.5013C236.166 20.2335 233.486 17.3758 229.846 15.9903C224.633 14.006 219.383 14.9792 215.634 19.1311C213.908 21.0405 212.631 23.3185 211.622 25.6603C210.691 27.8193 210.647 31.7671 207.591 31.9701C206.042 32.073 204.663 31.0656 203.172 30.6375C198.65 29.3405 193.429 30.3716 189.797 33.312C183.412 38.4828 181.743 50.0098 187.628 56.1139C190.582 59.1786 194.628 60.975 198.662 62.4215C209.93 66.4634 221.99 68.3503 233.977 67.9465C246.585 67.5217 263.674 59.3856 261.225 44.5178C260.921 42.6766 260.235 40.7833 259.243 39.0316Z" fill="#B7C0EB"/>
<mask id="mask0_401_2" style="mask-type:alpha" maskUnits="userSpaceOnUse" x="184" y="15" width="78" height="53">
<path fill-rule="evenodd" clip-rule="evenodd" d="M259.243 39.0316C256.715 34.563 252.19 31.0161 246.92 31.6065C245.872 31.7238 244.839 31.9854 243.786 31.9808C241.219 31.9694 241.289 30.5898 240.547 28.6974C239.85 26.9147 239.052 25.1577 238.082 23.5013C236.166 20.2335 233.486 17.3758 229.846 15.9903C224.633 14.006 219.383 14.9792 215.634 19.1311C213.908 21.0405 212.631 23.3185 211.622 25.6603C210.691 27.8193 210.647 31.7671 207.591 31.9701C206.042 32.073 204.663 31.0656 203.172 30.6375C198.65 29.3405 193.429 30.3716 189.797 33.312C183.412 38.4828 181.743 50.0098 187.628 56.1139C190.582 59.1786 194.628 60.975 198.662 62.4215C209.93 66.4634 221.99 68.3503 233.977 67.9465C246.585 67.5217 263.674 59.3856 261.225 44.5178C260.921 42.6766 260.235 40.7833 259.243 39.0316Z" fill="white"/>
</mask>
<g mask="url(#mask0_401_2)">
<g style="mix-blend-mode:luminosity" opacity="0.15">
<path fill-rule="evenodd" clip-rule="evenodd" d="M176.926 22.3951C176.926 22.3951 190.87 62.113 232.775 65.322C274.68 68.531 183.649 72.2632 183.649 72.2632L162.179 38.9061L176.926 22.3951Z" fill="white"/>
</g>
</g>
<path fill-rule="evenodd" clip-rule="evenodd" d="M150.394 57.0685C149.439 55.3823 147.732 54.0438 145.744 54.2666C145.348 54.3109 144.958 54.4096 144.561 54.4079C143.592 54.4035 143.619 53.883 143.339 53.1688C143.075 52.4961 142.774 51.8331 142.408 51.208C141.685 49.9749 140.674 48.8965 139.3 48.3737C137.333 47.6249 135.352 47.9921 133.937 49.5589C133.286 50.2794 132.804 51.139 132.423 52.0228C132.072 52.8375 132.055 54.3272 130.902 54.4038C130.318 54.4426 129.797 54.0625 129.235 53.9009C127.528 53.4115 125.558 53.8006 124.187 54.9102C121.778 56.8614 121.148 61.2112 123.369 63.5147C124.484 64.6712 126.011 65.3491 127.533 65.8949C131.785 67.4201 136.336 68.1322 140.859 67.9798C145.617 67.8195 152.066 64.7493 151.142 59.1388C151.027 58.444 150.768 57.7295 150.394 57.0685Z" fill="#B7C0EB"/>
<mask id="mask1_401_2" style="mask-type:alpha" maskUnits="userSpaceOnUse" x="122" y="48" width="30" height="20">
<path fill-rule="evenodd" clip-rule="evenodd" d="M150.394 57.0685C149.439 55.3823 147.732 54.0438 145.744 54.2666C145.348 54.3109 144.958 54.4096 144.561 54.4079C143.592 54.4035 143.619 53.883 143.339 53.1688C143.075 52.4961 142.774 51.8331 142.408 51.208C141.685 49.9749 140.674 48.8965 139.3 48.3737C137.333 47.6249 135.352 47.9921 133.937 49.5589C133.286 50.2794 132.804 51.139 132.423 52.0228C132.072 52.8375 132.055 54.3272 130.902 54.4038C130.318 54.4426 129.797 54.0625 129.235 53.9009C127.528 53.4115 125.558 53.8006 124.187 54.9102C121.778 56.8614 121.148 61.2112 123.369 63.5147C124.484 64.6712 126.011 65.3491 127.533 65.8949C131.785 67.4201 136.336 68.1322 140.859 67.9798C145.617 67.8195 152.066 64.7493 151.142 59.1388C151.027 58.444 150.768 57.7295 150.394 57.0685Z" fill="white"/>
</mask>
<g mask="url(#mask1_401_2)">
<g style="mix-blend-mode:luminosity" opacity="0.15">
<path fill-rule="evenodd" clip-rule="evenodd" d="M119.331 50.7906C119.331 50.7906 124.592 65.7785 140.406 66.9895C156.219 68.2004 121.867 69.6088 121.867 69.6088L113.766 57.0212L119.331 50.7906Z" fill="white"/>
</g>
</g>
<path fill-rule="evenodd" clip-rule="evenodd" d="M319.591 70.6028C318.159 68.0734 315.598 66.0657 312.615 66.3999C312.022 66.4663 311.437 66.6144 310.841 66.6118C309.388 66.6053 309.428 65.8244 309.008 64.7533C308.613 63.7441 308.162 62.7497 307.612 61.8121C306.528 59.9623 305.011 58.3448 302.951 57.5606C300 56.4374 297.028 56.9882 294.906 59.3384C293.929 60.4191 293.206 61.7086 292.635 63.0341C292.108 64.2562 292.083 66.4908 290.353 66.6057C289.476 66.664 288.696 66.0938 287.852 65.8514C285.292 65.1173 282.337 65.7009 280.281 67.3653C276.667 70.2921 275.723 76.8168 279.053 80.272C280.726 82.0067 283.016 83.0236 285.299 83.8424C291.677 86.1302 298.504 87.1983 305.289 86.9697C312.425 86.7293 322.098 82.1239 320.712 73.7082C320.54 72.666 320.152 71.5943 319.591 70.6028Z" fill="#B7C0EB"/>
<mask id="mask2_401_2" style="mask-type:alpha" maskUnits="userSpaceOnUse" x="277" y="57" width="44" height="30">
<path fill-rule="evenodd" clip-rule="evenodd" d="M319.591 70.6028C318.159 68.0734 315.598 66.0657 312.615 66.3999C312.022 66.4663 311.437 66.6144 310.841 66.6118C309.388 66.6053 309.428 65.8244 309.008 64.7533C308.613 63.7441 308.162 62.7497 307.612 61.8121C306.528 59.9623 305.011 58.3448 302.951 57.5606C300 56.4374 297.028 56.9882 294.906 59.3384C293.929 60.4191 293.206 61.7086 292.635 63.0341C292.108 64.2562 292.083 66.4908 290.353 66.6057C289.476 66.664 288.696 66.0938 287.852 65.8514C285.292 65.1173 282.337 65.7009 280.281 67.3653C276.667 70.2921 275.723 76.8168 279.053 80.272C280.726 82.0067 283.016 83.0236 285.299 83.8424C291.677 86.1302 298.504 87.1983 305.289 86.9697C312.425 86.7293 322.098 82.1239 320.712 73.7082C320.54 72.666 320.152 71.5943 319.591 70.6028Z" fill="white"/>
</mask>
<g mask="url(#mask2_401_2)">
<g style="mix-blend-mode:luminosity" opacity="0.15">
<path fill-rule="evenodd" clip-rule="evenodd" d="M272.996 61.1859C272.996 61.1859 280.889 83.6678 304.608 85.4842C328.328 87.3006 276.801 89.4131 276.801 89.4131L264.649 70.5318L272.996 61.1859Z" fill="white"/>
</g>
</g>
<path fill-rule="evenodd" clip-rule="evenodd" d="M38.5906 13.6028C37.1592 11.0734 34.5979 9.06572 31.6154 9.39992C31.0222 9.46631 30.4372 9.61438 29.8413 9.6118C28.3879 9.6053 28.4278 8.82444 28.008 7.75327C27.613 6.74415 27.1615 5.74965 26.6124 4.81206C25.5278 2.96233 24.0111 1.34481 21.9507 0.560565C18.9999 -0.562627 16.0284 -0.0118013 13.9061 2.33835C12.9289 3.41914 12.2063 4.70856 11.6351 6.03414C11.108 7.25623 11.0832 9.49083 9.35315 9.60571C8.47643 9.66396 7.69605 9.09376 6.85235 8.8514C4.29237 8.11728 1.33738 8.70089 -0.71886 10.3653C-4.33311 13.2921 -5.27728 19.8168 -1.94655 23.272C-0.274304 25.0067 2.01592 26.0236 4.29925 26.8424C10.6772 29.1302 17.5038 30.1983 24.2891 29.9697C31.4254 29.7293 41.0983 25.1239 39.7123 16.7082C39.5403 15.666 39.1522 14.5943 38.5906 13.6028Z" fill="#B7C0EB"/>
<mask id="mask3_401_2" style="mask-type:alpha" maskUnits="userSpaceOnUse" x="-4" y="0" width="44" height="30">
<path fill-rule="evenodd" clip-rule="evenodd" d="M38.5906 13.6028C37.1592 11.0734 34.5979 9.06572 31.6154 9.39992C31.0222 9.46631 30.4372 9.61438 29.8413 9.6118C28.3879 9.6053 28.4278 8.82444 28.008 7.75327C27.613 6.74415 27.1615 5.74965 26.6124 4.81206C25.5278 2.96233 24.0111 1.34481 21.9507 0.560565C18.9999 -0.562627 16.0284 -0.0118013 13.9061 2.33835C12.9289 3.41914 12.2063 4.70856 11.6351 6.03414C11.108 7.25623 11.0832 9.49083 9.35315 9.60571C8.47643 9.66396 7.69605 9.09376 6.85235 8.8514C4.29237 8.11728 1.33738 8.70089 -0.71886 10.3653C-4.33311 13.2921 -5.27728 19.8168 -1.94655 23.272C-0.274304 25.0067 2.01592 26.0236 4.29925 26.8424C10.6772 29.1302 17.5038 30.1983 24.2891 29.9697C31.4254 29.7293 41.0983 25.1239 39.7123 16.7082C39.5403 15.666 39.1522 14.5943 38.5906 13.6028Z" fill="white"/>
</mask>
<g mask="url(#mask3_401_2)">
<g style="mix-blend-mode:luminosity" opacity="0.15">
<path fill-rule="evenodd" clip-rule="evenodd" d="M-8.00397 4.18591C-8.00397 4.18591 -0.111407 26.6678 23.6083 28.4842C47.3281 30.3006 -4.1989 32.4131 -4.1989 32.4131L-16.3514 13.5318L-8.00397 4.18591Z" fill="white"/>
</g>
</g>
</svg>
