<svg width="29" height="32" viewBox="0 0 29 32" fill="none" xmlns="http://www.w3.org/2000/svg">
<g clip-path="url(#clip0_682_126)">
<path d="M17.9209 0C18.3726 0.310461 18.6688 0.702918 18.6055 1.31946C18.7392 1.31946 18.8518 1.31946 18.9638 1.31946C19.8383 1.31946 20.7129 1.31633 21.5875 1.32008C23.4109 1.32822 24.7608 2.6433 24.7691 4.42407C24.7749 5.68657 24.771 6.94906 24.7704 8.21156C24.7704 8.71418 24.5241 9.01463 24.1223 9.00775C23.7327 9.00149 23.4915 8.7048 23.4908 8.22471C23.4896 6.97285 23.4921 5.72037 23.4896 4.46851C23.487 3.33558 22.7218 2.5782 21.5715 2.57257C20.6022 2.56819 19.6323 2.57194 18.6375 2.57194C18.6259 2.68774 18.617 2.78726 18.6055 2.88616C18.5293 3.52586 18.0629 3.94773 17.4027 3.95024C16.0694 3.95587 14.7361 3.95212 13.4028 3.95212C11.4617 3.95212 9.51994 3.95212 7.57885 3.95212C6.63389 3.95212 6.24618 3.60535 6.15597 2.68398C6.15342 2.65457 6.1387 2.62702 6.12526 2.58509C5.04979 2.58509 3.97112 2.53501 2.90013 2.60011C1.94621 2.65832 1.28404 3.44386 1.2834 4.38901C1.2802 12.0685 1.2802 19.7481 1.2834 27.4276C1.2834 28.4479 2.06457 29.234 3.09142 29.2353C8.19048 29.2422 13.2889 29.2384 18.3879 29.2384C18.4193 29.2384 18.4513 29.2315 18.5153 29.224C18.4692 29.1564 18.4385 29.0976 18.395 29.0487C17.3611 27.8977 16.6241 26.602 16.3842 25.0691C16.3502 24.8538 16.2159 24.8688 16.063 24.8688C14.9216 24.87 13.7802 24.8688 12.6389 24.8688C10.0893 24.8688 7.53982 24.8688 4.99093 24.8688C4.339 24.8688 4.03958 24.6754 4.03574 24.2516C4.0319 23.8291 4.34731 23.6169 4.98006 23.6169C8.60698 23.6169 12.2333 23.6169 15.8602 23.6169H16.2824V21.1389C16.1302 21.1389 15.9958 21.1389 15.8608 21.1389C12.3407 21.1389 8.82066 21.1389 5.30059 21.1389C4.76637 21.1389 4.47975 20.9217 4.47399 20.5205C4.46887 20.1937 4.6896 19.9396 5.02356 19.8995C5.15024 19.8845 5.27883 19.8876 5.40679 19.8876C8.94798 19.8876 12.4898 19.9052 16.031 19.8707C16.6976 19.8645 17.372 19.6861 18.0252 19.5202C18.9503 19.2855 19.8754 19.0314 20.7673 18.7009C21.2427 18.5244 21.6739 18.2001 22.0801 17.8872C22.5312 17.5398 22.7832 17.5141 23.2151 17.9034C23.2842 17.966 23.359 18.0224 23.4915 18.1313C23.4915 17.9648 23.4915 17.8578 23.4915 17.7507C23.4915 16.3211 23.4896 14.8921 23.4928 13.4625C23.4934 13.0656 23.7026 12.8084 24.0385 12.7671C24.4595 12.7145 24.7666 12.9862 24.7698 13.4349C24.7762 14.2799 24.7717 15.125 24.7717 15.9706C24.7717 16.9195 24.7717 17.8678 24.7717 18.8211C25.8177 19.2423 26.897 19.4752 27.9904 19.6586C28.0327 19.6654 28.0755 19.6679 28.1171 19.6748C28.89 19.8044 28.9942 19.9265 28.9942 20.702C28.9942 21.7141 28.9738 22.7269 28.9987 23.7384C29.0467 25.6687 28.3583 27.3306 27.1158 28.7927C26.2233 29.8424 25.1626 30.7181 24.0263 31.4999C23.0494 32.1721 22.2676 32.159 21.2753 31.5074C20.9573 31.2983 20.6381 31.0811 20.3623 30.8239C20.0776 30.5579 19.7731 30.4827 19.3886 30.4834C14.0336 30.494 8.67927 30.4909 3.3243 30.4909C1.30643 30.4903 0 29.2152 0 27.2442C0 19.6798 0 12.1149 0 4.5505C0 2.60699 1.31923 1.32071 3.31023 1.31946C4.24751 1.31946 5.18479 1.31946 6.15597 1.31946C6.10607 0.725452 6.38246 0.311713 6.84758 0H17.9196L17.9209 0ZM22.6393 19.0896C21.8524 19.6761 20.9669 20.0566 20.0328 20.3195C19.3176 20.5211 18.5901 20.6832 17.8608 20.8297C17.6253 20.8766 17.5735 20.963 17.5761 21.1758C17.5857 22.0828 17.5933 22.9904 17.5767 23.8973C17.555 25.116 17.9241 26.2158 18.5895 27.2304C19.4461 28.5367 20.6579 29.4932 21.9029 30.4108C22.5081 30.8571 22.7621 30.8558 23.3693 30.4227C24.3609 29.7147 25.3059 28.9498 26.0999 28.0266C27.0429 26.9293 27.6609 25.6869 27.707 24.231C27.7396 23.1894 27.714 22.146 27.7128 21.1032C27.7128 21.0343 27.6987 20.9649 27.6897 20.8885C25.9009 20.5505 24.1479 20.1624 22.6399 19.0896H22.6393ZM17.3131 1.20804H7.46433V2.67334H17.3131V1.20804Z" fill="#112548"/>
<path d="M5.95626 8.04147C5.97034 7.7454 5.96394 7.50442 5.99657 7.26845C6.08486 6.62749 6.59284 6.17119 7.25246 6.14428C7.67855 6.12738 8.10593 6.128 8.53202 6.14428C9.24154 6.17119 9.77 6.69134 9.8071 7.38424C9.81798 7.59017 9.80902 7.79736 9.80902 8.04022C10.0297 8.04022 10.2089 8.03584 10.3874 8.04084C11.2185 8.06463 11.754 8.59792 11.7661 9.41476C11.7712 9.74838 11.7706 10.0826 11.7661 10.4162C11.7552 11.25 11.2172 11.7776 10.3624 11.7952C10.1942 11.7983 10.0265 11.7952 9.81158 11.7952C9.81158 12.0236 9.81798 12.2183 9.8103 12.4123C9.78023 13.1553 9.23898 13.6811 8.4802 13.6992C8.10721 13.708 7.73357 13.7049 7.36058 13.7005C6.56405 13.6905 6.01448 13.1735 5.97481 12.3967C5.96522 12.2108 5.97354 12.0243 5.97354 11.7952C5.76433 11.7952 5.58647 11.7989 5.40861 11.7945C4.57241 11.7726 4.03884 11.2418 4.03244 10.4263C4.02988 10.082 4.02924 9.73774 4.03244 9.39348C4.04076 8.61232 4.56602 8.07777 5.36318 8.04272C5.55192 8.03458 5.74193 8.04147 5.95562 8.04147H5.95626ZM8.53202 7.40991H7.25374C7.25374 7.75855 7.25374 8.08966 7.25374 8.42078C7.25246 9.1093 7.0682 9.2902 6.36444 9.29145C6.01896 9.29207 5.67348 9.29145 5.32864 9.29145V10.5433C5.58455 10.5433 5.82639 10.5433 6.06758 10.5433C7.1808 10.5433 7.25374 10.614 7.25374 11.6894C7.25374 11.9354 7.25374 12.182 7.25374 12.4242H8.53202C8.53202 12.2127 8.53202 12.0261 8.53202 11.8396C8.53202 11.6412 8.52626 11.4428 8.53394 11.245C8.55121 10.7855 8.78153 10.5583 9.25177 10.5452C9.5819 10.5364 9.91331 10.5539 10.2428 10.5352C10.326 10.5302 10.4699 10.4356 10.4738 10.3756C10.4961 10.0269 10.4846 9.6764 10.4846 9.29082C10.0694 9.29082 9.69898 9.29395 9.32791 9.2902C8.75722 9.28456 8.53778 9.06924 8.53266 8.50966C8.52946 8.14788 8.53266 7.78609 8.53266 7.40928L8.53202 7.40991Z" fill="#112548"/>
<path d="M12.4163 16.1491C14.8372 16.1491 17.2581 16.1479 19.6797 16.1504C20.2261 16.1504 20.5741 16.5798 20.3438 17.0035C20.2523 17.1719 20.0239 17.2739 19.8454 17.3885C19.7923 17.4229 19.6995 17.401 19.6253 17.401C14.8366 17.401 10.0478 17.4016 5.25903 17.3991C5.13299 17.3991 5.00056 17.3885 4.88348 17.3497C4.59046 17.252 4.43819 16.9885 4.47722 16.6837C4.51177 16.4077 4.73441 16.1892 5.02615 16.156C5.13171 16.1441 5.2392 16.1498 5.34604 16.1498C7.70299 16.1498 10.0599 16.1498 12.4175 16.1498L12.4163 16.1491Z" fill="#112548"/>
<path d="M17.386 8.66731C18.3246 8.66731 19.2625 8.66857 20.201 8.66731C20.5235 8.66731 20.7948 8.75307 20.924 9.07229C21.0679 9.42657 20.8587 9.81589 20.4774 9.89664C20.3437 9.92481 20.2023 9.92606 20.0641 9.92606C18.2727 9.92794 16.4814 9.92731 14.69 9.92731C14.658 9.92731 14.626 9.92731 14.594 9.92731C14.0739 9.92042 13.7712 9.6857 13.7744 9.29324C13.777 8.90079 14.0777 8.67044 14.6023 8.66857C15.53 8.66544 16.4577 8.66794 17.3854 8.66794L17.386 8.66731Z" fill="#112548"/>
<path d="M17.2465 13.6553C16.3412 13.6553 15.4359 13.6565 14.5306 13.6547C14.068 13.6534 13.7731 13.4068 13.7757 13.0312C13.7782 12.6588 14.0776 12.4053 14.5376 12.4047C16.3373 12.4016 18.1377 12.4016 19.9374 12.4047C20.407 12.4053 20.6853 12.6501 20.6834 13.0375C20.6814 13.4281 20.4102 13.6534 19.931 13.654C19.0366 13.6559 18.1415 13.654 17.2471 13.654L17.2465 13.6553Z" fill="#112548"/>
<path d="M21.8978 25.4203C22.7922 24.4595 23.6655 23.5206 24.5395 22.5824C24.6111 22.5054 24.6796 22.424 24.7609 22.357C25.011 22.1486 25.3718 22.1536 25.6066 22.3614C25.8434 22.5705 25.8945 22.9248 25.6924 23.182C25.4915 23.4374 25.2599 23.6696 25.0379 23.9087C24.1998 24.8113 23.3604 25.7133 22.5203 26.6146C22.1237 27.0402 21.8076 27.0528 21.3758 26.6603C20.9234 26.2484 20.4718 25.8353 20.0214 25.4216C19.6496 25.0798 19.594 24.6986 19.871 24.4157C20.1487 24.1316 20.5229 24.166 20.9062 24.514C21.2325 24.8101 21.5568 25.1093 21.8966 25.4203H21.8978Z" fill="#112548"/>
</g>
<defs>
<clipPath id="clip0_682_126">
<rect width="29" height="32" fill="white"/>
</clipPath>
</defs>
</svg>
