<svg width="15" height="15" viewBox="0 0 15 15" fill="none" xmlns="http://www.w3.org/2000/svg">
<path d="M12.9414 1.26953C12.6133 0.941406 12.1484 0.75 11.7109 0.75C11.2734 0.75 10.8086 0.941406 10.4805 1.26953L1.73047 10.0195C1.48438 10.2656 1.32031 10.5664 1.23828 10.8945L0.5 14.2305C0.445312 14.5039 0.664062 14.75 0.910156 14.75C0.9375 14.75 0.992188 14.75 1.01953 14.75C1.01953 14.75 3.31641 14.2578 4.35547 14.0117C4.68359 13.957 4.95703 13.793 5.20312 13.5469L13.9805 4.76953C14.6641 4.08594 14.6641 2.99219 13.9805 2.30859L12.9414 1.26953ZM4.27344 12.6172C4.21875 12.6992 4.13672 12.7266 4.05469 12.7539C3.5625 12.8633 2.76953 13.0273 2.08594 13.1914L2.52344 11.168C2.55078 11.0859 2.57812 11.0039 2.66016 10.9492L9.25 4.33203L10.918 6L4.27344 12.6172Z" fill="white"/>
</svg>
