<svg width="20" height="18" viewBox="0 0 20 18" fill="none" xmlns="http://www.w3.org/2000/svg">
<path fill-rule="evenodd" clip-rule="evenodd" d="M16.3673 0.685942C16.2738 0.764164 16.1762 0.84985 16.0771 0.93983C14.6117 2.06283 12.6061 4.34782 11.2757 6.23759C10.6162 7.17439 10.1036 8.06057 9.70111 8.81685C9.70104 8.81696 9.70097 8.81703 9.7009 8.81717C9.46123 9.25144 8.86281 10.3239 8.39768 11.1567C7.82317 10.3032 6.91045 9.22525 6.83543 9.23609V9.2362C6.69949 9.06472 6.55626 8.89571 6.40571 8.73589C5.64944 7.93282 4.86044 7.33834 3.98755 7.23434C3.9857 7.23375 3.984 7.23294 3.98215 7.23234C3.10048 6.95986 -0.827009 8.46299 0.157038 8.86934C1.11366 9.26436 2.0629 9.8692 2.11526 9.90271C2.89633 10.425 3.53328 10.9792 4.40046 12.4265C5.33584 13.9877 5.7088 15.1847 5.97308 15.8234L5.97301 15.8234C5.97301 15.8234 6.72662 18.2334 8.2574 17.0776C9.08053 16.4561 9.57266 15.7435 9.85208 15.2173L9.85222 15.2173L9.8556 15.2106C9.89872 15.1291 9.93705 15.0518 9.97037 14.9804L10.7403 13.4362L10.739 13.4368C10.7879 13.3402 10.8365 13.2399 10.8834 13.1311C12.0205 10.496 13.8673 7.26078 15.2862 5.38591C15.9752 4.47547 17.0337 3.42605 17.9562 2.53318C17.9685 2.5229 19.4963 1.2454 19.9547 0.471481C20.4149 -0.305568 17.239 -0.043231 16.3673 0.685942Z" fill="#68DAB7"/>
</svg>
