<svg width="25" height="25" viewBox="0 0 25 25" fill="none" xmlns="http://www.w3.org/2000/svg">
<g clip-path="url(#clip0_11_3181)">
<path d="M20.486 7.99873V0.825407C20.486 0.105729 20.5887 0.000130138 21.2978 0.000130138H24.33C24.4113 -0.00281614 24.4927 0.000121675 24.5736 0.0089272C24.693 0.0231158 24.8031 0.0808255 24.8827 0.171022C24.9622 0.261219 25.0058 0.377574 25.0049 0.497839C25.0013 0.617097 24.9547 0.731028 24.8736 0.818568C24.7925 0.906107 24.6825 0.961334 24.5638 0.974038C24.4829 0.982046 24.4015 0.984667 24.3202 0.981868H21.4837V8.50035H21.7507C22.6212 8.50035 23.4921 8.50035 24.3633 8.50035C24.4619 8.49708 24.5605 8.50661 24.6567 8.5287C24.7603 8.55538 24.8518 8.61666 24.9158 8.70237C24.9798 8.78809 25.0127 8.8931 25.0088 9.00002C25.0085 9.10299 24.9736 9.20287 24.9097 9.2837C24.8459 9.36452 24.7568 9.42163 24.6567 9.4459C24.5606 9.46881 24.4619 9.47868 24.3633 9.47524C23.2893 9.47524 22.2133 9.47524 21.1354 9.47524C20.7266 9.47524 20.6033 9.38723 20.4654 8.98633H20.2091C19.1841 8.98633 18.1551 8.98633 17.1329 8.98633C15.7264 8.99415 14.4529 8.5952 13.3349 7.74058C12.5915 7.17149 11.854 6.59457 11.139 5.99125C10.5873 5.52581 10.4151 4.90098 10.5814 4.20379C10.7506 3.49194 11.2172 3.04507 11.9215 2.8632C12.15 2.79874 12.3896 2.78371 12.6244 2.81912C12.8592 2.85453 13.0837 2.93955 13.283 3.06854C14.1712 3.64252 15.0515 4.22824 15.924 4.81787C16.1891 4.99485 16.2497 5.29114 16.0981 5.51799C15.9465 5.74485 15.6462 5.7996 15.3635 5.61577C14.5412 5.07601 13.7212 4.53201 12.9035 3.98378C12.6443 3.80973 12.3724 3.73639 12.0721 3.83711C11.9385 3.88155 11.8184 3.95903 11.7228 4.06233C11.6272 4.16564 11.5592 4.29141 11.5252 4.42799C11.4913 4.56457 11.4924 4.70751 11.5285 4.84354C11.5646 4.97957 11.6345 5.10427 11.7317 5.20606C11.9863 5.44595 12.2561 5.66903 12.5396 5.87391C13.1441 6.34131 13.7339 6.83315 14.3668 7.25753C15.1219 7.7525 16.007 8.01217 16.9099 8.00361C18.0494 8.01534 19.189 8.00361 20.3285 8.00361C20.3686 8.00752 20.4077 8.00264 20.486 7.99873Z" fill="black"/>
<path d="M4.52674 16.015C5.3601 16.015 6.18171 15.9983 7.00236 16.015C7.74125 16.0179 8.47935 16.0636 9.21295 16.1519C10.1627 16.2888 11.0019 16.7288 11.7561 17.3194C12.4359 17.8503 13.1196 18.3764 13.7818 18.9289C14.8362 19.8089 14.6621 21.4125 13.458 21.9953C12.9064 22.2623 12.3234 22.2887 11.7952 21.9631C10.863 21.3852 9.95437 20.7672 9.04275 20.1551C8.98738 20.1204 8.93966 20.0747 8.9025 20.021C8.86535 19.9672 8.83952 19.9065 8.82661 19.8425C8.81371 19.7784 8.814 19.7124 8.82745 19.6485C8.8409 19.5845 8.86723 19.524 8.90484 19.4706C9.06428 19.2457 9.34988 19.1987 9.6218 19.3728C10.4376 19.9077 11.2455 20.4562 12.0671 20.9842C12.2358 21.0944 12.4269 21.1655 12.6266 21.1925C12.7945 21.2064 12.9624 21.1665 13.1061 21.0786C13.2498 20.9907 13.3617 20.8594 13.4258 20.7036C13.4949 20.5504 13.5161 20.3798 13.4864 20.2143C13.4567 20.0489 13.3776 19.8963 13.2595 19.7766C13.0812 19.6101 12.8934 19.454 12.6971 19.3092C12.0124 18.7773 11.3374 18.219 10.6195 17.731C9.87024 17.2216 9.00753 17.0016 8.10276 16.9908C6.96324 16.9781 5.82372 16.9908 4.67931 16.9908C4.63236 16.9908 4.5815 16.9986 4.51107 17.0055V24.2336C4.51107 24.8779 4.38881 24.9972 3.73542 24.9972H0.659212C0.569871 25.0006 0.480422 24.995 0.392185 24.9806C0.283223 24.9598 0.184566 24.9026 0.112405 24.8184C0.0402445 24.7342 -0.00113874 24.6279 -0.00494146 24.5171C-0.00481527 24.4021 0.0358607 24.2909 0.109922 24.2029C0.183983 24.1149 0.286679 24.0558 0.399993 24.036C0.488675 24.0228 0.578402 24.0179 0.668 24.0214H3.51339V16.5039H2.50689C1.85643 16.5039 1.205 16.5039 0.550629 16.5039C0.143727 16.5039 -0.102747 16.187 0.0273444 15.8507C0.0610632 15.7534 0.125415 15.6696 0.210768 15.612C0.29612 15.5543 0.39786 15.5259 0.500744 15.5309C1.66472 15.5309 2.82869 15.5251 3.99266 15.5309C4.28903 15.5319 4.42501 15.6698 4.52674 16.015Z" fill="black"/>
<path d="M14.2455 0.491052C14.9937 0.491052 15.743 0.491052 16.4952 0.491052C16.5939 0.489645 16.6925 0.50048 16.7886 0.523316C16.8917 0.550203 16.9828 0.610864 17.0473 0.695593C17.1119 0.780321 17.1461 0.88423 17.1446 0.990718C17.1406 1.10137 17.0991 1.20738 17.027 1.29141C16.9548 1.37543 16.8563 1.43248 16.7475 1.45323C16.6503 1.46618 16.5521 1.47076 16.4541 1.46692C15.16 1.46692 13.8669 1.47865 12.5729 1.46692C11.4214 1.45004 10.2861 1.73959 9.28341 2.30589C7.20782 3.45581 5.11953 4.58324 3.03709 5.72143C2.47858 6.02651 2.24871 6.49292 2.3876 7.02388C2.42344 7.17241 2.49052 7.31161 2.58437 7.4322C2.67823 7.55279 2.79669 7.65199 2.9319 7.72323C3.06711 7.79447 3.21594 7.83609 3.3685 7.84533C3.52106 7.85456 3.67384 7.83121 3.81666 7.77681C4.11697 7.65225 4.41079 7.51257 4.69697 7.3583C6.03506 6.68947 7.37183 6.01998 8.7073 5.34985C9.11616 5.14451 9.38319 5.1846 9.5348 5.47208C9.68641 5.75956 9.55631 6.01673 9.13767 6.22599C7.57266 7.00824 6.0106 7.7905 4.45146 8.57276C3.48018 9.05483 2.41695 8.82406 1.8017 8.01149C1.02507 6.98576 1.31264 5.56693 2.48639 4.9157C4.77456 3.64518 7.07317 2.39422 9.3822 1.16282C10.2015 0.737037 11.1096 0.509928 12.0329 0.499849C12.7724 0.479315 13.5138 0.499849 14.2543 0.499849L14.2455 0.491052Z" fill="black"/>
<path d="M10.7878 24.5089C10.0552 24.5089 9.32062 24.5089 8.59094 24.5089C8.49229 24.5113 8.39372 24.5015 8.2975 24.4796C8.18797 24.4565 8.09081 24.3939 8.02458 24.3037C7.95834 24.2135 7.92771 24.102 7.93854 23.9907C7.94214 23.8798 7.9849 23.7739 8.0592 23.6915C8.1335 23.6092 8.23456 23.5558 8.34447 23.5409C8.44964 23.5286 8.5556 23.5247 8.66139 23.5291C9.97077 23.5291 11.2808 23.5291 12.5915 23.5291C13.6207 23.5375 14.635 23.2824 15.5376 22.788C17.6849 21.6146 19.8319 20.4412 21.9786 19.2678C22.5215 18.9744 22.7513 18.5022 22.6183 17.982C22.5834 17.8311 22.5164 17.6895 22.4217 17.5669C22.3271 17.4443 22.2071 17.3436 22.0699 17.2717C21.9327 17.1997 21.7816 17.1582 21.6269 17.15C21.4723 17.1418 21.3176 17.1671 21.1736 17.2241C20.842 17.3542 20.527 17.5273 20.2082 17.6867C18.9073 18.3385 17.6067 18.9904 16.3064 19.6423C16.2429 19.6782 16.1776 19.7108 16.1108 19.7401C15.8399 19.8447 15.5826 19.7538 15.4662 19.5171C15.3498 19.2805 15.432 19.04 15.6618 18.8835C15.7098 18.8533 15.7594 18.8259 15.8105 18.8014C17.3801 18.0152 18.9497 17.2294 20.5192 16.4438C21.2509 16.0772 21.9698 16.0703 22.677 16.5074C23.8928 17.2593 23.9534 19.1221 22.765 19.9161C22.2339 20.272 21.6558 20.5595 21.0924 20.8675C19.3024 21.8453 17.5134 22.8232 15.7127 23.7912C14.8378 24.2522 13.8651 24.4967 12.8761 24.504C12.1768 24.5177 11.4764 24.504 10.7771 24.504L10.7878 24.5089Z" fill="black"/>
<path d="M11.2152 9.66854C11.6164 9.67824 12.0074 9.79725 12.3459 10.0127C12.3901 10.0464 12.444 10.0646 12.4995 10.0646C12.555 10.0646 12.6089 10.0464 12.653 10.0127C13.0036 9.80416 13.4025 9.69053 13.8104 9.68303C14.2183 9.67552 14.6211 9.77441 14.9791 9.96994C15.3371 10.1655 15.638 10.4509 15.852 10.7981C16.0661 11.1452 16.1859 11.5422 16.1997 11.9498C16.232 12.6343 15.8916 13.1848 15.474 13.6854C14.712 14.6007 13.7711 15.3106 12.7871 15.9667C12.7084 16.0268 12.6126 16.0604 12.5136 16.0625C12.4146 16.0646 12.3175 16.0351 12.2364 15.9784C11.1604 15.2597 10.1187 14.4892 9.33524 13.4361C8.58404 12.428 8.62024 11.4139 9.42035 10.4508C9.80476 9.98731 10.5198 9.66267 11.2152 9.66854ZM12.4966 14.9889C13.2977 14.4442 14.0322 13.8556 14.6543 13.1388C14.9203 12.8328 15.2079 12.5101 15.2167 12.0828C15.2312 11.8122 15.1638 11.5435 15.0234 11.3117C14.8829 11.0799 14.6759 10.8958 14.4293 10.7833C14.1949 10.6664 13.9307 10.6225 13.6711 10.6574C13.4114 10.6923 13.1682 10.8042 12.9729 10.9788C12.5758 11.322 12.4252 11.3211 12.029 10.9788C11.8736 10.8407 11.6879 10.741 11.487 10.6877C11.286 10.6344 11.0753 10.6289 10.8719 10.6718C10.1207 10.8048 9.34991 11.851 10.0894 12.8083C10.7545 13.6835 11.5957 14.3513 12.4966 14.985V14.9889Z" fill="black"/>
</g>
<defs>
<clipPath id="clip0_11_3181">
<rect width="25" height="25" fill="white"/>
</clipPath>
</defs>
</svg>
