<svg width="242" height="90" viewBox="0 0 242 90" fill="none" xmlns="http://www.w3.org/2000/svg">
<path fill-rule="evenodd" clip-rule="evenodd" d="M146.483 71.4437C178.719 73.5093 211.905 75.6422 242 88.7516V90C211.957 76.7867 178.705 74.6525 146.41 72.5834L146.396 72.5825C134.377 71.8116 121.949 71.0145 109.95 69.6532C103.778 68.9556 98.0945 67.89 92.8996 66.4562C88.4603 68.9397 83.794 70.996 78.9638 72.5975C58.3538 79.3743 35.114 79.7758 14.9554 79.6105L0 79.489V78.3407L14.9649 78.4625C35.0347 78.6291 58.1596 78.2381 78.6025 71.5063C82.9985 70.0529 87.2572 68.2152 91.3288 66.0145C82.0082 63.2521 74.2751 59.2472 67.9409 53.9219C59.9483 47.2019 54.216 38.056 52.2021 28.844C50.437 20.7598 52.3431 8.87397 59.3442 2.78931C61.9918 0.48985 65.2483 -0.414818 68.763 0.175696C73.2752 0.931554 77.7791 4.18056 80.2384 8.45234C82.6763 12.6887 84.599 16.5235 86.0999 20.1445C86.2376 19.9897 86.3695 19.8349 86.5019 19.6795C86.5482 19.6252 86.5946 19.5707 86.6413 19.5162L86.6422 19.5151C90.0264 15.5873 93.5314 11.5192 98.2801 8.95074C103.029 6.382 108.783 5.93911 113.669 7.76971C117.949 9.37354 121.17 12.5848 122.739 16.814C126.877 27.9925 120.07 42.5191 111.485 51.9673C106.794 57.1284 100.892 61.8065 94.3555 65.6318C99.2163 66.9184 104.458 67.8805 110.08 68.5183C122.053 69.8773 134.467 70.6732 146.474 71.4431L146.483 71.4437ZM68.6848 53.0397C75.0427 58.3898 83.1158 62.456 92.7953 65.2043C99.6187 61.3388 105.782 56.5308 110.629 51.189C118.977 41.9983 125.622 27.9263 121.645 17.2049C120.194 13.2934 117.214 10.3219 113.251 8.83736C108.674 7.1225 103.279 7.54177 98.8179 9.95697C94.256 12.4324 90.8206 16.4125 87.5037 20.2614C87.1183 20.7102 86.7313 21.1578 86.3427 21.6043C86.278 21.6788 86.1951 21.7354 86.102 21.7687C86.0089 21.8019 85.9088 21.8108 85.8113 21.7943C85.7138 21.7778 85.6222 21.7365 85.5454 21.6745C85.4685 21.6125 85.409 21.5317 85.3725 21.4401C83.8467 17.6136 81.8329 13.552 79.2267 9.0216C76.9381 5.03444 72.7516 2.00629 68.5652 1.30476C67.9519 1.20072 67.331 1.14778 66.7089 1.1465C64.2591 1.1465 62.0012 1.9992 60.0952 3.65264C53.4294 9.44323 51.6335 20.8248 53.3275 28.5924C55.2845 37.5682 60.8818 46.4803 68.6848 53.0397Z" fill="#231F20"/>
<path fill-rule="evenodd" clip-rule="evenodd" d="M82.2391 38.7929C82.5958 37.3204 82.6443 35.7736 82.2892 34.1974C81.03 28.6154 71.6216 18.8708 71.6216 18.8708C71.6216 18.8708 65.9817 13.2118 65.1014 13.4367C60.9325 14.4993 60.8947 31.3657 60.8252 35.3117C60.772 38.3397 61.821 41.3283 63.4998 43.8466C64.8126 45.8173 66.6041 47.5864 68.8653 48.2863C71.7409 49.1764 74.9667 48.1599 77.2842 46.2352C79.6526 44.2678 81.5386 41.6735 82.2391 38.7929Z" fill="#6B99C4"/>
<path fill-rule="evenodd" clip-rule="evenodd" d="M61.0023 35.6493C61.0022 35.6548 61.0022 35.6603 61.0021 35.6657C60.9489 38.6938 61.9979 41.6823 63.6767 44.2007C64.9895 46.1714 66.781 47.9405 69.0422 48.6404C71.9178 49.5304 75.1436 48.5139 77.4611 46.5892C79.8295 44.6218 81.7154 42.0275 82.4159 39.147C82.7388 37.8144 82.8092 36.421 82.5565 35C81.5581 36.2929 80.395 37.4803 79.128 38.5328C76.0473 41.0913 71.7594 42.4425 67.9369 41.2594C65.0431 40.3637 62.7281 38.1506 61.0023 35.6493Z" fill="#81A8CD"/>
<path fill-rule="evenodd" clip-rule="evenodd" d="M55.9906 69.7913C57.1872 68.862 58.1889 67.6823 58.8933 66.2282C61.3866 61.0778 60.0998 47.5937 60.0998 47.5937C60.0998 47.5937 59.2147 39.6534 58.386 39.2807C54.4633 37.5142 43.9242 50.6825 41.4111 53.7255C39.4827 56.0607 38.441 59.0518 38.1849 62.0676C37.9838 64.4269 38.2826 66.9269 39.6151 68.8833C41.3096 71.3712 44.466 72.5862 47.478 72.5248C50.5563 72.4618 53.6479 71.6079 55.9906 69.7913Z" fill="#6B99C4"/>
<path fill-rule="evenodd" clip-rule="evenodd" d="M40.0374 55.5798C40.0348 55.5847 40.0323 55.5895 40.0297 55.5943C38.6099 58.2694 38.1905 61.4088 38.5456 64.4145C38.8226 66.7662 39.6177 69.1551 41.3161 70.8039C43.476 72.9006 46.8122 73.4564 49.7504 72.7912C52.7532 72.1109 55.6101 70.6531 57.5401 68.4028C58.4319 67.3614 59.1262 66.1512 59.5449 64.77C58.069 65.47 56.494 66.0013 54.8876 66.3652C50.982 67.2495 46.5473 66.5106 43.6762 63.7235C41.5026 61.6136 40.4421 58.5915 40.0374 55.5798Z" fill="#81A8CD"/>
</svg>
