<svg width="32" height="31" viewBox="0 0 32 31" fill="none" xmlns="http://www.w3.org/2000/svg">
<g clip-path="url(#clip0_722_359)">
<path d="M32 16.6105C31.8072 16.8768 31.6344 17.1606 31.4173 17.4044C31.1201 17.7392 30.7912 18.0455 30.4714 18.3594C29.9313 18.8912 29.2977 18.8854 28.765 18.3528C28.482 18.0698 28.1898 17.7943 27.8693 17.4837V17.8736C27.8693 21.3582 27.8709 24.8436 27.8684 28.3282C27.8684 29.3342 27.2941 30.1039 26.3649 30.28C25.9817 30.3527 25.5768 30.3326 25.1836 30.3126C24.9365 30.3001 24.7996 30.1139 24.8004 29.8601C24.8004 29.5871 24.9607 29.4302 25.2178 29.3984C25.4332 29.3726 25.6545 29.3884 25.8732 29.3876C26.5552 29.3834 26.9317 29.0086 26.9317 28.3182C26.9334 25.1358 26.9317 21.9534 26.9317 18.771C26.9317 18.0823 26.9418 17.3935 26.9242 16.7056C26.9209 16.5579 26.8566 16.3767 26.7564 16.2715C23.3303 12.6834 19.8966 9.10198 16.4621 5.52054C16.1215 5.1649 15.8827 5.16741 15.5396 5.52472C12.1059 9.10615 8.67144 12.6868 5.24444 16.2749C5.14426 16.3792 5.08165 16.5629 5.07998 16.7106C5.06579 17.6599 5.0733 18.6099 5.07163 19.5591C5.07163 19.949 4.89465 20.1719 4.59995 20.1669C4.3086 20.1619 4.13662 19.9356 4.13495 19.5457C4.13328 18.8704 4.13495 18.195 4.13495 17.457C3.83942 17.7517 3.58396 18.0005 3.33435 18.2559C2.68568 18.9196 2.1013 18.9288 1.4518 18.2793C1.10534 17.9328 0.75805 17.5872 0.414098 17.2391C-0.133552 16.6864 -0.139396 16.0653 0.398237 15.5043C4.2151 11.5238 8.03195 7.54418 11.8488 3.56453C12.7938 2.57942 13.7355 1.59015 14.6856 0.609216C15.4661 -0.196398 16.5356 -0.208086 17.3078 0.596694C22.0872 5.57314 26.8633 10.5546 31.6344 15.5394C31.7871 15.6997 31.8798 15.9184 32 16.1096V16.6105ZM16.0605 0.880537C16.0438 0.905582 16.0272 0.930627 16.0105 0.954837C15.6849 0.94148 15.4737 1.136 15.2666 1.35222C11.1559 5.64159 7.04435 9.93013 2.93196 14.2187C2.31919 14.8582 1.70642 15.4985 1.09115 16.1354C0.960914 16.2699 0.881605 16.3884 1.05275 16.5545C1.44094 16.9327 1.82079 17.3192 2.20231 17.7041C2.33338 17.8368 2.45276 17.8285 2.57465 17.6932C2.63726 17.6231 2.70488 17.5588 2.77 17.4904C6.78054 13.307 10.7911 9.12368 14.8016 4.94033C15.6031 4.10383 16.3995 4.10049 17.1943 4.92864C18.9265 6.73355 20.658 8.53846 22.3894 10.3442C24.7119 12.7669 27.0361 15.1879 29.3528 17.6164C29.549 17.8226 29.685 17.846 29.8846 17.629C30.1801 17.3059 30.499 17.0053 30.8079 16.6956C31.0261 16.4763 31.0286 16.2551 30.8154 16.0319C27.5687 12.6467 24.3221 9.26143 21.0762 5.87618C19.6186 4.35678 18.166 2.83238 16.7 1.32133C16.523 1.1385 16.2751 1.02496 16.0597 0.878868L16.0605 0.880537Z" fill="#112548"/>
<path d="M11.7277 29.3886C11.7277 29.23 11.7277 29.1073 11.7277 28.9846C11.7277 27.3675 11.7194 25.7496 11.7303 24.1325C11.7453 21.9185 13.2037 20.2088 15.381 19.8365C17.7402 19.4324 20.1429 21.2991 20.2456 23.6967C20.3207 25.4574 20.2723 27.2231 20.2789 28.9862C20.2789 29.1098 20.2789 29.2325 20.2789 29.3895C20.8917 29.3895 21.4719 29.3895 22.0521 29.3895C22.3852 29.3895 22.7192 29.3803 23.0514 29.3945C23.3436 29.407 23.5264 29.6074 23.5206 29.8737C23.5148 30.1417 23.3303 30.3136 23.0297 30.3278C22.9571 30.3312 22.8836 30.3287 22.811 30.3287C17.2811 30.3287 11.7511 30.3287 6.22119 30.3287C4.8913 30.3287 4.13661 29.5681 4.13661 28.2282C4.13661 26.1829 4.13577 24.1375 4.13828 22.093C4.13828 21.9695 4.14245 21.8392 4.18252 21.7249C4.261 21.4995 4.45551 21.3676 4.67007 21.446C4.82702 21.5036 4.95558 21.6781 5.0591 21.8267C5.10835 21.8977 5.07329 22.0296 5.07329 22.1339C5.07329 24.1684 5.07329 26.2037 5.07329 28.2382C5.07329 29.0372 5.41975 29.3895 6.20616 29.3903C7.92425 29.3903 9.64317 29.3903 11.3613 29.3903C11.4648 29.3903 11.5683 29.3903 11.7277 29.3903V29.3886ZM19.3105 29.3761C19.3105 27.4368 19.3949 25.5242 19.2863 23.6233C19.1811 21.7866 17.266 20.4434 15.4569 20.779C13.7773 21.0912 12.6828 22.4019 12.6678 24.1567C12.6536 25.8155 12.6644 27.4735 12.6661 29.1323C12.6661 29.2108 12.6828 29.2901 12.692 29.3761H19.3097H19.3105Z" fill="#112548"/>
</g>
<defs>
<clipPath id="clip0_722_359">
<rect width="32" height="30.332" fill="white"/>
</clipPath>
</defs>
</svg>
