<svg width="37" height="30" viewBox="0 0 37 30" fill="none" xmlns="http://www.w3.org/2000/svg">
<path d="M36.6636 15.1308C36.4367 15.8681 36.2932 16.644 35.9685 17.3347C34.7979 19.831 31.9975 21.1999 29.198 20.7128C26.5922 20.2589 24.452 17.9994 24.1254 15.3568C23.6554 11.5518 26.4487 8.29479 30.2761 8.19253C30.5596 8.18536 30.8439 8.22213 31.2548 8.24545C30.9597 7.46955 30.7542 6.73133 30.4107 6.06396C28.6346 2.61591 25.1794 0.90086 21.3744 1.58616C19.8118 1.86692 18.4591 2.61412 17.3146 3.72101C16.4579 4.54984 16.3279 4.55432 15.4829 3.72729C12.1882 0.501697 6.75962 0.699036 3.69728 4.14619C2.30425 5.71414 1.55346 7.54131 1.44044 9.634C1.3642 11.0566 1.84768 12.3331 2.48544 13.5646C2.52491 13.6409 2.67202 13.7019 2.76889 13.7028C4.85799 13.7108 6.9462 13.7028 9.0353 13.7153C9.30171 13.7171 9.31337 13.5503 9.3618 13.3834C9.89193 11.5365 10.4194 9.68872 10.9504 7.84091C10.9934 7.69201 11.0329 7.53773 11.1074 7.40497C11.372 6.93405 12.0402 6.92777 12.3174 7.39152C12.3838 7.50185 12.4232 7.63101 12.4627 7.7557C13.5588 11.2647 14.6523 14.7738 15.7475 18.2837C15.7825 18.3959 15.822 18.5053 15.8946 18.7206C15.9637 18.516 16.0041 18.4012 16.0399 18.2855C16.4346 17.0208 16.8275 15.756 17.2249 14.4921C17.4007 13.9315 17.6025 13.7826 18.1838 13.7808C19.2817 13.7781 20.3796 13.7799 21.4784 13.7808C21.5618 13.7808 21.6462 13.7808 21.7278 13.7943C22.1476 13.8589 22.4247 14.1674 22.4023 14.5388C22.379 14.9254 22.0902 15.2025 21.656 15.2088C20.8326 15.2214 20.0091 15.2142 19.1857 15.2151C18.9713 15.2151 18.7578 15.2151 18.5049 15.2151C18.3748 15.625 18.2438 16.0296 18.1174 16.435C17.6312 17.9958 17.1468 19.5575 16.6607 21.1191C16.6355 21.199 16.6131 21.2797 16.5826 21.3577C16.4597 21.6762 16.2444 21.8771 15.8865 21.8753C15.5286 21.8726 15.3053 21.6681 15.1986 21.347C14.9922 20.7236 14.8039 20.0948 14.6083 19.4678C13.6997 16.5507 12.7919 13.6328 11.8833 10.7158C11.8519 10.6135 11.816 10.5131 11.7451 10.3005C11.6752 10.5193 11.6321 10.6431 11.5953 10.7696C11.2419 11.9967 10.8921 13.2256 10.5369 14.4518C10.3772 15.0025 10.1897 15.1425 9.61207 15.1425C7.6907 15.1442 5.76844 15.1425 3.84708 15.1425H3.4524C4.4992 17.5249 12.9964 26.1665 16.4185 28.3417C17.2284 27.6726 18.06 27.0133 18.8601 26.3181C19.9688 25.3538 21.0532 24.3627 22.1485 23.3831C22.4956 23.0728 22.788 23.0073 23.0849 23.1697C23.4581 23.3742 23.5756 23.8272 23.3406 24.1815C23.2823 24.2703 23.2087 24.3528 23.128 24.4219C21.0658 26.1997 19.0054 27.9784 16.9369 29.7491C16.5431 30.0855 16.2543 30.0774 15.8435 29.7491C11.7568 26.4858 7.85575 23.0226 4.49561 18.995C3.55735 17.8702 2.74916 16.6359 1.89881 15.4394C1.7526 15.2339 1.62433 15.1075 1.36061 15.138C1.16058 15.1613 0.955168 15.1487 0.752447 15.1389C0.316507 15.1182 0.0276747 14.859 -0.000132102 14.4733C-0.026145 14.1154 0.228602 13.8149 0.631352 13.7297C0.722846 13.7099 0.814339 13.6956 0.911215 13.6777C-1.36087 9.32723 0.970416 4.09237 4.15116 1.80682C7.03948 -0.267925 12.3031 -1.16761 16.3772 2.54864C16.954 2.14051 17.4984 1.68842 18.103 1.33859C23.6725 -1.89149 30.6699 0.986075 32.3877 7.20315C32.4926 7.58258 32.5473 7.97546 32.6595 8.3522C32.7043 8.5011 32.8119 8.68319 32.942 8.74688C35.0356 9.77752 36.2681 11.4334 36.6116 13.7494C36.6161 13.7808 36.6457 13.8095 36.6627 13.8391V15.1308H36.6636ZM30.347 19.3763C33.0353 19.3852 35.2276 17.2011 35.2302 14.5101C35.2329 11.8281 33.029 9.61696 30.3569 9.62234C27.6919 9.62772 25.505 11.8128 25.4916 14.4823C25.4781 17.1723 27.656 19.3673 30.347 19.3763Z" fill="#112548"/>
</svg>
