<svg width="133" height="100" viewBox="0 0 133 100" fill="none" xmlns="http://www.w3.org/2000/svg">
<path fill-rule="evenodd" clip-rule="evenodd" d="M92.9547 54.4112C97.5663 51.6545 96.1828 41.3876 97.1415 36.9626C97.5375 35.1346 98.2586 33.2669 99.736 32.1238C100.722 31.3611 101.95 30.9943 103.147 30.643C108.16 29.1717 117.037 29.4629 117.862 22.7299C118.218 19.8261 116.328 16.9951 113.85 15.4254C111.373 13.8555 108.399 13.3125 105.497 12.9213C102.967 12.5804 100.282 12.2746 98.2565 10.7145C96.0649 9.02661 95.0949 6.20004 94.5986 3.48249C94.1021 0.765067 93.9507 -2.05303 92.8907 -4.60655C91.8308 -7.15994 89.5535 -9.47583 86.7934 -9.52584C84.0594 -9.57513 81.7691 -7.43073 80.3582 -5.09498C78.7479 -2.42882 77.8601 0.671011 77.8134 3.79139C77.7803 5.99361 78.1047 8.40372 76.8571 10.2134C75.3063 12.4626 72.1453 12.6874 69.4194 12.9294C65.8799 13.2436 62.2356 14.0143 59.4365 16.1933C56.6372 18.3723 54.9325 22.2683 56.1977 25.5963C57.7146 29.5866 62.4935 31.1199 66.7007 31.8247C70.9078 32.5297 75.637 33.1803 78.2514 36.5586C80.2416 39.1302 80.4313 42.5979 80.8828 45.8131C81.3341 49.0282 82.4016 52.572 85.2679 54.1053C86.6368 54.8377 88.2303 54.9944 89.7775 55.0888C91.0704 55.1676 92.1126 54.9147 92.9547 54.4112Z" fill="#B3D2A3"/>
<path fill-rule="evenodd" clip-rule="evenodd" d="M85.9512 99.9492C83.9411 98.9572 82.0571 97.6698 80.2462 96.2784C78.4378 94.8888 75.8148 95.3649 74.642 97.3174C71.5473 102.463 68.6091 106.292 63.2571 110.346C61.2243 111.883 59.1788 113.43 56.8887 114.548C53.7007 116.104 50.1597 116.77 46.6564 117.328C38.86 118.568 31.1219 117.673 24.7852 112.542C14.7313 104.402 12.2399 88.4085 19.3435 77.61C21.3804 74.5134 24.0561 71.8721 26.9787 69.5876C35.2831 63.097 47.0625 59.4866 56.4574 64.2725C62.3794 67.2878 66.4148 70.3336 70.2812 74.8683C71.9458 76.8235 75.0506 76.5753 76.405 74.3929C78.69 70.7086 81.197 67.1739 84.3724 64.2393C88.8946 60.0585 95.0536 57.2004 101.16 58.0618C109.795 59.2806 116.113 68.0806 116.091 76.7795C116.058 89.1786 103.75 104.606 90.201 101.491C88.7155 101.15 87.3056 100.616 85.9512 99.9492Z" fill="#B7C0EB"/>
<mask id="mask0_1_785" style="mask-type:alpha" maskUnits="userSpaceOnUse" x="15" y="57" width="102" height="61">
<path fill-rule="evenodd" clip-rule="evenodd" d="M85.9512 99.9492C83.9411 98.9572 82.0571 97.6698 80.2462 96.2784C78.4378 94.8888 75.8148 95.3649 74.642 97.3174C71.5473 102.463 68.6091 106.292 63.2571 110.346C61.2243 111.883 59.1788 113.43 56.8887 114.548C53.7007 116.104 50.1597 116.77 46.6564 117.328C38.86 118.568 31.1219 117.673 24.7852 112.542C14.7313 104.402 12.2399 88.4085 19.3435 77.61C21.3804 74.5134 24.0561 71.8721 26.9787 69.5876C35.2831 63.097 47.0625 59.4866 56.4574 64.2725C62.3794 67.2878 66.4148 70.3336 70.2812 74.8683C71.9458 76.8235 75.0506 76.5753 76.405 74.3929C78.69 70.7086 81.197 67.1739 84.3724 64.2393C88.8946 60.0585 95.0536 57.2004 101.16 58.0618C109.795 59.2806 116.113 68.0806 116.091 76.7795C116.058 89.1786 103.75 104.606 90.201 101.491C88.7155 101.15 87.3056 100.616 85.9512 99.9492Z" fill="white"/>
</mask>
<g mask="url(#mask0_1_785)">
<g style="mix-blend-mode:luminosity" opacity="0.15">
<path fill-rule="evenodd" clip-rule="evenodd" d="M67.5482 103.527C67.5482 103.527 108.128 91.2013 113.182 51.2751C118.236 11.349 118.029 98.3472 118.029 98.3472L83.5233 118.016L67.5482 103.527Z" fill="white"/>
</g>
</g>
</svg>
