<svg width="30" height="30" viewBox="0 0 30 30" fill="none" xmlns="http://www.w3.org/2000/svg">
<g clip-path="url(#clip0_11_3175)">
<path d="M8.37204 27.8461L9.69857 28.8919C9.90969 29.0585 10.0504 29.2616 9.98475 29.5468C9.88271 29.974 9.41122 30.1336 9.03238 29.8531C8.65354 29.5726 8.26296 29.2545 7.87826 28.9541C7.52639 28.6771 7.17452 28.3883 6.81327 28.1325C6.68066 28.0449 6.52527 27.9984 6.36642 27.9987C5.87968 28.0057 5.39293 28.048 4.90502 28.0667C4.47457 28.0832 4.20128 27.8625 4.19424 27.5045C4.1872 27.1465 4.42882 26.9177 4.8663 26.8954C5.30379 26.8731 5.74244 26.8426 6.1811 26.8332C6.26236 26.8384 6.34314 26.8173 6.41141 26.7729C6.47968 26.7285 6.53178 26.6631 6.55994 26.5867C7.00094 25.6841 7.45367 24.7874 7.90523 23.8872C7.95526 23.7813 8.0162 23.681 8.08703 23.5879C8.16585 23.4869 8.27716 23.4165 8.40204 23.3884C8.52693 23.3604 8.65767 23.3765 8.77201 23.4341C8.89291 23.4887 8.99039 23.5846 9.04693 23.7046C9.10347 23.8247 9.11536 23.961 9.08046 24.089C9.05205 24.1923 9.01273 24.2922 8.96317 24.3872C8.62538 25.0691 8.28408 25.7487 7.94512 26.4294C7.90289 26.5127 7.8642 26.5984 7.80673 26.7193C8.33922 26.6559 8.82244 26.6019 9.30333 26.5327C9.37956 26.521 9.46048 26.4048 9.50036 26.3191C9.90149 25.4411 10.3061 24.5585 10.6873 23.6782C10.8724 23.2258 11.1474 22.8157 11.4956 22.4727C11.8438 22.1297 12.2579 21.8611 12.7129 21.6829C14.4866 20.9662 16.1617 20.0259 17.6976 18.8848C19.4033 17.6075 20.9207 16.0962 22.205 14.3954C23.0683 13.2627 24.2118 12.6289 25.6404 12.6348C27.3997 12.6348 28.7262 13.4353 29.5109 15.008C30.2956 16.5808 30.1372 18.1125 29.0946 19.5057C25.5759 24.2076 21.0799 27.6301 15.6064 29.7733C14.6259 30.1595 13.6793 30.0597 12.7797 29.5022C11.859 28.9329 10.936 28.366 10.0047 27.8156C9.84679 27.7341 9.66927 27.6983 9.49214 27.7123C9.1438 27.7275 8.79193 27.7921 8.37204 27.8461ZM21.7429 22.2404C21.7733 22.2629 21.8064 22.2814 21.8414 22.2956C22.7375 22.4364 23.6324 22.5785 24.5297 22.7099C24.6132 22.7093 24.6932 22.676 24.7525 22.6172C26.0345 21.4279 27.1973 20.1161 28.2243 18.7005C28.4678 18.3599 28.6397 17.9733 28.7295 17.5642C28.8193 17.1552 28.8252 16.7321 28.7468 16.3207C28.6684 15.9092 28.5073 15.518 28.2734 15.1707C28.0394 14.8235 27.7374 14.5273 27.3857 14.3003C26.0063 13.393 24.1978 13.724 23.1433 15.1055C21.947 16.6735 20.6193 18.1172 19.0476 19.3073C18.4612 19.7534 18.1421 20.2463 18.0448 20.9658C17.9275 21.8707 17.7047 22.7616 17.5205 23.6982C17.5761 23.6776 17.6305 23.6541 17.6836 23.6278C19.0896 22.8222 20.4104 21.8761 21.6256 20.8038C22.839 19.7276 23.9422 18.5331 24.9191 17.2381C25.1771 16.8965 25.5266 16.8203 25.8058 17.0221C26.0849 17.224 26.126 17.5785 25.882 17.9012C24.9194 19.1821 23.8371 20.3682 22.6495 21.4435C22.354 21.7099 22.0514 21.9693 21.7429 22.2404ZM11.4896 27.3343C12.1206 27.7217 12.7293 28.0855 13.3298 28.4634C13.9632 28.8637 14.6047 28.9118 15.305 28.6301C17.5923 27.7241 19.759 26.5387 21.7558 25.1008C22.3423 24.6806 22.897 24.2299 23.528 23.7463C22.5569 23.5961 21.6714 23.4728 20.7917 23.3144C20.6655 23.2889 20.5352 23.2916 20.4101 23.3222C20.285 23.3528 20.1682 23.4107 20.068 23.4916C18.0939 24.8771 15.9234 25.9588 13.6289 26.7005C12.9322 26.9259 12.2285 27.1172 11.4896 27.3343ZM16.8754 20.893C16.7804 20.9411 16.7453 20.9552 16.7124 20.9752C15.5683 21.6616 14.3777 22.2671 13.1492 22.7874C12.7717 22.9416 12.4378 23.1863 12.1769 23.4998C11.8543 23.9271 11.6526 24.4482 11.4157 24.9364C11.2104 25.359 11.0298 25.7933 10.8292 26.2275C10.8591 26.2353 10.8898 26.2392 10.9207 26.2393C12.6805 25.8509 14.3906 25.2638 16.0181 24.4893C16.1112 24.4313 16.1784 24.3397 16.2057 24.2334C16.2902 23.893 16.35 23.5468 16.4169 23.2029C16.5705 22.4529 16.7171 21.6994 16.8754 20.893Z" fill="black"/>
<path d="M23.2781 10.4622C22.9262 10.4798 22.626 10.4787 22.3316 10.5186C22.2319 10.5315 22.1369 10.6359 22.0571 10.7169C21.4519 11.3249 20.8842 11.9728 20.1383 12.4235C18.8739 13.1841 17.5169 13.4141 16.0625 13.2334C13.6896 12.9503 11.3561 12.4006 9.10613 11.5949C6.4085 10.6148 3.8692 9.31317 1.56566 7.59251C0.222709 6.59016 -0.310938 4.74744 0.173463 3.05612C0.41058 2.27192 0.86622 1.57163 1.48694 1.03736C2.10767 0.503098 2.86772 0.157011 3.67802 0.0396879C4.72205 -0.118462 5.78718 0.125666 6.65834 0.722787C8.23704 1.79438 9.89078 2.71809 11.6806 3.39415C13.3842 4.04673 15.1642 4.47825 16.9774 4.67819C17.938 4.77913 18.868 4.94696 19.6621 5.55612C20.1266 5.91452 20.519 6.35779 20.8186 6.86246C21.2713 7.61481 21.7299 8.36363 22.1756 9.1195C22.2055 9.19003 22.2584 9.24831 22.3258 9.28478C22.3931 9.32125 22.4708 9.33374 22.5462 9.3202C22.8664 9.28499 23.1878 9.27208 23.5584 9.24744C23.5103 9.14063 23.4763 9.0573 23.4353 8.97748C23.0177 8.14063 22.5966 7.30377 22.1803 6.46574C22.1256 6.36289 22.0839 6.2537 22.0559 6.14063C22.0258 6.0209 22.0373 5.89444 22.0887 5.78218C22.1401 5.66992 22.2283 5.57858 22.3386 5.52326C22.4495 5.4581 22.5798 5.43415 22.7066 5.45562C22.8333 5.47709 22.9485 5.5426 23.0318 5.64063C23.112 5.7387 23.1797 5.84633 23.2335 5.96105C23.7214 6.92701 24.214 7.89063 24.6867 8.86481C24.6996 8.9053 24.7204 8.94283 24.7479 8.97521C24.7754 9.00758 24.8091 9.03415 24.847 9.05338C24.8849 9.0726 24.9262 9.08409 24.9685 9.08718C25.0109 9.09027 25.0534 9.0849 25.0937 9.07138C25.7564 8.95401 26.4214 8.85189 27.0876 8.74626C27.2039 8.727 27.3216 8.71718 27.4395 8.71692C27.5826 8.71067 27.7228 8.75908 27.8317 8.85233C27.9406 8.94559 28.01 9.07675 28.0259 9.21927C28.0444 9.35643 28.0112 9.49556 27.9326 9.6095C27.8541 9.72344 27.736 9.80401 27.6013 9.83546C27.1545 9.93523 26.7006 10.001 26.2478 10.0702C25.835 10.1371 25.4174 10.1876 25.0057 10.2639C24.8881 10.2942 24.7851 10.3654 24.7149 10.4646C24.3219 11.035 23.9513 11.6207 23.5596 12.1923C23.2992 12.5726 22.8207 12.5937 22.5802 12.2451C22.416 12.0103 22.4488 11.7639 22.5978 11.5326C22.7667 11.2697 22.9426 11.0115 23.1127 10.7498C23.1573 10.6747 23.2007 10.5925 23.2781 10.4622ZM15.3459 8.80612C15.2837 8.65236 15.2509 8.56316 15.2122 8.47513C14.7712 7.49861 14.3219 6.52443 13.8915 5.54086C13.8593 5.45633 13.8059 5.38151 13.7365 5.32355C13.6671 5.26559 13.584 5.22645 13.4951 5.20987C11.9914 4.83561 10.5373 4.28401 9.1636 3.56668C8.04936 2.96809 6.98088 2.28382 5.89479 1.63476C5.2091 1.21478 4.38735 1.07735 3.60246 1.25138C2.81756 1.42541 2.13071 1.89735 1.68647 2.56786C1.23683 3.24192 1.06831 4.06516 1.21689 4.86185C1.36546 5.65854 1.81936 6.36555 2.48169 6.83194C3.88915 7.8249 5.3834 8.65237 6.91167 9.43993C7.6154 9.80377 8.20186 9.84133 8.86454 9.40002C9.28326 9.12185 9.76764 8.9458 10.2227 8.72162C10.3036 8.68171 10.3811 8.63476 10.4843 8.57724C10.374 8.5256 10.2943 8.49039 10.2168 8.45283C9.00878 7.86598 7.79603 7.28851 6.59382 6.69227C6.093 6.44227 5.95812 6.11363 6.15751 5.77091C6.3569 5.42819 6.69 5.40354 7.15681 5.67115C8.99746 6.73443 10.9557 7.57933 12.9919 8.18875C13.7531 8.4094 14.5272 8.59016 15.3459 8.80612ZM20.5605 10.5667C19.7536 10.515 19.0029 10.488 18.2558 10.4165C16.228 10.2203 14.2258 9.81519 12.2811 9.20753C12.1367 9.16917 11.9835 9.1816 11.8472 9.24274C11.1059 9.59486 10.3752 9.95635 9.64097 10.3167C9.56591 10.3542 9.49555 10.4 9.39116 10.4599C11.3266 11.1685 13.3318 11.6697 15.3729 11.9552C16.1528 12.062 16.9316 12.2075 17.728 12.0796C18.8183 11.9133 19.8183 11.3771 20.5605 10.5608V10.5667ZM15.2169 5.63711C15.7165 6.74626 16.2044 7.83781 16.7076 8.92349C16.7425 8.96612 16.7856 9.00128 16.8344 9.02689C16.8831 9.0525 16.9365 9.06803 16.9914 9.07255C17.6283 9.15354 18.2664 9.23688 18.9067 9.28734C19.5706 9.33899 20.2368 9.35307 20.9933 9.38828C20.4491 8.52913 19.9823 7.72983 19.4475 6.981C19.2363 6.68523 18.895 6.4587 18.5713 6.27678C18.2789 6.11993 17.9613 6.01546 17.633 5.96809C16.8436 5.83194 16.0414 5.74391 15.2169 5.63476V5.63711Z" fill="black"/>
</g>
<defs>
<clipPath id="clip0_11_3175">
<rect width="30" height="30" fill="white"/>
</clipPath>
</defs>
</svg>
