<svg width="222" height="84" viewBox="0 0 222 84" fill="none" xmlns="http://www.w3.org/2000/svg">
<g id="Group 18">
<path id="Fill 1" fill-rule="evenodd" clip-rule="evenodd" d="M84 9.3701C84 8.51142 84.1587 7.70087 84.4787 6.94014C84.7978 6.17856 85.2335 5.51577 85.7865 4.95261C86.3369 4.38776 86.9938 3.93942 87.7544 3.60845C88.516 3.27663 89.3256 3.11115 90.1851 3.11115C91.0437 3.11115 91.8542 3.27663 92.6149 3.60845C93.3755 3.93942 94.0383 4.38776 94.6031 4.95261C95.1671 5.51577 95.6145 6.17856 95.9472 6.94014C96.2773 7.70087 96.4444 8.51142 96.4444 9.3701C96.4444 10.2541 96.2773 11.0697 95.9472 11.8178C95.6145 12.5675 95.1671 13.2177 94.6031 13.7699C94.0383 14.3212 93.3755 14.7577 92.6149 15.0769C91.8542 15.396 91.0437 15.5556 90.1851 15.5556C89.3256 15.5556 88.516 15.396 87.7544 15.0769C86.9938 14.7577 86.3369 14.3212 85.7865 13.7699C85.2335 13.2177 84.7978 12.5675 84.4787 11.8178C84.1587 11.0697 84 10.2541 84 9.3701Z" fill="white"/>
<path id="Fill 3" fill-rule="evenodd" clip-rule="evenodd" d="M20.4084 37.3451C20.7461 37.1242 21.0256 36.9103 21.2471 36.7035C21.4678 36.4957 21.6429 36.2484 21.7739 35.9579C21.9034 35.6683 22.0021 35.3101 22.0668 34.8823C22.1315 34.4536 22.1647 33.9229 22.1647 33.2874C22.1647 32.5982 22.0925 31.8324 21.9498 30.99C21.8063 30.1476 21.5649 29.3554 21.2264 28.609C20.8887 27.8644 20.459 27.2429 19.9397 26.7465C19.4195 26.2492 18.7948 26.001 18.0672 26.001C17.1314 26.001 16.3309 26.2976 15.6664 26.8909C15.0043 27.485 14.4576 28.2508 14.0287 29.1891C13.5998 30.1274 13.2605 31.1969 13.0141 32.3975C12.7669 33.5981 12.5769 34.8057 12.4475 36.0204C12.318 37.2351 12.2392 38.4014 12.2143 39.5184C12.187 40.6371 12.1745 41.5834 12.1745 42.3544L20.4084 37.3451ZM12.5653 45.7503C12.5653 46.6341 12.688 47.5926 12.9361 48.6277C13.1833 49.662 13.5401 50.7042 14.0088 51.7534C14.4775 52.8026 15.0558 53.8025 15.7452 54.7549C16.4337 55.7064 17.2285 56.5558 18.1253 57.3014C19.0229 58.046 20.0176 58.6402 21.1111 59.0811C22.2037 59.523 23.4 59.7439 24.7008 59.7439C25.6109 59.7439 26.4562 59.6339 27.2369 59.4121C28.0176 59.1921 28.746 58.8884 29.4221 58.502C30.0982 58.1156 30.7486 57.6675 31.3725 57.1561C31.998 56.6465 32.6227 56.1007 33.2466 55.5216L34.2222 56.5144C33.6232 57.37 32.8559 58.3092 31.9192 59.3294C30.9834 60.3513 29.8518 61.3107 28.5245 62.2077C27.1979 63.1046 25.6499 63.8493 23.8811 64.4425C22.1116 65.0358 20.0965 65.3333 17.8325 65.3333C15.5693 65.3333 13.365 64.8985 11.2188 64.0297C9.07178 63.1592 7.16617 61.8556 5.50197 60.1163C3.83611 58.377 2.50376 56.2117 1.50242 53.6159C0.500255 51.0219 0 47.9861 0 44.5075C0 41.9962 0.29783 39.6918 0.897637 37.5934C1.49496 35.4959 2.30797 33.6052 3.33669 31.9213C4.36375 30.2383 5.56087 28.7613 6.92641 27.4912C8.29112 26.2219 9.72883 25.1666 11.2379 24.3242C12.747 23.4827 14.2875 22.8481 15.863 22.4194C17.4367 21.9916 18.9508 21.7777 20.4084 21.7777C22.3331 21.7777 24.0106 21.9987 25.4416 22.4405C26.8735 22.8824 28.0624 23.4748 29.0123 24.2212C29.9622 24.9659 30.6715 25.8285 31.1394 26.809C31.6073 27.7887 31.8412 28.8159 31.8412 29.8933C31.8412 31.1899 31.4903 32.3561 30.7876 33.3913C30.0858 34.4264 29.1492 35.3304 27.9778 36.1032L12.5653 45.7503Z" fill="white"/>
<g id="Group 7">
<mask id="mask0_1_2667" style="mask-type:alpha" maskUnits="userSpaceOnUse" x="34" y="21" width="44" height="63">
<path id="Clip 6" fill-rule="evenodd" clip-rule="evenodd" d="M34.222 21.7777H77.7776V84H34.222V21.7777Z" fill="white"/>
</mask>
<g mask="url(#mask0_1_2667)">
<path id="Fill 5" fill-rule="evenodd" clip-rule="evenodd" d="M52.6441 54.4145C52.6441 54.6287 52.7407 55.0034 52.9357 55.5385C53.1306 56.0736 53.4363 56.6215 53.8528 57.1848C54.2701 57.7464 54.8045 58.2473 55.4575 58.6894C56.1106 59.1306 56.9098 59.3517 57.8544 59.3517C59.0764 59.3517 60.1193 58.9036 60.9797 58.0067C61.841 57.1105 62.5499 55.8935 63.1055 54.3547C63.6611 52.8151 64.0642 51.022 64.3141 48.9746C64.5658 46.9272 64.6898 44.7398 64.6898 42.4107C64.6898 39.5474 64.5303 37.1262 64.2105 35.1453C63.8906 33.1645 63.4254 31.5668 62.814 30.3481C62.2025 29.1311 61.4733 28.2477 60.6262 27.699C59.7782 27.1511 58.8265 26.8763 57.7711 26.8763C57.1597 26.8763 56.5474 27.0435 55.9369 27.3772C55.3264 27.7126 54.7761 28.1274 54.2914 28.6224C53.8041 29.1174 53.408 29.6722 53.1023 30.2875C52.7974 30.9037 52.6441 31.4926 52.6441 32.0541V54.4145ZM39.8488 28.8434C39.8488 28.0677 39.661 27.3917 39.287 26.8156C38.9113 26.2396 38.2786 25.9528 37.3899 25.9528C36.9167 25.9528 36.5144 26.0322 36.1803 26.1935C35.8472 26.3539 35.4856 26.5818 35.0975 26.8762L34.222 25.8726C34.8609 25.3639 35.5778 24.8621 36.3691 24.3671C37.1613 23.8721 38.0146 23.4377 38.9317 23.0622C39.8488 22.6884 40.835 22.3794 41.8913 22.1396C42.9475 21.8981 44.0578 21.7777 45.2248 21.7777C46.476 21.7777 47.5455 21.9655 48.4352 22.3402C49.3239 22.714 50.0674 23.1629 50.6646 23.6852C51.2618 24.2067 51.7129 24.7554 52.0194 25.3306C52.3252 25.9059 52.505 26.394 52.5609 26.7952C53.1164 26.0467 53.7766 25.3639 54.5404 24.7486C55.3051 24.1324 56.1381 23.6041 57.0419 23.1629C57.9439 22.7208 58.9027 22.3794 59.9164 22.1396C60.931 21.8981 61.9801 21.7777 63.0647 21.7777C65.2871 21.7777 67.3012 22.219 69.108 23.1023C70.913 23.9856 72.4627 25.2974 73.7547 27.0367C75.0475 28.7769 76.04 30.931 76.7347 33.4999C77.4294 36.0687 77.7776 39.0396 77.7776 42.4107C77.7776 46.3187 77.354 49.6437 76.506 52.3858C75.658 55.1305 74.5469 57.3717 73.1716 59.111C71.7955 60.8512 70.2262 62.116 68.4611 62.9046C66.6969 63.694 64.899 64.0892 63.0647 64.0892C61.5353 64.0892 60.1955 63.9407 59.0418 63.6471C57.889 63.3535 56.8957 62.9916 56.0627 62.5632C55.228 62.1356 54.5333 61.7012 53.9786 61.2591C53.4221 60.8179 52.9782 60.4492 52.6441 60.1548V79.7448C52.6441 80.0913 52.5892 80.5078 52.4776 80.9892C52.3668 81.4705 52.0956 81.9322 51.6659 82.3743C51.2335 82.8155 50.5955 83.1962 49.7475 83.5179C48.8995 83.8388 47.7404 84.0001 46.2677 84.0001C44.7942 84.0001 43.6351 83.832 42.7871 83.4974C41.9391 83.162 41.294 82.7618 40.8492 82.2932C40.4044 81.8255 40.127 81.3561 40.0163 80.8885C39.9046 80.4199 39.8488 80.0393 39.8488 79.7448V28.8434Z" fill="white"/>
</g>
</g>
<path id="Fill 8" fill-rule="evenodd" clip-rule="evenodd" d="M99.5557 60.9529C99.5557 61.3113 99.4929 61.7453 99.3663 62.254C99.2397 62.7653 98.9434 63.2468 98.4792 63.701C98.015 64.156 97.3461 64.5417 96.4733 64.8571C95.6006 65.1752 94.4172 65.3333 92.9258 65.3333C91.4327 65.3333 90.2646 65.1611 89.4206 64.8176C88.5757 64.4732 87.9418 64.0664 87.5198 63.5982C87.0978 63.1299 86.8374 62.6476 86.7386 62.1512C86.6399 61.6566 86.5905 61.2569 86.5905 60.9529V29.0512C86.5905 28.2526 86.4001 27.5568 86.0212 26.9647C85.6406 26.3725 84.9995 26.0756 84.0989 26.0756C83.6195 26.0756 83.2118 26.159 82.8733 26.3233C82.5357 26.4902 82.1694 26.7231 81.7761 27.027L80.889 25.993C81.5364 25.4711 82.2628 24.9537 83.0646 24.4441C83.8673 23.9337 84.7319 23.4865 85.6612 23.1008C86.5905 22.716 87.5889 22.398 88.6601 22.1502C89.7303 21.9025 90.8554 21.7777 92.0379 21.7777C93.8686 21.7777 95.2908 22.0202 96.3045 22.5025C97.3173 22.984 98.0634 23.5761 98.542 24.279C99.0206 24.9809 99.3097 25.7321 99.4085 26.5307C99.5063 27.3301 99.5557 28.0321 99.5557 28.6392V60.9529Z" fill="white"/>
<path id="Fill 10" fill-rule="evenodd" clip-rule="evenodd" d="M121.333 58.1056C121.333 58.4481 121.269 58.8571 121.144 59.3325C121.017 59.8071 120.721 60.2556 120.256 60.6781C119.792 61.1005 119.116 61.4632 118.229 61.7661C117.342 62.0691 116.153 62.2222 114.661 62.2222C113.168 62.2222 112 62.0564 111.155 61.7274C110.31 61.3975 109.684 61.0088 109.276 60.5586C108.868 60.1109 108.614 59.6498 108.515 59.1735C108.417 58.6997 108.367 58.3168 108.367 58.0257V6.96678C108.367 6.20186 108.178 5.53539 107.798 4.96654C107.417 4.40021 106.777 4.11662 105.876 4.11662C105.397 4.11662 104.981 4.18899 104.63 4.33373C104.277 4.47931 103.905 4.69726 103.51 4.98757L102.667 4.03752C103.314 3.53598 104.032 3.04202 104.82 2.55395C105.609 2.06504 106.474 1.63672 107.417 1.26646C108.36 0.897039 109.366 0.594099 110.438 0.356796C111.507 0.118652 112.633 0 113.815 0C115.645 0 117.068 0.230571 118.081 0.692555C119.094 1.15454 119.84 1.72171 120.319 2.39407C120.798 3.06811 121.086 3.77918 121.185 4.53232C121.283 5.28378 121.333 5.95025 121.333 6.53088V58.1056Z" fill="white"/>
<path id="Fill 12" fill-rule="evenodd" clip-rule="evenodd" d="M155.462 43.1004C155.462 40.8971 155.388 38.7684 155.24 36.7162C155.091 34.6648 154.803 32.8392 154.374 31.2412C153.943 29.6432 153.325 28.3693 152.519 27.4196C151.712 26.4682 150.651 25.9929 149.335 25.9929C148.016 25.9929 146.955 26.4963 146.148 27.5013C145.343 28.5072 144.723 29.8294 144.293 31.4687C143.863 33.1072 143.581 34.9749 143.448 37.0676C143.313 39.1611 143.245 41.31 143.245 43.5142C143.245 45.7184 143.313 47.8743 143.448 49.981C143.581 52.0895 143.863 53.9687 144.293 55.6212C144.723 57.2746 145.343 58.6038 146.148 59.6088C146.955 60.6156 148.016 61.1181 149.335 61.1181C150.651 61.1181 151.712 60.5936 152.519 59.5473C153.325 58.501 153.943 57.1234 154.374 55.4147C154.803 53.7069 155.091 51.7785 155.24 49.6296C155.388 47.4807 155.462 45.3055 155.462 43.1004ZM130.667 43.5142C130.667 39.9052 131.177 36.7443 132.198 34.0305C133.22 31.3168 134.583 29.0511 136.291 27.2325C137.998 25.4148 139.98 24.0505 142.238 23.1412C144.495 22.2328 146.86 21.7777 149.335 21.7777C151.806 21.7777 154.171 22.1986 156.428 23.0384C158.687 23.8792 160.67 25.1662 162.376 26.9022C164.083 28.6381 165.447 30.8353 166.468 33.4929C167.49 36.1513 168 39.2999 168 42.9353C168 46.5451 167.49 49.7395 166.468 52.5226C165.447 55.3049 164.083 57.6462 162.376 59.5473C160.67 61.4485 158.687 62.8875 156.428 63.8644C154.171 64.8431 151.806 65.3333 149.335 65.3333C146.86 65.3333 144.495 64.8712 142.238 63.9487C139.98 63.0254 137.998 61.6549 136.291 59.8364C134.583 58.0178 133.22 55.7459 132.198 53.0181C131.177 50.2903 130.667 47.1232 130.667 43.5142Z" fill="white"/>
<path id="Fill 14" fill-rule="evenodd" clip-rule="evenodd" d="M186.573 34.7056C186.734 33.1827 187.015 31.8207 187.417 30.6203C187.82 29.4217 188.369 28.4501 189.066 27.7089C189.764 26.9677 190.662 26.5962 191.762 26.5962C192.862 26.5962 193.761 26.9539 194.457 27.6684C195.155 28.383 195.705 29.3202 196.107 30.4793C196.51 31.6384 196.791 32.96 196.952 34.4416C197.113 35.9257 197.194 37.4494 197.194 39.0126C197.194 40.6042 197.113 42.182 196.952 43.7444C196.791 45.3094 196.51 46.7178 196.107 47.9715C195.705 49.226 195.155 50.2441 194.457 51.0257C193.761 51.8082 192.862 52.1977 191.762 52.1977C190.662 52.1977 189.764 51.8271 189.066 51.0851C188.369 50.3447 187.82 49.3679 187.417 48.1538C187.015 46.9405 186.734 45.5656 186.573 44.0282C186.412 42.4916 186.332 40.9275 186.332 39.3368C186.332 37.7727 186.412 36.2284 186.573 34.7056ZM184.039 54.5847C185.192 55.043 186.425 55.3929 187.739 55.6354C189.053 55.8779 190.395 56 191.762 56C194.096 56 196.322 55.6294 198.44 54.8873C200.559 54.1461 202.423 53.0472 204.033 51.5915C205.641 50.1357 206.922 48.3421 207.875 46.2122C208.826 44.0814 209.302 41.6283 209.302 38.8509C209.302 36.6411 208.994 34.672 208.377 32.9454C207.76 31.2205 206.888 29.7106 205.762 28.4165C206.379 27.9315 207.03 27.364 207.713 26.7174C208.397 26.0708 209.021 25.3829 209.583 24.6555C210.147 23.9263 210.616 23.1653 210.991 22.3691C211.367 21.5746 211.556 20.7723 211.556 19.9632C211.556 18.5883 211.22 17.51 210.549 16.7275C209.878 15.9459 208.913 15.5555 207.653 15.5555C207.197 15.5555 206.782 15.5753 206.406 15.6149C206.03 15.6561 205.654 15.7163 205.279 15.798C204.904 15.8788 204.488 15.9932 204.033 16.1411C203.576 16.2899 203.053 16.4584 202.464 16.6467V17.8196C203.401 17.8196 204.173 18.1566 204.777 18.8308C205.38 19.5049 205.682 20.4077 205.682 21.5402C205.682 22.4035 205.521 23.2668 205.198 24.1292C204.877 24.9925 204.461 25.8145 203.952 26.5962C202.343 25.3021 200.492 24.345 198.401 23.7242C196.309 23.1043 194.096 22.7947 191.762 22.7947C189.429 22.7947 187.203 23.1378 185.085 23.8257C182.966 24.5136 181.102 25.5514 179.492 26.9392C177.884 28.3288 176.603 30.0545 175.651 32.1165C174.699 34.1801 174.222 36.586 174.222 39.3367C174.222 41.0083 174.404 42.5586 174.765 43.9877C175.128 45.4168 175.637 46.7178 176.295 47.8906C176.951 49.0635 177.743 50.116 178.669 51.0446C179.593 51.975 180.605 52.7643 181.705 53.4109" fill="white"/>
<path id="Fill 16" fill-rule="evenodd" clip-rule="evenodd" d="M220.381 71.1402C217.351 64.0614 202.282 61.0923 202.282 61.0923C202.282 61.0923 186.455 57.6496 181.838 56.8828C180.284 56.6252 179.412 55.8384 178.926 54.9129C178.919 54.8982 178.912 54.8843 178.905 54.8696C177.979 53.0498 178.541 50.7113 178.541 50.7113C178.541 50.3365 178.312 49.9983 177.96 49.8525C177.564 49.6869 177.104 49.8031 176.838 50.1344L174.42 53.146C173.505 54.2225 172.726 55.2833 172.085 56.3285C171.599 57.1231 171.318 57.9653 171.203 58.8457C171.203 58.8492 171.203 58.8518 171.203 58.8552C171.189 58.9524 171.169 59.0469 171.161 59.1467C171.157 59.1987 171.154 59.2516 171.151 59.3046C170.758 63.8749 173.208 65.8655 182.03 67.5882L190.382 69.4991C191.743 69.8044 192.865 70.1088 193.563 70.3127C194.351 70.5443 195.066 71.1272 195.191 71.9234L195.235 72.4144C195.219 72.9062 194.557 74.0165 192.391 75.0348V75.0339C191.869 75.3219 191.385 75.557 190.923 75.7738C190.605 75.9403 190.259 76.1511 189.913 76.3792C187.87 77.7237 188.802 80.875 191.262 80.888C191.293 80.8888 191.324 80.8888 191.355 80.8888H213.913C215.26 80.8888 216.792 80.4378 217.868 79.697C220.675 77.7636 221.558 74.1856 220.381 71.1402Z" fill="white"/>
</g>
</svg>
