<svg width="21" height="15" viewBox="0 0 21 15" fill="none" xmlns="http://www.w3.org/2000/svg">
<path d="M18 0H3C1.59375 0 0.5 1.13281 0.5 2.5V12.5C0.5 13.9062 1.59375 15 3 15H18C19.3672 15 20.5 13.9062 20.5 12.5V2.5C20.5 1.13281 19.3672 0 18 0ZM3 1.875H18C18.3125 1.875 18.625 2.1875 18.625 2.5V3.39844L12.1016 8.78906C11.2031 9.53125 9.75781 9.53125 8.85938 8.78906L2.375 3.39844V2.5C2.375 2.1875 2.64844 1.875 3 1.875ZM18 13.125H3C2.64844 13.125 2.375 12.8516 2.375 12.5V5.82031L7.6875 10.2734C8.46875 10.8984 9.44531 11.25 10.5 11.25C11.5156 11.25 12.4922 10.8984 13.2734 10.2734L18.625 5.82031V12.5C18.625 12.8516 18.3125 13.125 18 13.125Z" fill="white"/>
</svg>
