<svg width="24" height="38" viewBox="0 0 24 38" fill="none" xmlns="http://www.w3.org/2000/svg">
<g clip-path="url(#clip0_684_309)">
<path d="M11.965 4.92383C8.83848 4.92828 6.27298 7.49601 6.26296 10.6314C6.25406 13.8013 8.81734 16.379 11.9872 16.3868C15.1215 16.3935 17.7081 13.8391 17.7259 10.7171C17.7449 7.50825 15.1716 4.92049 11.965 4.92494V4.92383ZM11.9939 15.0345C9.57642 15.0345 7.61639 13.0745 7.61639 10.657C7.61639 8.23951 9.57642 6.27948 11.9939 6.27948C14.4114 6.27948 16.3714 8.23951 16.3714 10.657C16.3714 13.0745 14.4114 15.0345 11.9939 15.0345Z" fill="#112548"/>
<path d="M8.9677 25.6939C7.26033 23.4467 8.07172 21.1016 9.38842 19.9808C10.8687 18.7198 13.0603 18.7042 14.5584 19.953C15.8294 21.0137 16.7777 23.3365 15.027 25.6728C15.4276 25.6817 15.756 25.5336 15.9697 25.2409C17.381 23.3121 18.8268 21.401 19.5436 19.067C19.6938 18.5762 19.853 18.0876 19.9999 17.5945C20.119 17.1927 20.3717 17.0024 20.7957 17.0079C21.6016 17.0179 22.4063 17.0068 23.2121 17.0124C23.8031 17.0168 24.0647 17.3296 23.989 17.9239C23.6005 20.958 22.5421 23.735 20.798 26.2482C19.7206 27.8009 18.6432 29.3546 17.5836 30.9207C17.4467 31.1221 17.3554 31.3981 17.3532 31.6408C17.3342 33.4216 17.3432 35.2024 17.3432 37.0178H16.0287C16.0231 36.8964 16.0109 36.7629 16.0109 36.6293C16.0098 34.8485 15.9986 33.0665 16.022 31.2857C16.0253 31.0019 16.13 30.6791 16.2891 30.4443C17.4255 28.7625 18.5886 27.0997 19.7406 25.429C21.2076 23.3032 22.1536 20.968 22.5777 18.3491C22.1369 18.3491 21.7162 18.3369 21.2966 18.3602C21.2165 18.3647 21.0996 18.5027 21.0762 18.5973C20.4129 21.3754 18.8001 23.6426 17.1606 25.8932C16.6086 26.6522 15.8506 27.0307 14.9101 27.0318C12.9657 27.0329 11.0212 27.0329 9.07677 27.0318C8.27095 27.0318 7.53413 26.7791 7.04885 26.1391C5.51845 24.1235 4.02145 22.0811 3.23232 19.6257C3.21117 19.5601 3.18891 19.4933 3.16887 19.4276C2.78822 18.2 2.78266 18.1966 1.427 18.3881C1.69858 20.1455 2.18942 21.844 3.06091 23.3877C3.85115 24.7879 4.77496 26.1146 5.66315 27.4581C6.33764 28.4776 7.05776 29.4682 7.73781 30.4843C7.87026 30.6814 7.98045 30.9385 7.98379 31.17C8.00382 33.0487 7.99492 34.9275 7.99381 36.8063C7.99381 36.8731 7.98379 36.9398 7.976 37.0289H6.66152V36.5926C6.66152 34.9642 6.67265 33.3359 6.65039 31.7076C6.64705 31.4382 6.55467 31.131 6.40442 30.9084C5.29251 29.2611 4.1461 27.6372 3.02863 25.9933C1.39806 23.5948 0.417494 20.9458 0.0268249 18.0753C-0.0833639 17.2639 0.141466 17.0135 0.969551 17.0124C1.66407 17.0124 2.3586 17.0124 3.05312 17.0124C3.69199 17.0124 3.82667 17.1003 4.02701 17.6947C4.18617 18.1688 4.32196 18.6496 4.47222 19.126C4.91965 20.5451 5.63421 21.8295 6.46674 23.0505C6.92865 23.7283 7.40947 24.3928 7.87916 25.0651C8.13071 25.4257 8.46239 25.6461 8.9677 25.6928V25.6939ZM9.33165 23.016C9.32831 24.5008 10.5148 25.6961 11.9907 25.6961C13.4554 25.6961 14.6686 24.4752 14.6597 23.0127C14.6508 21.5613 13.4543 20.3626 12.0073 20.3548C10.5281 20.347 9.33499 21.5346 9.33165 23.0171V23.016Z" fill="#112548"/>
<path d="M5.39259 4.89946C4.81382 4.32069 4.19832 3.70741 3.57837 3.08746C3.84883 2.81589 4.14044 2.52316 4.39198 2.27051C5.00971 2.89046 5.61964 3.50262 6.24516 4.12813C6.00475 4.34517 5.69199 4.62899 5.39259 4.89946Z" fill="#112548"/>
<path d="M19.5868 2.24707C19.845 2.5231 20.1333 2.83252 20.3982 3.11634C19.8005 3.71403 19.1883 4.3273 18.5751 4.94169C18.3057 4.67345 18.0063 4.37405 17.7258 4.09357C18.3424 3.48141 18.9568 2.87147 19.5868 2.24707Z" fill="#112548"/>
<path d="M11.3706 0H12.6517V2.62004H11.3706V0Z" fill="#112548"/>
<path d="M3.30675 10.6563H0.701172V9.35742H3.30675V10.6563Z" fill="#112548"/>
<path d="M20.7 9.3418H23.3078V10.6418H20.7V9.3418Z" fill="#112548"/>
</g>
<defs>
<clipPath id="clip0_684_309">
<rect width="24" height="37.029" fill="white"/>
</clipPath>
</defs>
</svg>
