<svg width="109" height="59" viewBox="0 0 109 59" fill="none" xmlns="http://www.w3.org/2000/svg">
<path fill-rule="evenodd" clip-rule="evenodd" d="M88.5382 52.4962C89.5249 50.671 89.8922 48.6555 89.9774 46.6714C90.5256 33.9067 80.9974 21.7675 73.1392 10.9759C71.1727 8.27503 69.0787 5.5714 66.137 3.44838C63.1956 1.32537 59.2613 -0.176976 55.2203 0.0168117C44.5933 0.526246 39.1001 10.2458 34.965 16.3993C28.6127 25.8521 25 36.2239 25 46.8795C25 51.3092 26.1123 56.4342 32.2097 58.2122C35.243 59.0968 38.5891 59.0662 41.831 58.9235C50.8469 58.5271 59.9769 58.755 69.0261 58.6956C75.6777 58.6521 84.1359 58.689 87.8243 53.6287C88.0922 53.2612 88.3291 52.883 88.5382 52.4962Z" fill="#C1DFEA"/>
<g clip-path="url(#clip0_426_395)">
<path d="M109 51.6802H69.6036V51.6171C69.6033 51.3584 69.5014 51.1104 69.3204 50.9274C69.1393 50.7445 68.8938 50.6416 68.6377 50.6413H66.4746C66.0752 50.6406 65.6802 50.5579 65.3135 50.3982C64.9469 50.2385 64.6161 50.0052 64.3414 49.7124C64.1263 49.4827 63.8784 49.2158 63.6019 48.916C63.5388 48.8476 63.497 48.7621 63.4813 48.67C63.4657 48.578 63.4769 48.4833 63.5138 48.3976C63.5506 48.3119 63.6114 48.2389 63.6886 48.1875C63.7659 48.1362 63.8564 48.1087 63.9488 48.1085H69.6112C70.178 48.1082 70.7383 47.9875 71.2559 47.7543C71.7735 47.521 72.2368 47.1804 72.6156 46.7546L72.6283 46.7403C77.2416 41.5481 85.2104 31.9514 86.75 26.0186C87.8525 21.7696 87.0994 17.1844 84.6834 13.4388C82.188 9.56987 78.212 7.01597 73.4882 6.24853C73.4096 6.2363 73.3308 6.22406 73.252 6.21183C72.919 6.16246 72.6162 6.34249 72.4983 6.66051C72.3804 6.97853 72.4912 7.31307 72.7733 7.49585L72.8087 7.51897C75.069 8.99273 77.117 11.758 78.4275 15.108C79.8162 18.6567 80.258 22.5068 79.6715 25.9488C78.8889 30.5421 75.5188 37.3872 72.8296 42.3206C72.6082 42.7269 72.3893 43.1245 72.1727 43.5135C71.9354 43.9386 71.5904 44.2924 71.1732 44.5386C70.756 44.7848 70.2815 44.9145 69.7983 44.9146C68.2958 44.9146 67.0733 43.6797 67.0733 42.1619V8.4512C67.0733 7.1002 65.9852 6.00098 64.6475 6.00098C62.4405 6.00098 60.136 7.30646 58.1588 9.67667C54.6241 13.9124 52.8832 20.4742 53.8247 26.0043C54.6268 30.7124 58.0979 37.727 60.8683 42.7827C61.0015 43.0268 61.1343 43.2677 61.2667 43.5054C61.3467 43.6492 61.388 43.8116 61.3866 43.9765C61.3852 44.1414 61.3411 44.3031 61.2587 44.4455C61.1763 44.5879 61.0584 44.706 60.9168 44.7881C60.7753 44.8702 60.6149 44.9135 60.4516 44.9136C60.3176 44.9137 60.1852 44.8847 60.0633 44.8286C59.9415 44.7725 59.8329 44.6906 59.7451 44.5885C59.3872 44.1717 58.7252 43.3995 58.3139 42.9092C54.0051 37.7746 48.6115 30.6616 47.3848 25.9345C45.4832 18.6064 49.3352 10.788 56.345 7.74872L56.4075 7.72175C56.8668 7.52264 56.9992 7.07414 56.9267 6.71777C56.8542 6.36139 56.5572 6.00208 56.0571 6.00208H0V6.33239H56.0563C56.3939 6.33239 56.5632 6.57609 56.6057 6.78475C56.6482 6.9934 56.5875 7.28444 56.2787 7.41859L56.2157 7.44593C52.6742 8.98172 49.8088 11.7382 48.1471 15.2075C46.5225 18.5995 46.1393 22.4394 47.0684 26.0199C48.3106 30.8071 53.7337 37.9638 58.0645 43.1244C58.4769 43.6159 59.1398 44.3892 59.4982 44.8065C59.6167 44.9444 59.7631 45.055 59.9276 45.1308C60.0921 45.2066 60.2708 45.2457 60.4516 45.2456H60.4527C60.6729 45.2454 60.8893 45.1869 61.0803 45.0761C61.2713 44.9653 61.4303 44.8059 61.5415 44.6139C61.6527 44.4218 61.7122 44.2037 61.7142 43.9812C61.7161 43.7587 61.6604 43.5396 61.5527 43.3456C61.4211 43.1085 61.2886 42.8681 61.1552 42.6244C58.3969 37.5911 54.9422 30.6126 54.1478 25.9499C53.2213 20.5105 54.9335 14.0569 58.4087 9.89065C60.3226 7.59678 62.5384 6.33239 64.6474 6.33239C65.2038 6.33303 65.7372 6.55657 66.1307 6.95399C66.5241 7.3514 66.7455 7.89024 66.7462 8.4523V42.163C66.7462 43.8631 68.1152 45.246 69.7981 45.246C70.3393 45.2459 70.8708 45.1005 71.338 44.8247C71.8053 44.5489 72.1916 44.1526 72.4574 43.6764C72.6739 43.287 72.8934 42.8886 73.1157 42.481C75.8171 37.5254 79.2032 30.6447 79.9935 26.0059C80.5899 22.5049 80.1417 18.5921 78.7312 14.9876C77.3956 11.574 75.3008 8.75105 72.9848 7.24058L72.9484 7.21728C72.7642 7.098 72.755 6.90531 72.8031 6.77575C72.8512 6.6462 72.9848 6.50489 73.2028 6.53719C73.2806 6.54869 73.3583 6.56093 73.4357 6.57389C78.0682 7.32628 81.9644 9.82844 84.4083 13.6185C86.774 17.2861 87.5117 21.7749 86.4326 25.934C84.9105 31.7997 76.9773 41.3488 72.384 46.519L72.3713 46.5331C72.0231 46.9245 71.5973 47.2375 71.1216 47.4519C70.6459 47.6663 70.1309 47.7772 69.6099 47.7775H63.9488C63.7926 47.7776 63.6398 47.8239 63.5091 47.9105C63.3785 47.9971 63.2757 48.1204 63.2135 48.2652C63.1512 48.41 63.1321 48.57 63.1586 48.7255C63.185 48.8811 63.2559 49.0255 63.3624 49.141C63.6398 49.4414 63.8884 49.7088 64.1036 49.9392C64.409 50.2646 64.7766 50.5239 65.1842 50.7013C65.5917 50.8788 66.0307 50.9707 66.4746 50.9715H68.6377C68.8071 50.9717 68.9695 51.0397 69.0892 51.1607C69.209 51.2817 69.2764 51.4458 69.2766 51.6169V51.68H65.18C64.9239 51.6803 64.6784 51.7832 64.4973 51.9661C64.3162 52.149 64.2144 52.397 64.2141 52.6557V54.0242C64.2143 54.2829 64.3162 54.5309 64.4972 54.7139C64.6783 54.8969 64.9239 54.9998 65.18 55.0001H68.6377C68.8938 54.9998 69.1393 54.8969 69.3204 54.7139C69.5015 54.5309 69.6033 54.2829 69.6036 54.0242V52.0105H109V51.6802ZM69.2766 54.0243C69.2764 54.1955 69.2091 54.3596 69.0893 54.4806C68.9695 54.6017 68.8071 54.6697 68.6377 54.6699H65.18C65.0106 54.6697 64.8481 54.6017 64.7283 54.4806C64.6085 54.3596 64.5411 54.1955 64.5409 54.0243V52.6559C64.5411 52.4848 64.6086 52.3207 64.7284 52.1997C64.8482 52.0788 65.0106 52.0107 65.18 52.0105H69.2766V54.0243Z" fill="black" stroke="black" stroke-width="0.5"/>
</g>
<defs>
<clipPath id="clip0_426_395">
<rect width="109" height="49" fill="white" transform="translate(0 6)"/>
</clipPath>
</defs>
</svg>
