<svg width="99" height="111" viewBox="0 0 99 111" fill="none" xmlns="http://www.w3.org/2000/svg">
<path fill-rule="evenodd" clip-rule="evenodd" d="M69.0923 92.5786C67.1268 91.575 65.2846 90.2724 63.514 88.8647C61.7458 87.4588 59.181 87.9405 58.0343 89.9159C55.0083 95.1217 52.1353 98.9961 46.9022 103.097C44.9145 104.652 42.9145 106.218 40.6753 107.349C37.5581 108.923 34.0957 109.597 30.6703 110.161C23.047 111.416 15.4807 110.511 9.28485 105.32C-0.545815 97.0833 -2.98184 80.9024 3.96397 69.9771C5.9556 66.8442 8.5719 64.1718 11.4296 61.8605C19.5496 55.2936 31.0673 51.6408 40.2536 56.483C46.044 59.5337 49.9898 62.6153 53.7703 67.2032C55.398 69.1814 58.4338 68.9302 59.7581 66.7223C61.9924 62.9947 64.4437 59.4185 67.5485 56.4494C71.9703 52.2195 77.9925 49.3278 83.963 50.1993C92.4069 51.4324 98.5846 60.3358 98.5624 69.1369C98.5303 81.6816 86.4957 97.2902 73.2477 94.139C71.7952 93.7937 70.4166 93.2537 69.0923 92.5786Z" fill="#B7C0EB"/>
<mask id="mask0_11_3516" style="mask-type:alpha" maskUnits="userSpaceOnUse" x="0" y="50" width="99" height="61">
<path fill-rule="evenodd" clip-rule="evenodd" d="M69.0923 92.5786C67.1268 91.575 65.2846 90.2724 63.514 88.8647C61.7458 87.4588 59.181 87.9405 58.0343 89.9159C55.0083 95.1217 52.1353 98.9961 46.9022 103.097C44.9145 104.652 42.9145 106.218 40.6753 107.349C37.5581 108.923 34.0957 109.597 30.6703 110.161C23.047 111.416 15.4807 110.511 9.28485 105.32C-0.545815 97.0833 -2.98184 80.9024 3.96397 69.9771C5.9556 66.8442 8.5719 64.1718 11.4296 61.8605C19.5496 55.2936 31.0673 51.6408 40.2536 56.483C46.044 59.5337 49.9898 62.6153 53.7703 67.2032C55.398 69.1814 58.4338 68.9302 59.7581 66.7223C61.9924 62.9947 64.4437 59.4185 67.5485 56.4494C71.9703 52.2195 77.9925 49.3278 83.963 50.1993C92.4069 51.4324 98.5846 60.3358 98.5624 69.1369C98.5303 81.6816 86.4957 97.2902 73.2477 94.139C71.7952 93.7937 70.4166 93.2537 69.0923 92.5786Z" fill="white"/>
</mask>
<g mask="url(#mask0_11_3516)">
<g style="mix-blend-mode:luminosity" opacity="0.15">
<path fill-rule="evenodd" clip-rule="evenodd" d="M51.098 96.1982C51.098 96.1982 90.7768 83.7277 95.7183 43.3327C100.66 2.93767 100.458 90.9575 100.458 90.9575L66.7184 110.857L51.098 96.1982Z" fill="white"/>
</g>
</g>
<path fill-rule="evenodd" clip-rule="evenodd" d="M39.8077 67.7609C44.3169 64.9718 42.964 54.5843 43.9015 50.1074C44.2887 48.258 44.9938 46.3683 46.4384 45.2118C47.4023 44.4401 48.603 44.069 49.7737 43.7135C54.6748 42.225 63.3551 42.5196 64.1618 35.7076C64.5095 32.7697 62.6619 29.9054 60.2392 28.3173C57.8166 26.7289 54.9092 26.1796 52.071 25.7838C49.5972 25.4389 46.9724 25.1295 44.9917 23.5511C42.8487 21.8433 41.9003 18.9836 41.415 16.2341C40.9296 13.4848 40.7815 10.6336 39.745 8.05009C38.7087 5.46672 36.482 3.12364 33.7832 3.07303C31.1099 3.02317 28.8705 5.19275 27.491 7.55593C25.9164 10.2534 25.0483 13.3896 25.0026 16.5467C24.9703 18.7747 25.2875 21.2131 24.0676 23.044C22.5512 25.3197 19.4605 25.5471 16.7951 25.7919C13.3342 26.1099 9.77088 26.8896 7.03398 29.0942C4.29681 31.2987 2.62998 35.2406 3.86706 38.6076C5.35028 42.6448 10.0231 44.1961 14.1368 44.9092C18.2504 45.6225 22.8746 46.2806 25.431 49.6987C27.3769 52.3004 27.5624 55.8089 28.0039 59.0618C28.4452 62.3146 29.489 65.9001 32.2916 67.4514C33.6301 68.1924 35.1882 68.351 36.701 68.4465C37.9652 68.5262 38.9843 68.2703 39.8077 67.7609Z" fill="#B3D2A3"/>
</svg>
