<svg width="220" height="97" viewBox="0 0 220 97" fill="none" xmlns="http://www.w3.org/2000/svg">
<path fill-rule="evenodd" clip-rule="evenodd" d="M129.558 91.6471C129.032 92.2329 128.444 92.7638 127.77 93.1713C126.858 93.7218 125.817 94.0235 124.776 94.2645C121.264 95.0775 117.737 95.0462 114.16 94.9541C107.848 94.7915 101.535 94.5349 95.229 94.1861C90.5915 93.9275 88.9778 90.9849 88.7171 86.6572C88.3853 81.1696 88.0653 75.6527 88.0258 70.1534C87.9942 65.8277 87.8817 61.0689 88.5947 56.7843C88.7685 55.7303 89.0055 54.6665 89.5348 53.7359C90.548 51.955 92.527 50.8795 94.5476 50.472C98.5491 49.6648 103.262 50.3054 107.358 50.3054C112.811 50.3054 118.898 49.5512 124.28 50.4132C125.827 50.662 127.36 51.2831 128.426 52.4213C129.185 53.2324 129.666 54.2531 130.137 55.2562C132.704 60.7359 132.975 66.8111 132.898 72.7552C132.819 78.7129 133.992 86.1478 130.002 91.122C129.858 91.3003 129.71 91.4767 129.558 91.6471Z" fill="#6B99C4"/>
<path fill-rule="evenodd" clip-rule="evenodd" d="M171.887 75.038C171.871 75.6134 171.794 76.188 171.61 76.7339C171.362 77.4726 170.923 78.1332 170.456 78.7598C168.881 80.8741 166.897 82.5245 164.857 84.1644C161.257 87.0584 157.612 89.8999 153.928 92.6872C151.217 94.7357 148.925 93.8563 146.733 91.5641C143.953 88.6582 141.166 85.7302 138.544 82.6795C136.481 80.2801 134.168 77.6773 132.54 74.9488C132.138 74.2783 131.768 73.5725 131.623 72.8028C131.347 71.3297 131.943 69.7937 132.878 68.6108C134.729 66.2683 137.663 64.3975 139.949 62.4606C142.992 59.8822 146.033 56.5829 149.445 54.5192C150.426 53.9268 151.575 53.5487 152.708 53.6797C153.515 53.7738 154.267 54.1156 155.003 54.4532C159.027 56.2976 162.051 59.5605 164.819 62.9145C167.592 66.2771 171.762 69.872 171.887 74.5348C171.891 74.7025 171.892 74.871 171.887 75.038Z" fill="#6B99C4"/>
<path d="M1 92.595C1 92.595 17.5647 92.161 20.441 93.0289C23.3172 93.8967 13.3944 94.0407 12.9629 93.6072C12.5314 93.1737 12.3874 73.651 12.9629 72.2045C13.5384 70.7579 21.4463 72.3493 24.7549 71.6258C28.0634 70.9023 23.1736 71.7726 22.3106 72.0597C21.4475 72.3468 22.3106 93.3176 22.3106 93.3176C22.3106 93.3176 54.066 93.8959 50.7582 94.0403C47.4505 94.1847 49.7517 78.4226 58.2363 78.1335C66.721 77.8443 67.7255 88.5473 67.8711 91.7271C68.0167 94.9069 63.7008 95.6337 63.7008 94.0419C63.7008 92.4502 64.51 83.841 60.9681 81.0262C57.4263 78.2114 54.2091 80.0135 52.6275 84.7855C51.0458 89.5575 50.9018 94.1855 52.342 93.8963C53.7821 93.6072 31.9213 93.7515 31.6338 92.3054C31.3463 90.8592 31.4894 73.0723 32.4964 72.4957C33.5034 71.919 39.543 70.6156 40.4056 72.4957C41.2682 74.3758 42.7067 93.898 40.8371 91.1505C38.9675 88.4029 40.1185 71.1152 42.9943 71.5163C45.8701 71.9174 88.4374 72.2061 87.7179 72.7848C86.9985 73.3635 87.2864 56.5355 86.9989 57.259C86.7113 57.9825 27.6066 57.3411 26.6004 57.2279C25.5942 57.1147 27.6066 71.3387 26.0253 71.3387C24.4441 71.3387 36.8103 72.7848 37.5298 70.4708C38.2492 68.1568 38.9675 27.4062 38.1049 26.1065C37.2422 24.8068 28.612 23.7909 31.6322 25.0922C34.6523 26.3936 84.265 25.5262 82.3958 25.8153C80.5266 26.1044 60.9686 2.53293 61.5436 1.52071C62.1187 0.508488 56.2231 1.23361 54.6406 1.52071C53.0582 1.80781 31.9197 21.7664 32.3508 22.7786C32.7819 23.7909 38.8223 22.4915 41.267 22.2003C43.7117 21.9091 64.2763 3.68953 60.1055 3.83472C55.9348 3.9799 38.1032 22.925 42.5607 23.6465C47.0182 24.3679 46.7311 58.5587 45.4369 56.3895C44.1428 54.2203 45.4369 27.1171 47.4501 26.9723C49.4633 26.8275 74.7733 27.8402 75.4924 27.2619C76.2114 26.6836 75.2069 46.4113 75.0609 49.7375C74.9148 53.0637 76.499 56.3895 74.9173 56.5339C73.3356 56.6783 60.2487 56.9682 63.9867 55.6665C63.9867 55.6665 72.61 55.6152 71.5512 55.2604C70.4924 54.9056 71.9921 39.1944 64.8424 37.7741C57.6926 36.3538 53.8094 38.9283 52.9264 43.0998C52.0434 47.2713 53.3677 55.349 52.1323 56.0602C50.8969 56.7714 47.101 56.6549 49.9258 56.5347C52.7506 56.4145 87.724 56.5347 87.724 56.5347C88.5777 57.5473 88.1641 73.7962 87.724 74.2302C87.284 74.6641 79.8055 73.941 81.1 74.3745C82.3946 74.808 80.8121 94.5161 80.3806 94.8573C79.949 95.1985 69.8827 94.9094 72.9025 94.1863C75.9223 93.4632 96.1993 94.0415 96.1993 94.0415C96.1993 94.0415 97.3499 74.6637 96.1993 74.2318C95.0487 73.7999 89.2967 74.3762 90.3037 74.8101C91.3107 75.244 97.7847 74.2293 98.0702 75.6755C98.3557 77.1216 99.2207 94.6194 98.0702 94.3303C96.9196 94.0411 219 94.1855 219 94.1855" stroke="#332C2B" stroke-linecap="round" stroke-linejoin="round"/>
</svg>
