<svg width="15" height="14" viewBox="0 0 15 14" fill="none" xmlns="http://www.w3.org/2000/svg">
<path d="M14.0625 10.75C14.0625 12.332 12.8027 13.5625 11.25 13.5625C9.66797 13.5625 8.4375 12.332 8.4375 10.75C8.4375 10.6621 8.4375 10.5449 8.4668 10.4277L5.68359 9.05078C5.18555 9.51953 4.48242 9.8125 3.75 9.8125C2.16797 9.8125 0.9375 8.58203 0.9375 7C0.9375 5.44727 2.16797 4.1875 3.75 4.1875C4.48242 4.1875 5.18555 4.50977 5.68359 4.97852L8.4668 3.60156C8.4375 3.48438 8.4375 3.36719 8.4375 3.25C8.4375 1.69727 9.66797 0.4375 11.25 0.4375C12.8027 0.4375 14.0625 1.69727 14.0625 3.25C14.0625 4.83203 12.8027 6.0625 11.25 6.0625C10.4883 6.0625 9.78516 5.76953 9.28711 5.30078L6.50391 6.67773C6.5332 6.79492 6.5625 6.88281 6.5625 7C6.5625 7.11719 6.5332 7.23438 6.50391 7.35156L9.28711 8.72852C9.78516 8.25977 10.4883 7.9375 11.25 7.9375C12.8027 7.9375 14.0625 9.19727 14.0625 10.75Z" fill="white"/>
</svg>
