<svg width="18" height="19" viewBox="0 0 18 19" fill="none" xmlns="http://www.w3.org/2000/svg">
<path d="M14 10.75C12.8672 10.75 11.8516 11.2578 11.1484 12.0781L7.63281 10.3203C7.71094 10.0469 7.75 9.77344 7.75 9.5C7.75 9.26562 7.71094 8.99219 7.63281 8.71875L11.1484 6.96094C11.8516 7.74219 12.8672 8.25 14 8.25C16.0703 8.25 17.75 6.60938 17.75 4.5C17.75 2.42969 16.0703 0.75 14 0.75C11.8906 0.75 10.25 2.42969 10.25 4.5C10.25 4.77344 10.25 5.04688 10.3281 5.32031L6.8125 7.07812C6.10938 6.25781 5.09375 5.75 4 5.75C1.89062 5.75 0.25 7.42969 0.25 9.5C0.25 11.6094 1.89062 13.25 4 13.25C5.09375 13.25 6.10938 12.7812 6.8125 11.9609L10.3281 13.7188C10.25 13.9922 10.25 14.2656 10.25 14.5C10.25 16.6094 11.8906 18.25 14 18.25C16.0703 18.25 17.75 16.6094 17.75 14.5C17.75 12.4297 16.0703 10.75 14 10.75ZM14 2.625C15.0156 2.625 15.875 3.48438 15.875 4.5C15.875 5.55469 15.0156 6.375 14 6.375C12.9453 6.375 12.125 5.55469 12.125 4.5C12.125 3.48438 12.9453 2.625 14 2.625ZM4 11.375C2.94531 11.375 2.125 10.5547 2.125 9.5C2.125 8.48438 2.94531 7.625 4 7.625C5.01562 7.625 5.875 8.48438 5.875 9.5C5.875 10.5547 5.01562 11.375 4 11.375ZM14 16.375C12.9453 16.375 12.125 15.5547 12.125 14.5C12.125 13.4844 12.9453 12.625 14 12.625C15.0156 12.625 15.875 13.4844 15.875 14.5C15.875 15.5547 15.0156 16.375 14 16.375Z" fill="#4059AD"/>
</svg>
