<svg width="32" height="32" viewBox="0 0 32 32" fill="none" xmlns="http://www.w3.org/2000/svg">
<path d="M16.0175 2.34859e-05C24.8371 0.0150452 32.015 7.20668 32 16.0144C31.985 24.8221 24.7946 32.015 15.9825 32C7.17038 31.985 -0.0149929 24.7933 2.34938e-05 15.9856C0.0150399 7.17788 7.21164 -0.0149982 16.0175 2.34859e-05ZM30.4245 16.0232C30.452 8.10798 24 1.62737 16.0338 1.58105C8.12388 1.52973 1.60679 8.02661 1.57926 15.9881C1.55173 23.9033 8.00127 30.3839 15.97 30.4315C23.8773 30.4765 30.3969 23.9784 30.4245 16.0169V16.0232Z" fill="#112548"/>
<path d="M11.1611 22.1544H12.7266C12.7625 22.7734 13.0181 23.3594 13.4474 23.8067C13.9525 24.2999 14.5913 24.634 15.2844 24.7675C15.9775 24.901 16.6946 24.8281 17.3467 24.5578C18.1563 24.2061 18.7669 23.6665 19.0523 22.8053C19.0648 22.7652 19.0798 22.7264 19.0898 22.6801C19.1336 22.5036 19.1224 22.2332 19.2312 22.1706C19.3889 22.078 19.6342 22.1331 19.8406 22.1318C20.1122 22.1318 20.3825 22.1318 20.6528 22.1418C20.6703 22.1418 20.689 22.1581 20.7391 22.1844C20.6765 23.6715 19.9883 24.822 18.7369 25.5931C16.9537 26.6884 15.1017 26.7097 13.2922 25.6682C11.9708 24.9183 11.235 23.7492 11.1611 22.1544Z" fill="#112548"/>
<path d="M9.50183 14.9653V16.4972H4.52637V14.9653H9.50183Z" fill="#112548"/>
<path d="M27.3787 14.9678V16.4946H22.3958V14.9678H27.3787Z" fill="#112548"/>
</svg>
