<svg width="238" height="166" viewBox="0 0 238 166" fill="none" xmlns="http://www.w3.org/2000/svg">
<path fill-rule="evenodd" clip-rule="evenodd" d="M196.827 81.7462C196.735 81.2328 196.547 80.7585 196.214 80.3408C195.62 79.5667 194.576 79.0458 192.808 78.8939C193.483 78.2581 194.062 77.5269 194.525 76.7235C194.856 76.1865 195.057 75.5798 195.111 74.9517C195.165 74.3237 195.071 73.6917 194.837 73.1062C194.694 72.7531 194.515 72.416 194.301 72.1006C194.445 71.3285 194.539 70.548 194.583 69.7639C194.801 66.8773 194.873 61.6973 194.699 52.0247C194.496 41.0499 193.982 24.2729 193.33 5L192.431 5.0217C193.076 24.2874 193.605 41.0716 193.801 52.0464C193.975 61.6756 193.902 66.8266 193.692 69.7205C193.648 70.3137 193.598 70.8056 193.54 71.218C193.223 70.8915 192.873 70.5982 192.496 70.3426C191.565 69.6525 190.43 69.2934 189.271 69.3226C189.12 69.3331 188.969 69.3548 188.821 69.3877C187.922 69.5972 187.121 70.1078 186.553 70.8346C186.012 71.466 185.725 72.2756 185.748 73.1062C185.755 73.1965 185.77 73.2861 185.792 73.3739C185.896 73.7406 186.08 74.0799 186.33 74.3676C186.581 74.6552 186.892 74.8841 187.241 75.0379C188.104 75.4606 189.049 75.6878 190.01 75.7034C190.722 75.7382 191.431 75.5886 192.068 75.2694C192.638 74.9601 193.132 74.5305 193.518 74.0106C193.695 73.7903 193.842 73.5469 193.953 73.2871L194.011 73.4318C194.197 73.9009 194.271 74.4071 194.225 74.9097C194.18 75.4123 194.017 75.8972 193.75 76.3256C193.178 77.2806 192.442 78.1279 191.576 78.8288H191.047C186.642 79.1347 182.305 80.0703 178.167 81.6068C173.861 83.0978 169.764 85.1328 165.976 87.6622C161.393 90.7828 157.413 94.7042 154.227 99.2375C151.053 103.739 148.731 108.783 147.378 114.119C145.921 119.944 145.616 125.996 146.479 131.938C147.267 137.63 149.258 143.09 152.321 147.955C155.68 153.175 160.265 157.496 165.679 160.543C171.269 163.683 177.504 165.507 183.907 165.875C191.58 166.31 199.248 164.952 206.303 161.911C212.771 159.213 218.345 154.75 222.386 149.033C227.148 142.052 229.351 132.893 230.707 124.935C231.608 124.039 232.458 123.092 233.251 122.099C235.599 119.161 237.027 116.166 237.418 113.374C237.771 111.351 237.464 109.269 236.541 107.434C236.304 107.014 235.942 106.678 235.505 106.472C235.286 106.379 235.046 106.345 234.81 106.373C234.573 106.401 234.348 106.49 234.157 106.631C233.461 107.094 232.765 108.259 232.222 110.371C231.729 112.274 231.337 114.951 230.881 118.105C230.62 120.08 230.279 122.243 229.895 124.515C227.885 126.468 225.702 128.236 223.372 129.796C219.02 132.689 214.36 135.091 209.478 136.959C204.909 138.771 200.132 140.01 195.258 140.648C191.057 141.193 186.79 140.912 182.697 139.823C178.916 138.78 175.421 136.892 172.477 134.303C169.47 131.646 167.028 128.414 165.295 124.797C163.597 121.358 162.672 117.59 162.584 113.757C162.589 110.09 163.419 106.47 165.012 103.166C166.778 99.5051 169.205 96.2014 172.173 93.4209C176.203 89.601 181.189 86.5915 185.313 84.1028C187.183 82.9814 188.879 81.9613 190.256 80.9919C190.873 80.5651 191.416 80.1527 191.902 79.7548C193.895 79.7837 194.939 80.1527 195.526 80.8979C195.72 81.1444 195.846 81.4305 195.922 81.7462H196.827ZM193.373 72.3104C193.298 72.727 193.119 73.1178 192.851 73.4463H192.829C192.512 73.8721 192.107 74.2249 191.641 74.4808C191.128 74.7316 190.559 74.8485 189.988 74.8208C189.163 74.8066 188.352 74.6115 187.611 74.2493C187.375 74.1528 187.163 74.0055 186.99 73.8179C186.817 73.6304 186.688 73.4072 186.611 73.1641C186.603 73.1162 186.603 73.0673 186.611 73.0194C186.608 72.4138 186.83 71.8287 187.234 71.3772C187.678 70.8049 188.305 70.4016 189.01 70.2341C189.12 70.2096 189.231 70.1927 189.343 70.1835C190.311 70.166 191.258 70.4715 192.032 71.0516C192.543 71.3979 192.995 71.8228 193.373 72.3104ZM190.43 79.7476C190.213 79.914 189.988 80.0731 189.749 80.2395H189.764C188.437 81.1511 186.741 82.1928 184.871 83.3214C180.704 85.8101 175.674 88.8342 171.579 92.7264C168.532 95.5811 166.041 98.9732 164.229 102.732C162.574 106.147 161.712 109.891 161.707 113.685C161.796 117.645 162.748 121.538 164.498 125.094C166.272 128.828 168.778 132.168 171.869 134.918C174.914 137.592 178.527 139.541 182.436 140.619C186.635 141.737 191.012 142.026 195.323 141.473C200.269 140.825 205.116 139.569 209.753 137.733C214.694 135.843 219.412 133.417 223.821 130.498C225.868 129.127 227.807 127.601 229.62 125.933C228.264 133.515 226.083 142.023 221.647 148.534C217.693 154.113 212.245 158.468 205.926 161.1C198.997 164.086 191.465 165.419 183.929 164.992C177.668 164.649 171.569 162.879 166.099 159.82C160.815 156.838 156.337 152.617 153.053 147.521C150.056 142.761 148.106 137.42 147.335 131.851C146.492 126.02 146.792 120.081 148.219 114.365C149.55 109.133 151.827 104.188 154.938 99.7729C158.058 95.3088 161.962 91.4459 166.462 88.3712C170.189 85.8819 174.22 83.8785 178.457 82.4099C182.315 81.0062 186.34 80.1112 190.43 79.7476ZM232.577 121.52C232.084 122.142 231.54 122.764 230.961 123.386C231.219 121.792 231.445 120.257 231.657 118.817L231.658 118.816L231.751 118.185L231.782 117.971C232.224 114.926 232.595 112.376 233.07 110.538C233.555 108.657 234.113 107.659 234.642 107.311C234.718 107.251 234.808 107.212 234.903 107.198C234.999 107.184 235.097 107.196 235.186 107.232C235.453 107.369 235.671 107.587 235.809 107.854C236.491 108.932 236.875 110.994 236.57 113.207C236.201 115.848 234.831 118.684 232.577 121.52Z" fill="black"/>
<rect x="189" width="17" height="59" fill="url(#paint0_linear_401_8)"/>
<path fill-rule="evenodd" clip-rule="evenodd" d="M44.1958 137.527C42.0735 136.83 39.7405 137.221 37.961 138.571L27.4993 146.509C23.0186 149.909 16.5756 146.707 16.5959 141.091L16.6441 127.977C16.6517 125.747 15.5601 123.655 13.7247 122.384L2.92284 114.91C-1.70254 111.709 -0.641394 104.606 4.71765 102.89L17.2356 98.8836C19.363 98.2023 21.0207 96.5196 21.663 94.384L25.4506 81.8259C27.0728 76.448 34.1733 75.2601 37.4634 79.8157L45.1503 90.4535C46.4577 92.2627 48.575 93.3142 50.8089 93.2653L63.9514 92.9784C69.5795 92.8556 72.9051 99.2243 69.5795 103.756L61.8139 114.337C60.4938 116.136 60.146 118.469 60.8822 120.574L65.2182 132.955C67.0739 138.257 62.0297 143.381 56.6833 141.626L44.1958 137.527Z" fill="#F4B942"/>
<mask id="mask0_401_8" style="mask-type:alpha" maskUnits="userSpaceOnUse" x="0" y="77" width="71" height="71">
<path fill-rule="evenodd" clip-rule="evenodd" d="M44.1958 137.527C42.0735 136.83 39.7405 137.221 37.961 138.571L27.4993 146.509C23.0186 149.909 16.5756 146.707 16.5959 141.091L16.6441 127.977C16.6517 125.747 15.5601 123.655 13.7247 122.384L2.92284 114.91C-1.70254 111.709 -0.641394 104.606 4.71765 102.89L17.2356 98.8836C19.363 98.2023 21.0207 96.5196 21.663 94.384L25.4506 81.8259C27.0728 76.448 34.1733 75.2601 37.4634 79.8157L45.1503 90.4535C46.4577 92.2627 48.575 93.3142 50.8089 93.2653L63.9514 92.9784C69.5795 92.8556 72.9051 99.2243 69.5795 103.756L61.8139 114.337C60.4938 116.136 60.146 118.469 60.8822 120.574L65.2182 132.955C67.0739 138.257 62.0297 143.381 56.6833 141.626L44.1958 137.527Z" fill="white"/>
</mask>
<g mask="url(#mask0_401_8)">
<g style="mix-blend-mode:luminosity" opacity="0.15">
<path fill-rule="evenodd" clip-rule="evenodd" d="M23.1152 76.8544C23.1152 76.8544 34.9989 103.881 44.5293 105.051C54.0596 106.221 58.6456 102.638 58.1441 106.723C57.6426 110.807 55.5409 122.296 64.3905 123.383C73.2402 124.469 87.7977 90.3244 87.7977 90.3244L34.1501 65.7713L23.1152 76.8544Z" fill="white"/>
</g>
</g>
<path fill-rule="evenodd" clip-rule="evenodd" d="M124.263 88.3816C123.338 88.0778 122.321 88.2479 121.546 88.8363L116.986 92.2965C115.033 93.7785 112.225 92.3827 112.234 89.9349L112.255 84.2188C112.258 83.2468 111.782 82.3352 110.982 81.7813L106.274 78.5234C104.258 77.1283 104.72 74.0324 107.056 73.2846L112.512 71.5382C113.44 71.2413 114.162 70.5079 114.442 69.577L116.093 64.1034C116.8 61.7594 119.895 61.2417 121.329 63.2273L124.679 67.8639C125.249 68.6524 126.172 69.1107 127.146 69.0894L132.874 68.9644C135.327 68.9108 136.777 71.6867 135.327 73.6617L131.942 78.2737C131.367 79.058 131.215 80.0747 131.536 80.9923L133.426 86.3887C134.235 88.6996 132.036 90.9329 129.706 90.1679L124.263 88.3816Z" fill="#F4B942"/>
<mask id="mask1_401_8" style="mask-type:alpha" maskUnits="userSpaceOnUse" x="105" y="62" width="31" height="31">
<path fill-rule="evenodd" clip-rule="evenodd" d="M124.263 88.3816C123.338 88.0778 122.321 88.2479 121.546 88.8363L116.986 92.2965C115.033 93.7785 112.225 92.3827 112.234 89.9349L112.255 84.2188C112.258 83.2468 111.782 82.3352 110.982 81.7813L106.274 78.5234C104.258 77.1283 104.72 74.0324 107.056 73.2846L112.512 71.5382C113.44 71.2413 114.162 70.5079 114.442 69.577L116.093 64.1034C116.8 61.7594 119.895 61.2417 121.329 63.2273L124.679 67.8639C125.249 68.6524 126.172 69.1107 127.146 69.0894L132.874 68.9644C135.327 68.9108 136.777 71.6867 135.327 73.6617L131.942 78.2737C131.367 79.058 131.215 80.0747 131.536 80.9923L133.426 86.3887C134.235 88.6996 132.036 90.9329 129.706 90.1679L124.263 88.3816Z" fill="white"/>
</mask>
<g mask="url(#mask1_401_8)">
<g style="mix-blend-mode:luminosity" opacity="0.15">
<path fill-rule="evenodd" clip-rule="evenodd" d="M115.075 61.9365C115.075 61.9365 120.255 73.7162 124.409 74.2262C128.562 74.7363 130.561 73.1746 130.343 74.9549C130.124 76.7351 129.208 81.7427 133.065 82.2163C136.922 82.6899 143.268 67.8075 143.268 67.8075L119.885 57.1057L115.075 61.9365Z" fill="white"/>
</g>
</g>
<defs>
<linearGradient id="paint0_linear_401_8" x1="194.5" y1="42.5" x2="194" y2="54.5" gradientUnits="userSpaceOnUse">
<stop stop-color="#ECEEFD"/>
<stop offset="1" stop-color="#EEEFFD" stop-opacity="0"/>
</linearGradient>
</defs>
</svg>
