<svg width="134" height="116" viewBox="0 0 134 116" fill="none" xmlns="http://www.w3.org/2000/svg">
<path fill-rule="evenodd" clip-rule="evenodd" d="M77.3858 9.00998C92.8887 11.5027 104.346 25.9028 105.309 41.4044C106.074 53.7679 99.1908 63.4455 90.7145 71.7567C89.6431 72.8082 88.5426 73.8358 87.4294 74.8431C84.3517 77.622 81.2847 82.0174 76.692 79.2479C75.4626 78.5043 74.5748 77.3206 73.737 76.1548C63.3062 61.6603 55.0058 45.8594 45.0279 31.0905C42.9384 27.9994 40.4484 24.0248 43.1669 20.484C46.6077 16.0071 51.9011 14.0706 56.8936 11.9741C62.2361 9.73014 68.0349 8.41925 73.8622 8.65791C75.0565 8.70802 76.2307 8.82674 77.3858 9.00998Z" fill="#B3D2A3"/>
<mask id="mask0_401_6" style="mask-type:alpha" maskUnits="userSpaceOnUse" x="41" y="8" width="65" height="73">
<path fill-rule="evenodd" clip-rule="evenodd" d="M77.3858 9.00998C92.8887 11.5027 104.346 25.9028 105.309 41.4044C106.074 53.7679 99.1908 63.4455 90.7145 71.7567C89.6431 72.8082 88.5426 73.8358 87.4294 74.8431C84.3517 77.622 81.2847 82.0174 76.692 79.2479C75.4626 78.5043 74.5748 77.3206 73.737 76.1548C63.3062 61.6603 55.0058 45.8594 45.0279 31.0905C42.9384 27.9994 40.4484 24.0248 43.1669 20.484C46.6077 16.0071 51.9011 14.0706 56.8936 11.9741C62.2361 9.73014 68.0349 8.41925 73.8622 8.65791C75.0565 8.70802 76.2307 8.82674 77.3858 9.00998Z" fill="white"/>
</mask>
<g mask="url(#mask0_401_6)">
<g style="mix-blend-mode:luminosity" opacity="0.15">
<path fill-rule="evenodd" clip-rule="evenodd" d="M80.478 87.5725C80.478 87.5725 109.619 44.3172 81.7399 0.897485C53.8604 -42.5223 125.063 43.822 125.063 43.822L107.824 89.7046L80.478 87.5725Z" fill="white"/>
</g>
</g>
<path d="M131.985 36.6591C131.766 36.877 131.642 37.1554 131.496 37.4206C129.895 40.3164 128.203 43.1599 126.4 45.934C124.274 49.1913 121.973 52.3317 119.507 55.3415C116.775 58.691 113.872 61.8914 110.977 65.0969C109.216 67.0466 107.438 68.9806 105.642 70.8989C103.324 73.3684 100.926 75.7579 98.3347 77.9469C96.1071 79.8297 93.7686 81.5478 91.1642 82.8802C88.3787 84.306 85.4527 85.2052 82.2785 85.1114C80.8625 85.0559 79.4584 84.8269 78.0979 84.4296C75.6578 83.746 73.4425 82.5871 71.2636 81.3477C67.9386 79.448 64.8034 77.263 61.7673 74.9349C60.2601 73.7802 58.7972 72.572 57.3412 71.3526C54.779 69.2051 52.378 66.8826 49.9242 64.6163C45.4168 60.4539 40.6951 56.5643 35.474 53.3056C33.2165 51.8993 30.9065 50.585 28.5764 49.305C26.2245 48.0133 23.8653 46.7345 21.5197 45.4305C18.5962 43.8071 15.7409 42.0739 13.0483 40.0859L13.3228 39.0615C14.7329 40.1812 16.2566 41.137 17.7747 42.0982C21.0043 44.1538 24.4058 45.9013 27.7522 47.7472C31.1644 49.6335 34.5665 51.5389 37.8076 53.7146C39.9958 55.1827 42.097 56.7673 44.1428 58.4254C46.8584 60.6279 49.4039 63.0199 51.9511 65.4094C54.2035 67.5215 56.4618 69.6263 58.8385 71.6011C61.9762 74.2073 65.2242 76.6656 68.6625 78.8663C70.4894 80.0516 72.3832 81.1306 74.3345 82.0981C76.0816 82.9705 77.9393 83.6017 79.8564 83.9744C81.5291 84.2844 83.2432 84.2974 84.9196 84.0129C87.1681 83.6374 89.2485 82.8271 91.2382 81.7277C93.9569 80.2245 96.376 78.3286 98.6787 76.2657C101.319 73.8983 103.741 71.3258 106.101 68.6902C109.119 65.3212 112.147 61.9607 115.124 58.557C118.302 54.9234 121.329 51.168 124.102 47.2117C125.828 44.7483 127.413 42.1965 128.962 39.6211C130.277 37.4353 131.497 35.1953 132.7 32.9456C132.828 32.7034 132.925 32.4327 133.165 32.2651L131.985 36.6591Z" fill="black"/>
<path d="M123.16 69.5952C122.635 70.1408 122.116 70.6921 121.584 71.2309C119.075 73.7608 116.413 76.1339 113.611 78.3367C111.925 79.6701 110.183 80.9273 108.446 82.1897C107.854 82.6202 107.217 82.9891 106.605 83.3914C104.935 84.4902 103.187 85.459 101.424 86.393C99.1664 87.5883 96.8494 88.6616 94.431 89.5083C92.2035 90.2881 89.9339 90.891 87.5855 91.1683C85.4726 91.4217 83.3344 91.3857 81.2304 91.0613C79.9046 90.8489 78.5987 90.5265 77.3263 90.0975C76.1034 89.6842 74.9074 89.1952 73.7454 88.6332C71.1118 87.383 68.5766 85.9588 66.0835 84.4517C61.2104 81.5018 56.5101 78.2763 52.0059 74.791C49.7422 73.0439 47.4946 71.2742 45.1648 69.6144C42.115 67.4414 39.1253 65.1813 35.9631 63.1676C33.378 61.5214 30.7278 59.9881 28.0125 58.5675C24.4026 56.6769 20.7633 54.8398 17.1516 52.9556C14.9319 51.7945 12.7368 50.5824 10.5779 49.3097L10.8134 48.4305C10.9947 48.5188 11.1834 48.5941 11.3558 48.6969C14.1392 50.3571 17.0044 51.8678 19.8893 53.342C23.405 55.139 26.9457 56.8871 30.3928 58.8136C33.0665 60.3076 35.7114 61.8534 38.2348 63.5928C39.9005 64.7423 41.5408 65.9307 43.1757 67.1246C45.035 68.4824 46.8833 69.8554 48.7204 71.2436C50.2731 72.4214 51.7849 73.6517 53.3293 74.8342C55.8617 76.7691 58.455 78.6234 61.1094 80.3973C64.4663 82.6616 67.9367 84.7535 71.5072 86.6647C72.8037 87.3543 74.1206 88.0087 75.4747 88.5649C79.4869 90.2133 83.6316 90.8914 87.9609 90.2314C90.1618 89.8835 92.3203 89.3091 94.402 88.5176C96.1754 87.844 97.9098 87.0726 99.5972 86.2071C101.403 85.2915 103.155 84.2839 104.874 83.2211C106.682 82.1067 108.419 80.8871 110.118 79.6154C112.286 77.9964 114.407 76.3193 116.443 74.5408C118.841 72.4458 121.172 70.2764 123.245 67.8506C123.391 67.6783 123.534 67.4974 123.747 67.3898L123.16 69.5952Z" fill="black"/>
<path d="M118.492 87.0147C117.525 87.656 116.547 88.2867 115.584 88.9383C114.6 89.6042 113.568 90.1975 112.497 90.7137C111.45 91.2197 110.424 91.7689 109.354 92.2262C107.494 93.0231 105.6 93.7325 103.672 94.3545C102.009 94.8869 100.338 95.3904 98.6408 95.8025C96.0314 96.4373 93.4003 96.9414 90.7216 97.1887C88.7053 97.3858 86.6753 97.4061 84.6549 97.2493C82.8878 97.1069 81.1361 96.8121 79.4195 96.3682C76.6618 95.6481 74.0427 94.5813 71.4984 93.3174C67.711 91.4356 64.0227 89.3732 60.3798 87.2267C56.2556 84.7975 52.2272 82.2224 48.2318 79.5907C45.103 77.5304 41.9001 75.5871 38.6691 73.6968C35.8068 72.0233 32.9569 70.329 30.1196 68.6139C27.2782 66.9033 24.3458 65.3539 21.3802 63.8689C17.3064 61.8305 13.23 59.7959 9.15081 57.7653C8.90252 57.6413 8.66173 57.5004 8.41703 57.3703L8.65234 56.4921C11.4204 57.9718 14.2468 59.3341 17.0543 60.737C20.133 62.2751 23.2398 63.7562 26.2661 65.3973C28.559 66.6392 30.8129 67.9473 33.0278 69.3217C35.3948 70.7871 37.8011 72.1877 40.193 73.6121C42.5622 75.0246 44.8896 76.5041 47.2076 78.0001C48.9515 79.1249 50.6653 80.2953 52.4067 81.4225C56.6777 84.1876 61.022 86.8314 65.4661 89.3106C67.6296 90.5182 69.8096 91.7084 72.0486 92.7754C73.3259 93.3845 74.6163 93.9594 75.9492 94.4574C77.782 95.1468 79.666 95.6338 81.5691 96.0535C82.4791 96.2547 83.4175 96.3504 84.3535 96.4286C85.7909 96.5571 87.2355 96.5839 88.6764 96.5088C90.1929 96.4287 91.7038 96.2667 93.2025 96.0235C96.2724 95.5077 99.3001 94.7693 102.262 93.814C104.071 93.2365 105.843 92.5637 107.61 91.8748C109.075 91.3052 110.466 90.5851 111.871 89.8904C114.123 88.7758 116.163 87.3248 118.235 85.9252C118.443 85.7826 118.621 85.5972 118.888 85.5587L118.492 87.0147Z" fill="black"/>
<path d="M115.198 99.3108C113.363 100.048 111.463 100.567 109.544 101.047C107.183 101.637 104.792 102.055 102.388 102.403C100.612 102.663 98.8275 102.88 97.034 103.013C95.2661 103.144 93.498 103.256 91.7264 103.27C89.9308 103.288 88.1359 103.219 86.3417 103.061C84.8518 102.93 83.3779 102.691 81.9088 102.434C80.9385 102.264 79.9878 101.981 79.0329 101.728C76.3315 101.013 73.7602 99.9501 71.2271 98.7853C68.766 97.6528 66.36 96.411 63.9653 95.1455C61.3694 93.7735 58.7715 92.4049 56.1847 91.0175C54.8913 90.3237 53.618 89.5918 52.3371 88.8737C50.4389 87.8086 48.5464 86.7332 46.6426 85.6776C44.0534 84.2399 41.4207 82.8898 38.7729 81.5554C36.2855 80.3057 33.7819 79.0864 31.2817 77.862C28.2349 76.3682 25.2492 74.7578 22.3035 73.0759C19.0677 71.2369 15.7247 69.6012 12.3532 68.0234C10.7487 67.2731 9.15646 66.4953 7.55989 65.7263C7.15036 65.5283 6.74589 65.3187 6.33994 65.1148L6.57526 64.2365C7.48639 64.6751 8.39684 65.1138 9.30657 65.5526C12.2011 66.9501 15.1026 68.3326 17.9875 69.7513C20.0969 70.7893 22.1701 71.9032 24.207 73.093C26.5696 74.4709 28.9973 75.7284 31.4398 76.9562C33.9273 78.2059 36.427 79.4321 38.907 80.6987C42.514 82.541 46.096 84.4282 49.5865 86.4862C51.4184 87.5652 53.2962 88.5653 55.1558 89.5962C58.3208 91.3508 61.501 93.0817 64.7229 94.7315C66.4559 95.6224 68.1778 96.5361 69.9299 97.3894C71.726 98.2674 73.5579 99.0716 75.4271 99.7808C76.4964 100.186 77.6003 100.462 78.6761 100.832C79.9006 101.259 81.1719 101.494 82.4327 101.748C83.9482 102.045 85.4817 102.241 87.023 102.334C88.8677 102.456 90.7123 102.496 92.5613 102.438C94.5105 102.377 96.4543 102.236 98.391 102.029C100.858 101.765 103.307 101.376 105.75 100.926C107.368 100.625 108.954 100.184 110.55 99.7914C112.103 99.4139 113.59 98.8433 115.085 98.2858C115.227 98.2325 115.372 98.186 115.514 98.136L115.198 99.3108Z" fill="black"/>
<path d="M112.688 108.679C111.629 108.792 110.572 108.905 109.517 109C106.262 109.298 103 109.402 99.732 109.403C97.4008 109.404 95.0759 109.329 92.7491 109.218C91.6113 109.165 90.4707 109.096 89.3381 108.953C87.8821 108.77 86.4178 108.647 84.9747 108.363C84.0297 108.178 83.0742 108.06 82.1355 107.855C81.0966 107.626 80.066 107.355 79.0441 107.062C77.1444 106.518 75.2852 105.868 73.4423 105.146C70.8223 104.12 68.2791 102.93 65.7566 101.689C63.4625 100.56 61.1607 99.4453 58.8661 98.3187C54.5932 96.2216 50.3306 94.1045 46.0474 92.0274C44.2717 91.1658 42.4628 90.3726 40.657 89.5714C38.8052 88.7525 36.9448 87.9532 35.0759 87.1734C33.6978 86.5988 32.298 86.0759 30.9114 85.5219C29.1486 84.8165 27.3855 84.112 25.6302 83.3897C24.2244 82.8147 22.8242 82.2262 21.4312 81.611C19.7635 80.8735 18.1306 80.062 16.5289 79.1895C14.3051 77.9767 12.0334 76.8612 9.73236 75.8032C8.07719 75.0414 6.42617 74.2677 4.77954 73.4962C4.57369 73.3994 4.38061 73.2772 4.18126 73.1673L4.41658 72.2891C5.75268 72.894 7.09861 73.4808 8.42455 74.1089C10.8965 75.279 13.3895 76.3964 15.7965 77.6939C17.7343 78.7378 19.6799 79.767 21.6733 80.7038C23.1158 81.3829 24.5802 82.0104 26.0564 82.6122C27.7668 83.3106 29.4761 84.0099 31.1846 84.7104C32.3556 85.1888 33.524 85.6735 34.6987 86.142C36.4365 86.8344 38.1584 87.5689 39.8643 88.3453C41.938 89.2868 44.0118 90.2273 46.0674 91.2066C47.8496 92.0551 49.6036 92.9605 51.3723 93.8371C55.5441 95.9031 59.7171 97.9672 63.8913 100.029C66.5474 101.336 69.2116 102.628 71.934 103.799C72.8626 104.199 73.8296 104.521 74.7569 104.914C75.7631 105.34 76.8189 105.606 77.8568 105.932C78.532 106.144 79.1793 106.453 79.8819 106.567C81.3321 106.802 82.7389 107.229 84.1869 107.487C85.9588 107.802 87.7405 108.017 89.5254 108.202C91.5389 108.41 93.5628 108.49 95.5862 108.543C98.7488 108.62 101.91 108.565 105.07 108.421C107.323 108.318 109.56 108.077 111.798 107.834C112.171 107.793 112.545 107.671 112.924 107.796L112.688 108.679Z" fill="black"/>
</svg>
