<svg width="204" height="99" viewBox="0 0 204 99" fill="none" xmlns="http://www.w3.org/2000/svg">
<path d="M1.39653 77.3772C0.441917 83.9871 0.609041 93.1104 8.91419 96.6833C19.2956 101.149 74.3736 88.2835 79.249 78.9938C80.8385 75.9652 81.8739 73.6794 82.2492 70.4099M1.39653 56.4074C-0.908179 40.8652 8.91419 37.1938 18.7971 37.1938C28.68 37.1938 74.7742 52.3666 79.249 57.7259C81.9175 60.922 82.8038 65.5795 82.2492 70.4099M82.2492 70.4099C108.4 64.2422 125.1 56.1005 144.353 37.1938C152.519 29.1749 155.4 18.8834 147.841 10.9911C140.884 3.72671 122.386 14.9213 122.386 14.9213C122.386 14.9213 113.436 -2.17098 102.697 1.52273C78.7082 9.77336 113.253 62.6957 122.386 70.4099C144.184 88.8226 183.085 71.6604 183.98 72.3749M183.98 72.3749C182 80.3145 191.316 85.5826 196.5 83.3145C204.5 79.8145 204 70.0706 198 67.3145C191.011 64.1042 186 66.8145 183.98 72.3749Z" stroke="#231F20" stroke-width="1.2"/>
<path fill-rule="evenodd" clip-rule="evenodd" d="M17.6515 61.3127C16.1172 61.9733 15.2225 63.6515 15.0986 65.2938C14.5517 72.5238 26.1701 80.3162 32.6099 79.7295C40.4405 79.0162 42.4136 67.9856 42.6286 60.4065C42.7125 57.4579 40.9334 54.2425 37.9907 53.714C35.354 53.2403 32.7719 55.0418 31.262 57.2347C30.5428 58.2781 29.9638 59.4478 28.9888 60.2653C27.8413 61.2283 26.2666 61.5784 24.7644 61.5263C24.2349 61.5078 23.7142 61.4382 23.1988 61.3511C21.3395 61.0367 19.5514 60.4945 17.6515 61.3127Z" fill="#F18273"/>
<g style="mix-blend-mode:luminosity" opacity="0.15">
<path fill-rule="evenodd" clip-rule="evenodd" d="M26.1362 79.0916C26.1362 79.0916 41.3789 71.2463 40.4705 55.1977C39.5621 39.149 45.8402 73.3182 45.8402 73.3182L33.5507 83.596L26.1362 79.0916Z" fill="white"/>
</g>
<path fill-rule="evenodd" clip-rule="evenodd" d="M52.3948 33.1963C53.4703 33.5386 54.1835 34.6075 54.3759 35.7036C55.2242 40.5287 47.9298 46.5404 43.5607 46.5739C38.248 46.6147 36.1882 39.3289 35.5399 34.247C35.2875 32.2699 36.2701 29.9896 38.2137 29.4387C39.9551 28.945 41.811 29.9847 42.9721 31.3589C43.5249 32.0126 43.992 32.7606 44.702 33.2456C45.5375 33.8168 46.6196 33.9475 47.6262 33.8127C47.981 33.765 48.3266 33.6836 48.6673 33.5908C49.8966 33.2558 51.0629 32.7724 52.3948 33.1963Z" fill="#F18273"/>
<g style="mix-blend-mode:luminosity" opacity="0.15">
<path fill-rule="evenodd" clip-rule="evenodd" d="M48.1014 45.7351C48.1014 45.7351 37.3308 41.473 36.875 30.6215C36.4192 19.77 34.4687 43.1626 34.4687 43.1626L43.4151 49.2567L48.1014 45.7351Z" fill="white"/>
</g>
</svg>
