<svg width="235" height="158" viewBox="0 0 235 158" fill="none" xmlns="http://www.w3.org/2000/svg">
<path fill-rule="evenodd" clip-rule="evenodd" d="M35.1596 70.0194C31.2887 76.1451 30.8943 85.275 38.7131 87.4936C51.4235 91.1004 64.2023 87.4148 77.0851 87.2759C81.1854 87.2317 85.2741 87.4322 89.3716 87.49C91.9219 87.5262 95.8183 88.4757 98.0467 86.9765C100.689 85.1988 101.256 79.5109 99.7773 76.8928C99.1356 75.7564 98.1025 74.8957 96.9988 74.2145C91.4091 70.7662 83.4414 68.8498 77.1622 66.9372C68.3195 64.2431 59.1016 62.5066 49.8259 62.9508C46.1469 63.127 42.3468 63.692 39.247 65.7172C37.6724 66.7462 36.2722 68.2587 35.1596 70.0194Z" fill="#B3D2A3"/>
<path fill-rule="evenodd" clip-rule="evenodd" d="M90.353 35.5366C95.9506 39.7846 104.724 44.4748 107.27 51.7055C108.302 54.6367 108.244 58.02 106.964 60.8737C106.41 62.1078 105.608 63.2658 104.489 63.9611C101.796 65.6348 97.1103 62.955 94.471 62.0512C90.7768 60.7862 87.1249 59.3916 83.5222 57.8704C76.1605 54.762 69.0062 51.126 62.1273 46.9918C60.5369 46.0358 58.912 45.0067 57.8665 43.4272C56.2848 41.0374 56.3347 37.7643 57.3045 35.0062C58.2744 32.2477 60.0448 29.8854 61.7864 27.5754C62.4784 26.6582 63.191 25.7209 64.1404 25.11C65.7549 24.0709 67.7836 24.1392 69.638 24.4576C77.3824 25.7859 84.019 30.7293 90.353 35.5366Z" fill="#B3D2A3"/>
<path fill-rule="evenodd" clip-rule="evenodd" d="M89.7441 94.1893C96.3825 93.03 104.553 96.3441 101.492 104.476C98.568 112.244 89.4064 116.262 82.7108 119.988C75.6837 123.899 68.5265 127.779 60.7244 129.862C59.4802 130.195 58.1963 130.482 56.9162 130.355C55.0298 130.168 53.324 129.087 51.9961 127.725C49.2297 124.887 47.9006 120.691 48.5209 116.755C49.4356 110.95 54.2206 106.435 59.4774 103.891C64.7338 101.346 70.5641 100.332 76.1356 98.6031C80.2161 97.337 85.0178 95.015 89.7441 94.1893Z" fill="#B3D2A3"/>
<g clip-path="url(#clip0_401_3)">
<path d="M234.568 82.001C228.574 80.7997 222.523 82.3518 216.59 83.1787C210.47 84.0322 204.294 84.4183 198.116 84.3339C196.128 84.3057 194.141 84.2116 192.163 84.1175C191.866 83.9482 191.542 84.0234 191.207 84.0451L190.998 84.0592C189.91 84.0046 188.823 83.952 187.734 83.9124C187.679 83.9087 187.624 83.9212 187.576 83.9482C187.528 83.9753 187.489 84.0159 187.464 84.0648C185.89 84.0564 184.269 83.9049 182.849 83.3744C182.51 83.251 182.186 83.0911 181.882 82.8974C182.498 81.7771 182.749 80.3858 182.918 79.1403C182.944 78.9903 182.911 78.8359 182.826 78.7095C182.741 78.5832 182.61 78.4948 182.461 78.463C180.973 78.1808 179.847 79.4442 179.677 80.842C179.572 81.6971 179.865 82.4412 180.361 83.0404C179.702 83.6876 178.729 84.11 177.856 83.7337C177.83 83.7224 177.805 83.7102 177.78 83.697C178.615 76.2402 177.629 68.6168 174.653 61.634C172.365 56.272 168.991 51.3522 164.656 47.4295C159.805 43.0393 153.871 40.1137 147.978 37.3913C145.009 36.0208 141.979 34.4441 138.677 34.1074C135.286 33.7621 131.774 34.3397 128.44 34.9437C121.926 36.1185 115.609 38.1991 109.673 41.125C107.582 42.1475 104.662 43.5322 104.902 46.3091C104.963 46.8994 105.14 47.4717 105.424 47.993C105.07 48.2921 104.718 48.5944 104.368 48.8998C103.963 48.957 103.564 49.0534 103.177 49.1877C100.108 50.2469 97.8822 52.9062 96.1284 55.5091C91.8789 61.8014 89.2203 69.0289 88.3804 76.5722C88.3333 76.9955 88.6724 77.2824 89.0821 77.1855C92.9184 76.2768 92.3109 70.6948 92.9015 67.7786C93.784 63.4157 96.0257 59.4836 98.8118 56.0547C100.613 53.8375 102.633 51.8131 104.768 49.9158C105.423 49.8391 106.087 49.9092 106.711 50.1208C106.839 50.165 106.961 50.2149 107.082 50.2704C108.155 51.5469 109.248 52.8103 110.325 54.084L111.238 55.1611C111.521 55.606 111.813 56.0406 112.13 56.4526C111.647 56.6018 111.203 56.8567 110.83 57.1986C108.505 59.3904 111.154 62.7158 112.742 64.4137C114.172 65.9424 115.617 67.4578 117.054 68.9799C118.415 70.421 119.727 71.9402 121.174 73.2967C122.409 74.4547 123.849 75.1442 125.512 75.4434C126.63 75.6447 127.773 75.6889 128.903 75.7933C129.487 76.2806 130.169 76.6625 130.915 76.6738C131.247 78.6656 131.604 80.6526 131.988 82.635C132.036 82.8796 132.176 83.0988 132.438 83.1458C134.699 83.555 136.213 81.1703 136 79.1318C135.812 77.3229 134.413 76.179 132.806 75.5055C132.981 75.1813 133.106 74.8324 133.176 74.4707C133.478 72.9233 133.404 71.2451 133.458 69.6732C133.715 62.3896 133.542 55.0972 132.939 47.834C132.759 45.6657 132.342 41.9725 129.256 42.3733C128.818 42.4297 128.347 42.6225 128.05 42.964C127.626 43.4522 127.848 44.3045 127.861 44.9103C127.909 46.7359 127.978 48.5612 128.071 50.3861C128.438 57.6821 129.157 64.9669 130.211 72.1942C130.341 73.0879 130.476 73.9803 130.617 74.8714C130.51 74.8514 130.404 74.8335 130.298 74.8178C129.941 74.7623 129.582 74.7237 129.223 74.6871C128.505 73.9909 127.878 73.0672 127.482 72.6015C123.426 67.8391 119.37 63.0751 115.315 58.3096C115.36 58.2231 115.376 58.1237 115.359 58.0274C115.179 56.9851 114.468 56.4583 113.625 56.3247L111.982 54.3916C111.347 53.3766 110.77 52.3089 110.054 51.4039C109.455 50.6303 108.702 49.9896 107.842 49.5225C107.464 49.0993 107.108 48.6572 106.775 48.198C107.493 47.6016 108.219 47.0156 108.952 46.4399C112.807 43.408 116.817 40.2398 121.321 38.2257C131.277 33.7744 142.693 38.0583 151.5 43.2867C155.723 45.7946 159.638 48.9073 162.866 52.6184C166.145 56.3887 168.692 60.745 170.646 65.3319C172.848 70.5057 174.326 75.9514 175.449 81.4497C175.647 82.4233 175.853 83.4684 176.537 84.1918C176.344 85.7153 176.072 87.2278 175.723 88.7232C173.362 98.814 167.547 108.097 159.139 114.239C150.672 120.424 139.971 123.41 129.519 122.705C119.269 122.013 109.669 117.557 102.327 110.415C98.7707 106.952 95.8009 102.936 93.5335 98.5224C92.395 96.3007 91.4518 93.9845 90.7144 91.5998C89.9101 88.9988 89.0897 86.1146 89.3016 83.3706C89.3578 82.713 89.5131 82.0676 89.7622 81.4563C91.9747 81.1148 94.0949 80.2729 95.3024 78.2579C95.4276 78.05 95.308 77.686 95.0735 77.606C92.7461 76.813 90.349 78.115 89.1707 80.1713C89.0878 80.3162 89.0124 80.4629 88.9427 80.6106C88.7393 80.6332 88.5368 80.6529 88.338 80.6689C85.4446 80.9022 82.504 80.7922 79.603 80.8213C73.1275 80.8872 66.652 80.9342 60.1775 81.0377L49.2658 81.2108C48.8947 81.2174 48.9361 81.7827 49.3025 81.7827C56.1528 81.7884 63.0022 81.7959 69.8516 81.7611L80.0306 81.7103C82.8563 81.6962 85.7488 81.8504 88.5716 81.5927C87.901 83.8889 88.3936 86.5003 88.8985 88.7646C90.0645 93.9948 92.2469 98.9918 95.1922 103.467C101.112 112.463 110.168 119.408 120.576 122.356C131.39 125.42 143.305 124.124 153.348 119.157C163.52 114.122 171.272 105.264 175.185 94.6401C176.345 91.4801 177.162 88.2046 177.621 84.8701C178.262 85.0573 178.945 85.0458 179.579 84.8372C180.204 84.6473 180.768 84.2951 181.213 83.8165C181.565 84.0579 181.944 84.2569 182.343 84.4091C184.241 85.1382 186.431 85.2454 188.444 85.2219L188.718 85.2163C188.672 85.1636 188.624 85.1081 188.585 85.0535C189.088 85.0413 189.593 85.0403 190.092 85.029C190.301 85.0243 190.51 85.0093 190.72 84.9933C192.741 85.1937 194.77 85.2868 196.802 85.3404C199.873 85.4213 202.945 85.3862 206.017 85.2351C209.09 85.0839 212.15 84.8168 215.198 84.4336C218.227 84.0573 221.226 83.4929 224.25 83.0799C227.607 82.6228 231.016 82.4036 234.358 83.0931C235.057 83.2351 235.27 82.1421 234.568 82.001ZM100.669 52.386C97.3378 55.8026 94.3953 59.7451 92.7724 64.2689C91.986 66.4626 91.6337 68.6647 91.4011 70.9723C91.2391 72.5827 91.0243 74.8724 89.5578 75.8168C90.3912 69.5036 92.5189 63.4298 95.8082 57.9747C97.4659 55.2344 99.3948 52.3898 102.246 50.7718L102.392 50.6909C101.807 51.244 101.233 51.8091 100.669 52.386ZM134.794 78.8271C135.153 80.0697 134.432 82.0254 133.004 82.0743C132.637 80.1873 132.291 78.2959 131.968 76.4001L131.982 76.3907C133.223 76.8243 134.43 77.5693 134.794 78.8271ZM130.114 62.8776C129.775 59.6071 129.509 56.33 129.317 53.0464C129.22 51.4046 129.141 49.7621 129.08 48.119C129.05 47.3276 129.025 46.5365 129.005 45.7457C128.99 45.1925 128.678 43.7354 129.288 43.5143C129.929 43.2829 130.696 43.7965 131.039 44.296C131.46 44.9113 131.587 45.6958 131.67 46.4201C131.858 48.0663 131.952 49.7286 132.056 51.3823C132.266 54.6816 132.389 57.985 132.423 61.2925C132.458 64.6 132.408 67.9053 132.274 71.2084C132.239 72.0682 132.463 74.2101 131.759 75.1329C131.094 71.0648 130.546 66.9796 130.114 62.8776ZM113.631 57.9775C117.267 62.2577 120.902 66.5388 124.536 70.8208C125.589 72.0625 126.618 73.3325 127.695 74.5563C126.932 74.5054 126.173 74.4077 125.422 74.2637C123.588 73.8875 122.314 72.8819 121.05 71.5574C118.335 68.7108 115.53 65.9047 112.937 62.9472C111.981 61.8569 110.269 59.6548 111.456 58.1854C111.723 57.8543 112.37 57.5062 112.975 57.4093C113.182 57.6121 113.402 57.8018 113.632 57.9775H113.631ZM110.671 43.8558C109.183 44.9715 107.7 46.1135 106.263 47.2978C106.054 46.8559 105.955 46.3703 105.974 45.8821C106.05 44.5096 107.276 43.6244 108.365 42.9932C111.485 41.1833 114.901 39.7393 118.396 38.5841C115.682 40.1156 113.149 42.0064 110.671 43.8558ZM94.0638 78.3407C93.1398 79.5043 91.7458 80.0913 90.2887 80.3971C91.127 79.0556 92.4418 78.0764 94.0638 78.3407ZM176.745 82.1421C176.622 81.6717 176.557 81.1713 176.472 80.7639C176.215 79.5197 175.937 78.2799 175.639 77.0444C174.466 72.213 172.937 67.4494 170.811 62.9453C168.795 58.6802 166.258 54.6832 163.075 51.1866C159.867 47.6647 156.066 44.7222 151.966 42.3065C147.815 39.8607 143.317 37.8852 138.676 36.5748C136.615 35.9825 134.502 35.59 132.366 35.4027C133.179 35.308 133.993 35.234 134.808 35.1807C138.236 34.9625 141.273 35.6511 144.397 37.0292C149.94 39.4806 155.593 42.0365 160.53 45.5895C165.025 48.836 168.764 53.0147 171.491 57.8392C175.693 65.2331 177.418 73.7492 176.745 82.1421ZM181.025 82.0612C180.891 81.8407 180.81 81.5921 180.789 81.3349C180.739 80.6981 181.072 79.8778 181.67 79.6417C181.549 80.4695 181.387 81.3124 181.025 82.0621V82.0612Z" fill="#231F20"/>
<path d="M234.5 83C248.5 84.3333 279 86.6 289 85C299 83.4 306.5 81 309 80" stroke="black"/>
</g>
<defs>
<clipPath id="clip0_401_3">
<rect width="186" height="90" fill="white" transform="translate(49 34)"/>
</clipPath>
</defs>
</svg>
