<svg width="272" height="211" viewBox="0 0 272 211" fill="none" xmlns="http://www.w3.org/2000/svg">
<path fill-rule="evenodd" clip-rule="evenodd" d="M58.532 108.844C55.7213 107.921 52.6315 108.438 50.2747 110.225L36.4195 120.739C30.4854 125.242 21.9523 121.001 21.9792 113.564L22.0431 96.1952C22.0532 93.2418 20.6075 90.4718 18.1767 88.7887L3.87095 78.8896C-2.25481 74.6505 -0.849449 65.2435 6.24795 62.9713L22.8265 57.6649C25.6439 56.7626 27.8394 54.534 28.69 51.7057L33.7063 35.0739C35.8546 27.9515 45.2584 26.3784 49.6157 32.4117L59.7962 46.5002C61.5277 48.8962 64.3317 50.2888 67.2903 50.2241L84.6959 49.8441C92.1497 49.6814 96.5541 58.116 92.1497 64.1171L81.865 78.1309C80.1167 80.5137 79.6561 83.603 80.6311 86.3914L86.3736 102.788C88.8313 109.81 82.1508 116.596 75.0702 114.272L58.532 108.844Z" fill="#F4B942"/>
<mask id="mask0_1_707" style="mask-type:alpha" maskUnits="userSpaceOnUse" x="0" y="28" width="94" height="95">
<path fill-rule="evenodd" clip-rule="evenodd" d="M58.532 108.844C55.7213 107.921 52.6315 108.438 50.2747 110.225L36.4195 120.739C30.4854 125.242 21.9523 121.001 21.9792 113.564L22.0431 96.1952C22.0532 93.2418 20.6075 90.4718 18.1767 88.7887L3.87095 78.8896C-2.25481 74.6505 -0.849449 65.2435 6.24795 62.9713L22.8265 57.6649C25.6439 56.7626 27.8394 54.534 28.69 51.7057L33.7063 35.0739C35.8546 27.9515 45.2584 26.3784 49.6157 32.4117L59.7962 46.5002C61.5277 48.8962 64.3317 50.2888 67.2903 50.2241L84.6959 49.8441C92.1497 49.6814 96.5541 58.116 92.1497 64.1171L81.865 78.1309C80.1167 80.5137 79.6561 83.603 80.6311 86.3914L86.3736 102.788C88.8313 109.81 82.1508 116.596 75.0702 114.272L58.532 108.844Z" fill="white"/>
</mask>
<g mask="url(#mask0_1_707)">
<g style="mix-blend-mode:luminosity" opacity="0.15">
<path fill-rule="evenodd" clip-rule="evenodd" d="M30.6134 28.4903C30.6134 28.4903 46.3519 64.2833 58.9738 65.8331C71.5956 67.3828 77.6691 62.6377 77.0049 68.047C76.3408 73.4564 73.5573 88.6722 85.2776 90.1113C96.9979 91.5503 116.278 46.3297 116.278 46.3297L45.2278 13.812L30.6134 28.4903Z" fill="white"/>
</g>
</g>
<path fill-rule="evenodd" clip-rule="evenodd" d="M133.761 93.5914C126.411 95.2544 121.057 101.958 119.151 109.139C110.754 140.752 155.845 184.906 184.89 187.622C220.207 190.927 238.067 143.636 245.28 110.201C248.088 97.1936 242.853 81.464 230.239 76.6899C218.937 72.4116 205.998 78.2684 197.49 86.7469C193.439 90.7801 189.905 95.4894 184.905 98.31C179.021 101.633 171.749 101.885 165.129 100.413C162.796 99.8939 160.544 99.1551 158.331 98.3432C150.344 95.4133 142.862 91.5319 133.761 93.5914Z" fill="#F18273"/>
<g style="mix-blend-mode:luminosity" opacity="0.15">
<path fill-rule="evenodd" clip-rule="evenodd" d="M156.706 179.446C156.706 179.446 230.786 157.241 240.011 85.3167C249.237 13.3919 248.86 170.114 248.86 170.114L185.869 205.546L156.706 179.446Z" fill="white"/>
</g>
<path fill-rule="evenodd" clip-rule="evenodd" d="M181.032 25.617C178.336 20.8536 173.513 17.0727 167.896 17.7021C166.779 17.8271 165.677 18.1059 164.555 18.1011C161.818 18.0888 161.893 16.6183 161.102 14.6011C160.358 12.7007 159.508 10.8278 158.474 9.06214C156.432 5.57871 153.575 2.53256 149.695 1.05566C144.138 -1.05955 138.542 -0.0222243 134.545 4.40362C132.705 6.43898 131.344 8.86722 130.269 11.3636C129.276 13.665 129.229 17.8733 125.971 18.0896C124.32 18.1993 122.851 17.1255 121.262 16.6691C116.441 15.2866 110.876 16.3857 107.004 19.5201C100.197 25.032 98.4191 37.3194 104.692 43.8262C107.841 47.0931 112.154 49.008 116.454 50.55C128.465 54.8585 141.321 56.8698 154.099 56.4394C167.538 55.9866 185.754 47.3138 183.144 31.4651C182.82 29.5025 182.089 27.4842 181.032 25.617Z" fill="#B7C0EB"/>
<mask id="mask1_1_707" style="mask-type:alpha" maskUnits="userSpaceOnUse" x="100" y="0" width="84" height="57">
<path fill-rule="evenodd" clip-rule="evenodd" d="M181.032 25.617C178.336 20.8536 173.513 17.0727 167.896 17.7021C166.779 17.8271 165.677 18.1059 164.555 18.1011C161.818 18.0888 161.893 16.6183 161.102 14.6011C160.358 12.7007 159.508 10.8278 158.474 9.06214C156.432 5.57871 153.575 2.53256 149.695 1.05566C144.138 -1.05955 138.542 -0.0222243 134.545 4.40362C132.705 6.43898 131.344 8.86722 130.269 11.3636C129.276 13.665 129.229 17.8733 125.971 18.0896C124.32 18.1993 122.851 17.1255 121.262 16.6691C116.441 15.2866 110.876 16.3857 107.004 19.5201C100.197 25.032 98.4191 37.3194 104.692 43.8262C107.841 47.0931 112.154 49.008 116.454 50.55C128.465 54.8585 141.321 56.8698 154.099 56.4394C167.538 55.9866 185.754 47.3138 183.144 31.4651C182.82 29.5025 182.089 27.4842 181.032 25.617Z" fill="white"/>
</mask>
<g mask="url(#mask1_1_707)">
<g style="mix-blend-mode:luminosity" opacity="0.15">
<path fill-rule="evenodd" clip-rule="evenodd" d="M93.2842 7.88291C93.2842 7.88291 108.148 50.2211 152.817 53.6418C197.486 57.0625 100.45 61.0409 100.45 61.0409L77.5643 25.4832L93.2842 7.88291Z" fill="white"/>
</g>
</g>
</svg>
