<svg width="29" height="29" viewBox="0 0 29 29" fill="none" xmlns="http://www.w3.org/2000/svg">
<g clip-path="url(#clip0_11_3173)">
<path d="M17.726 12.6532C17.819 13.2012 17.9053 13.7196 17.9937 14.2415C18.0675 14.6749 17.9064 15.0356 17.54 15.089C17.3107 15.1105 17.0807 15.0559 16.8855 14.9335C15.8147 14.2438 14.7609 13.5279 13.7015 12.8222C13.3396 12.5806 13.1502 12.5829 12.8065 12.8324C12.296 13.2046 11.7856 13.579 11.274 13.9488C10.9337 14.1916 10.674 14.2131 10.4131 14.0316C10.1522 13.8501 10.0921 13.6005 10.1862 13.2227C10.227 13.0503 10.2679 12.8824 10.3166 12.6668C9.05301 12.702 8.30551 12.1223 8.14897 10.8391C7.6011 10.8391 7.06342 10.8187 6.52803 10.8391C5.31771 10.8947 4.52027 10.0155 4.53161 8.85264C4.55203 6.56776 4.53161 4.28288 4.53161 1.99914C4.53161 0.728505 5.2644 -0.000976562 6.53711 -0.000976562H18.883C19.8393 -0.000976562 20.5232 0.486856 20.7535 1.33092C20.7932 1.475 20.8068 1.62702 20.8352 1.78472C20.8953 1.7972 20.9577 1.81309 21.0201 1.8233C22.0058 1.97079 22.632 2.65261 22.6376 3.6555C22.652 6.03492 22.652 8.41396 22.6376 10.7926C22.6308 11.9056 21.8742 12.6317 20.7478 12.6441C19.8506 12.6543 18.9545 12.6441 18.0572 12.6441L17.726 12.6532ZM11.1197 12.9936C11.2479 12.9073 11.3251 12.8585 11.3988 12.8052C12.5819 11.9453 13.7661 11.0899 14.9435 10.222C15.1516 10.0599 15.4092 9.9745 15.6729 9.98032C16.7392 9.99053 17.8054 9.98032 18.8717 9.98032C19.6294 9.98032 19.981 9.62977 19.981 8.87193C19.981 6.57042 19.981 4.26814 19.981 1.96511C19.981 1.21294 19.6192 0.848759 18.8751 0.847625H6.51099C5.75894 0.847625 5.39484 1.20726 5.39484 1.95262C5.39484 4.26473 5.39484 6.57683 5.39484 8.88894C5.39484 9.62409 5.75214 9.97919 6.49058 9.98032C7.92739 9.98032 9.36154 9.98032 10.793 9.98032C10.9348 9.98032 11.0766 9.98032 11.2173 9.98032C11.6427 9.99621 11.8083 10.2152 11.7119 10.6338C11.6744 10.7983 11.6279 10.9617 11.5871 11.1262C11.4317 11.7331 11.2831 12.3344 11.1175 12.9936H11.1197ZM20.8329 2.67984V3.02019C20.8329 4.97379 20.8227 6.9274 20.8329 8.881C20.8408 10.0926 19.9856 10.8788 18.8739 10.8482C17.8462 10.8187 16.8163 10.8403 15.7886 10.8482C15.6774 10.8386 15.5657 10.8606 15.4665 10.9118C14.9719 11.2521 14.4887 11.6174 13.9782 11.9895L17.0919 14.0656C16.9978 13.5075 16.9184 13.0253 16.8356 12.5443C16.7392 11.9952 16.8912 11.8114 17.4493 11.8103H20.6764C21.4489 11.8103 21.7926 11.4608 21.7926 10.6758C21.7926 8.91957 21.7926 7.16413 21.7926 5.40944C21.7926 4.83312 21.7994 4.25793 21.7926 3.68161C21.7869 3.08033 21.4398 2.71047 20.8329 2.67984ZM10.7692 10.8596H9.04507C9.0723 11.5675 9.86971 12.0735 10.48 11.791C10.5001 11.7801 10.5178 11.7654 10.5322 11.7477C10.5466 11.73 10.5574 11.7096 10.5639 11.6877C10.6354 11.4177 10.6989 11.1489 10.7692 10.8596Z" fill="#112548"/>
<path d="M2.64861 23.3571C2.22437 23.1914 1.84323 23.0598 1.47685 22.8953C1.17604 22.7602 0.88497 22.6044 0.605699 22.4291C0.141763 22.1398 0.0385375 21.796 0.178059 21.2651C0.404923 20.3824 0.646537 19.4998 0.806476 18.6035C0.919908 17.9671 0.88927 17.3068 0.96527 16.6613C1.19213 14.6963 2.77109 13.0876 4.75275 12.7643C6.66294 12.4523 8.62419 13.5085 9.4738 15.3044C9.75026 15.8745 9.90296 16.4966 9.92185 17.1298C9.95474 18.5332 10.1567 19.9059 10.6422 21.2333C10.8418 21.7779 10.7181 22.1579 10.2145 22.4347C9.68138 22.7286 9.11194 22.9589 8.55726 23.213C8.4563 23.2584 8.3474 23.2845 8.18293 23.3389C8.34173 23.4251 8.44837 23.4864 8.55839 23.5431C8.99624 23.7632 9.4409 23.9708 9.87194 24.2034C10.1675 24.3481 10.4151 24.5748 10.5852 24.8565C10.7554 25.1381 10.8409 25.4628 10.8316 25.7917C10.8384 26.688 10.8372 27.5854 10.8316 28.4816C10.8316 28.8117 10.6626 29.008 10.4062 29.0035C10.1498 28.9989 9.98537 28.8038 9.98311 28.4703C9.97743 27.6489 9.96382 26.8275 9.98311 26.0073C9.99899 25.44 9.77551 25.0758 9.26394 24.8512C8.88507 24.6844 8.52209 24.4836 8.12962 24.284C7.48759 25.2653 6.58809 25.8167 5.41861 25.8178C4.24912 25.8189 3.34734 25.2698 2.69624 24.2772C2.21529 24.5256 1.74115 24.7548 1.28288 25.0123C0.957335 25.1961 0.846161 25.5138 0.846161 25.8768C0.846161 26.6982 0.846161 27.5196 0.846161 28.3409C0.846161 28.4158 0.846161 28.4918 0.846161 28.5678C0.823474 28.831 0.645378 29.0069 0.412843 29.0001C0.302893 28.996 0.198806 28.9495 0.122284 28.8705C0.045763 28.7914 0.00274279 28.6858 0.0022338 28.5758C-0.00910939 28.4158 0.0022338 28.2547 0.0022338 28.0936C0.0022338 27.3479 0.0022338 26.6025 0.0022338 25.8575C0.0022338 25.0872 0.342539 24.5211 1.03334 24.1705C1.55286 23.905 2.07578 23.6452 2.64861 23.3571ZM3.62978 22.6855C3.62978 22.412 3.61731 22.1852 3.62978 21.9605C3.64067 21.8824 3.62644 21.8027 3.58913 21.7332C3.55182 21.6637 3.49334 21.6078 3.42219 21.5737C2.97463 21.2869 2.60145 20.8981 2.33327 20.4392C2.00325 19.8951 1.82467 19.2727 1.81601 18.6364C1.81034 18.3653 1.97141 18.1826 2.20848 18.1713C2.44555 18.16 2.63385 18.3188 2.66221 18.6047C2.66221 18.6523 2.66221 18.6988 2.66902 18.7465C2.74275 19.8515 3.51522 20.8589 4.53724 21.18C5.68744 21.5419 6.8331 21.2072 7.567 20.2973C8.27822 19.4158 8.17726 18.3687 7.30951 17.6426C6.65614 17.0992 5.88481 16.8564 5.05222 16.76C4.93296 16.737 4.80961 16.7479 4.69628 16.7917C4.58296 16.8354 4.48421 16.9101 4.41132 17.0073C4.27166 17.1725 4.12 17.3273 3.95759 17.4702C3.73073 17.6812 3.48004 17.6971 3.30536 17.5122C3.13067 17.3272 3.14088 17.0947 3.36548 16.8621C3.62751 16.5909 3.89068 16.3187 4.16972 16.0679C4.27241 15.9775 4.40192 15.9233 4.53837 15.9137C5.6001 15.9012 6.59716 16.1405 7.4876 16.7305C8.49488 17.393 9.02915 18.3006 8.83292 19.5338C8.6934 20.4165 8.15231 21.0484 7.45016 21.5566C7.36055 21.6213 7.22332 21.6939 7.21197 21.7733C7.18248 22.0672 7.19948 22.3655 7.19948 22.6923C8.1353 22.4971 8.98038 22.2237 9.74037 21.7291C9.77288 21.6924 9.79586 21.6482 9.80734 21.6006C9.81881 21.5529 9.81839 21.5031 9.80614 21.4557C9.30024 20.0557 9.10402 18.6058 9.05865 17.1264C9.02633 16.1812 8.63109 15.2848 7.95509 14.6235C7.2791 13.9622 6.37435 13.5869 5.42883 13.5755C3.51523 13.5539 1.8387 15.1104 1.76497 17.0561C1.70712 18.5752 1.51542 20.0602 1.00271 21.4965C0.99288 21.5364 0.993327 21.5782 1.00404 21.6179C1.01475 21.6575 1.03539 21.6939 1.06397 21.7234C1.84438 22.2146 2.69851 22.4937 3.63092 22.6855H3.62978ZM7.37304 23.8914C6.5291 23.5658 6.28296 22.9112 6.35783 22.1432H4.47825C4.57127 22.9373 4.30585 23.5647 3.4744 23.8914C3.97123 24.5993 4.60871 24.9703 5.42769 24.9692C6.24667 24.9681 6.88301 24.605 7.37417 23.8914H7.37304Z" fill="#112548"/>
<path d="M24.2109 13.1659C24.9947 13.1659 25.7773 13.1659 26.5612 13.1659C27.0523 13.1659 27.1839 13.2997 27.185 13.7853C27.185 14.5409 27.21 15.2965 27.1748 16.0543C27.1662 16.4675 27.0895 16.8765 26.948 17.2648C26.7906 17.6556 26.7156 18.0746 26.7279 18.4957C26.7572 19.22 26.5562 19.9349 26.154 20.5378C25.9815 20.7931 25.7479 21.0075 25.5618 21.256C25.4683 21.3733 25.4055 21.5121 25.3792 21.6599C25.3607 21.895 25.358 22.1311 25.3713 22.3666C25.3713 22.7592 25.4507 22.8704 25.825 23.0133C26.4239 23.2402 27.024 23.4671 27.624 23.694C28.5973 24.0582 28.9943 24.6288 28.9943 25.6624C28.9943 26.5586 28.9943 27.4552 28.9943 28.3522C28.9943 28.409 28.9943 28.4657 28.9943 28.5213C28.9818 28.8265 28.8117 29.0182 28.5598 29.0114C28.308 29.0046 28.1526 28.8219 28.1458 28.5315C28.139 28.2014 28.1458 27.8701 28.1458 27.5399C28.1458 26.8695 28.1458 26.2001 28.1458 25.5296C28.1458 25.0758 27.9507 24.7434 27.5287 24.5721C26.7347 24.2514 25.9369 23.9398 25.1353 23.6373C25.0921 23.6331 25.0485 23.6375 25.007 23.6504C24.9655 23.6632 24.927 23.6842 24.8937 23.7122C24.5046 23.9946 24.1258 24.293 23.7356 24.5721C23.6733 24.612 23.6231 24.6682 23.5906 24.7346C23.558 24.801 23.5442 24.8751 23.5507 24.9488C23.5575 26.0628 23.5507 27.1758 23.5507 28.2898C23.5507 28.3659 23.5507 28.4407 23.5507 28.5167C23.5348 28.8242 23.3692 29.0137 23.1185 29.0114C22.8678 29.0091 22.7033 28.8185 22.7022 28.5077C22.7022 27.338 22.6954 26.1672 22.7022 24.9975C22.7105 24.9104 22.6945 24.8227 22.6558 24.7441C22.6172 24.6656 22.5574 24.5994 22.4833 24.5528C22.0965 24.2828 21.7278 23.9856 21.349 23.7122C21.3111 23.6839 21.2677 23.6639 21.2216 23.6533C21.1755 23.6428 21.1277 23.6419 21.0813 23.6509C20.3587 23.922 19.643 24.2113 18.9261 24.4881C18.2818 24.7366 18.1094 24.9794 18.1094 25.676C18.1094 26.5722 18.1094 27.4696 18.1094 28.3659C18.1111 28.4694 18.102 28.5728 18.0821 28.6744C18.0694 28.7747 18.0175 28.8658 17.9378 28.9278C17.8581 28.9899 17.757 29.0179 17.6568 29.0057C17.5556 29.0063 17.4583 28.9672 17.3858 28.8968C17.3132 28.8263 17.2712 28.7302 17.2688 28.6291C17.2614 28.5537 17.258 28.4779 17.2586 28.4022C17.2586 27.4673 17.2586 26.5337 17.2586 25.5988C17.2586 24.6311 17.667 24.0525 18.5767 23.7099C19.2028 23.4739 19.8245 23.2357 20.4574 23.0099C20.7546 22.9033 20.9009 22.7081 20.8896 22.3927C20.889 22.3833 20.889 22.3738 20.8896 22.3644C20.9452 21.7778 20.8442 21.2968 20.3803 20.826C19.7246 20.1601 19.5171 19.2615 19.5193 18.321C19.5267 18.0424 19.4769 17.7652 19.373 17.5065C18.4372 15.3906 19.804 13.2181 22.1169 13.1795C22.8145 13.1568 23.5133 13.167 24.2109 13.1659ZM26.2821 14.0372C26.2558 14.0282 26.2283 14.0228 26.2005 14.0213C24.8143 14.0213 23.4282 14.0077 22.0432 14.0213C20.4302 14.0417 19.4876 15.6323 20.1262 17.0436C20.3112 17.444 20.3986 17.8825 20.3814 18.3233C20.3551 19.0666 20.6034 19.7936 21.079 20.3654C22.0784 21.6043 24.0952 21.6417 25.1444 20.4493C25.6877 19.8322 25.9021 19.1175 25.8772 18.3165C25.8636 17.8627 25.8919 17.4373 26.1335 17.0379C26.2186 16.9012 26.2674 16.745 26.2753 16.5841C26.2889 15.7412 26.2821 14.8926 26.2821 14.0372ZM24.5024 21.9855C24.0487 22.0547 23.5859 22.1806 23.1253 22.1806C22.6648 22.1806 22.2179 22.0501 21.7642 21.9775C21.7449 22.2158 21.7165 22.4767 21.7074 22.7388C21.7071 22.7783 21.7148 22.8174 21.73 22.8539C21.7452 22.8903 21.7676 22.9234 21.7959 22.9509C22.2337 23.2913 22.6795 23.6191 23.131 23.9583C23.5847 23.618 24.0294 23.2867 24.4684 22.9498C24.4945 22.9268 24.5159 22.8988 24.5311 22.8674C24.5463 22.836 24.555 22.8019 24.5568 22.7671C24.5444 22.4937 24.5194 22.2237 24.5024 21.9855Z" fill="#112548"/>
<path d="M26.7314 27.4493C26.7314 27.7976 26.7314 28.1459 26.7314 28.4942C26.7314 28.805 26.5646 28.9945 26.3139 29.0002C26.0633 29.0058 25.8852 28.8073 25.884 28.4817C25.884 27.7851 25.884 27.0886 25.884 26.392C25.884 26.0845 26.0497 25.8928 26.2981 25.8883C26.5465 25.8837 26.728 26.08 26.7325 26.4044C26.7348 26.7527 26.7314 27.101 26.7314 27.4493Z" fill="#112548"/>
<path d="M19.5273 27.4458C19.5273 27.0884 19.5273 26.731 19.5273 26.3725C19.533 26.0798 19.6895 25.8983 19.9289 25.8881C20.1682 25.8779 20.3679 26.0617 20.3724 26.3669C20.3815 27.0816 20.3815 27.7967 20.3724 28.5122C20.3724 28.8196 20.1841 29.0057 19.9345 28.9989C19.685 28.9921 19.5307 28.8037 19.5262 28.4906C19.5239 28.1423 19.5273 27.7941 19.5273 27.4458Z" fill="#112548"/>
<path d="M2.66559 27.6817C2.66559 27.963 2.67126 28.2489 2.66559 28.528C2.65992 28.8071 2.48751 28.9988 2.24703 28.9999C2.00656 29.0011 1.82506 28.8184 1.82053 28.5337C1.81145 27.9596 1.81145 27.3859 1.82053 26.8126C1.82053 26.5245 1.99861 26.3441 2.24135 26.3418C2.4841 26.3395 2.65992 26.529 2.66672 26.8353C2.67013 27.1167 2.66672 27.3992 2.66559 27.6817Z" fill="#112548"/>
<path d="M9.01788 27.6715C9.01788 27.9631 9.02469 28.2546 9.01788 28.5462C9.00994 28.8151 8.84319 28.9921 8.61292 29C8.55603 29.0014 8.49944 28.9913 8.44654 28.9703C8.39365 28.9493 8.34554 28.9178 8.30509 28.8778C8.26463 28.8377 8.23268 28.7899 8.21112 28.7373C8.18956 28.6846 8.17886 28.6281 8.17963 28.5712C8.16375 27.9699 8.16375 27.3686 8.17963 26.7673C8.17896 26.7104 8.1899 26.6539 8.21179 26.6014C8.23367 26.5489 8.26604 26.5013 8.30691 26.4617C8.34779 26.4221 8.3963 26.3913 8.44951 26.371C8.50271 26.3508 8.55947 26.3417 8.61633 26.3441C8.84319 26.3532 9.00994 26.5279 9.01788 26.7979C9.02469 27.0884 9.01788 27.3811 9.01788 27.6715Z" fill="#112548"/>
<path d="M12.6908 5.84287H8.36445C8.27015 5.84651 8.17571 5.84272 8.082 5.83153C7.9865 5.82205 7.89783 5.7777 7.83296 5.70696C7.76809 5.63622 7.73156 5.54405 7.73035 5.44807C7.71826 5.35285 7.74231 5.25655 7.79776 5.1782C7.8532 5.09985 7.93602 5.04516 8.02983 5.02491C8.12097 5.00172 8.21484 4.99103 8.30887 4.99314C11.221 4.99314 14.1325 4.99314 17.0431 4.99314C17.1465 4.99003 17.2498 5.00264 17.3494 5.03057C17.4423 5.05356 17.5231 5.11098 17.5753 5.19122C17.6275 5.27146 17.6473 5.36853 17.6307 5.46282C17.6276 5.55373 17.5922 5.64056 17.5309 5.70772C17.4696 5.77489 17.3863 5.81798 17.2961 5.82926C17.1935 5.84311 17.0898 5.84728 16.9864 5.84174L12.6908 5.84287Z" fill="#112548"/>
<path d="M14.272 3.57237C13.3283 3.57237 12.3856 3.57918 11.4419 3.57237C11.2853 3.57111 11.1336 3.51761 11.0108 3.42035C10.7953 3.22295 10.9076 2.8531 11.1957 2.76348C11.3048 2.73496 11.4177 2.72348 11.5303 2.72945C13.3604 2.72945 15.1904 2.72945 17.0205 2.72945C17.096 2.7243 17.1718 2.7243 17.2473 2.72945C17.357 2.73647 17.4595 2.78608 17.533 2.86769C17.6066 2.9493 17.6453 3.05645 17.6409 3.16623C17.6404 3.22089 17.6288 3.27489 17.607 3.32499C17.5851 3.3751 17.5534 3.42029 17.5137 3.45787C17.474 3.49545 17.4272 3.52466 17.3759 3.54375C17.3247 3.56284 17.2702 3.5714 17.2156 3.56897C16.8106 3.58031 16.4045 3.56897 15.9984 3.56897L14.272 3.57237Z" fill="#112548"/>
<path d="M11.0913 8.11184H8.34743C8.25306 8.11585 8.15853 8.1113 8.06499 8.09823C7.86308 8.06306 7.71787 7.91898 7.74169 7.73179C7.77981 7.56803 7.87069 7.42134 8.00032 7.31429C8.07632 7.24849 8.23398 7.26324 8.35422 7.26324C10.1842 7.26324 12.0139 7.26324 13.8432 7.26324C13.9089 7.25926 13.9748 7.25926 14.0406 7.26324C14.3117 7.29728 14.4682 7.46518 14.4591 7.7057C14.4501 7.94621 14.2878 8.10391 14.0054 8.10618C13.0344 8.10618 12.0623 8.10618 11.0913 8.10618V8.11184Z" fill="#112548"/>
<path d="M8.82165 3.57244C8.60499 3.57244 8.38721 3.57925 8.17055 3.57244C7.90172 3.56109 7.7259 3.38979 7.72364 3.15609C7.72345 3.09886 7.73481 3.04218 7.75703 2.98945C7.77926 2.93671 7.81187 2.889 7.85296 2.84917C7.89405 2.80934 7.94277 2.77823 7.99617 2.75767C8.04956 2.73711 8.10655 2.72753 8.16374 2.72952C8.60612 2.71704 9.05077 2.7159 9.49429 2.72952C9.55144 2.72705 9.60848 2.73658 9.66173 2.7575C9.71497 2.77843 9.76325 2.81027 9.80343 2.851C9.84361 2.89172 9.8748 2.94042 9.89501 2.99395C9.91523 3.04747 9.92402 3.10463 9.9208 3.16175C9.9208 3.4 9.74612 3.56109 9.47275 3.5713C9.25609 3.57811 9.03944 3.57244 8.82165 3.57244Z" fill="#112548"/>
<path d="M16.5111 8.10953C16.3035 8.10953 16.096 8.10953 15.8895 8.10953C15.6388 8.10273 15.4777 7.98248 15.4528 7.72268C15.4444 7.66825 15.4477 7.61264 15.4625 7.55961C15.4774 7.50657 15.5034 7.45734 15.5389 7.41521C15.5743 7.37307 15.6184 7.33902 15.6681 7.31534C15.7178 7.29167 15.7721 7.27892 15.8271 7.27795C16.3069 7.2564 16.789 7.25753 17.2677 7.27795C17.5025 7.2893 17.6364 7.45833 17.6386 7.70112C17.6409 7.9439 17.4764 8.09252 17.2189 8.105C16.983 8.11635 16.7471 8.105 16.5111 8.105V8.10953Z" fill="#112548"/>
<path d="M21.7732 16.6667C21.7523 16.7531 21.7265 16.8384 21.6961 16.9219C21.6655 17.0133 21.6023 17.0901 21.5186 17.1377C21.4348 17.1852 21.3364 17.2001 21.2423 17.1795C21.1523 17.1723 21.068 17.1325 21.0053 17.0675C20.9427 17.0025 20.9059 16.9169 20.902 16.8266C20.8694 16.641 20.8721 16.4508 20.91 16.2662C20.9531 16.13 21.0949 15.9485 21.2197 15.9258C22.5332 15.6615 23.8286 15.7114 25.0366 16.3513C25.1808 16.4307 25.2897 16.5615 25.3418 16.7177C25.3477 16.7886 25.3359 16.8599 25.3074 16.925C25.2789 16.9902 25.2345 17.0473 25.1784 17.091C25.1074 17.128 25.0293 17.1496 24.9494 17.1543C24.8694 17.159 24.7894 17.1467 24.7145 17.1182C24.0456 16.7847 23.3067 16.6159 22.5593 16.6258C22.2995 16.6224 22.0375 16.6519 21.7732 16.6667Z" fill="#112548"/>
</g>
<defs>
<clipPath id="clip0_11_3173">
<rect width="29" height="29" fill="white"/>
</clipPath>
</defs>
</svg>
